<?xml version="1.0" encoding="UTF-8" standalone="no"?>
<svg
   width="66.950111"
   height="66.949997"
   viewBox="0 0 66.950115 66.949999"
   version="1.1"
   id="svg9"
   sodipodi:docname="38b34c1bffe36f4c3a527894bdae383c.svg"
   xmlns:inkscape="http://www.inkscape.org/namespaces/inkscape"
   xmlns:sodipodi="http://sodipodi.sourceforge.net/DTD/sodipodi-0.dtd"
   xmlns="http://www.w3.org/2000/svg"
   xmlns:svg="http://www.w3.org/2000/svg">
  <defs
     id="defs13" />
  <sodipodi:namedview
     id="namedview11"
     pagecolor="#ffffff"
     bordercolor="#666666"
     borderopacity="1.0"
     inkscape:pageshadow="2"
     inkscape:pageopacity="0.0"
     inkscape:pagecheckerboard="0" />
  <g
     id="Group_1789"
     data-name="Group 1789"
     transform="translate(-176.78789,-8.9995426)">
    <g
       id="Path_1945"
       data-name="Path 1945"
       transform="translate(176.788,9)"
       fill="#ffffff">
      <path
         d="M 33.3,0 A 33.475,33.475 0 1 1 0,33.475 33.389,33.389 0 0 1 33.3,0 Z"
         stroke="none"
         id="path2" />
      <path
         d="m 33.302132,0.99999237 c -4.360562,0 -8.590199,0.85823823 -12.571431,2.55088043 C 16.884441,5.1861343 13.429852,7.5274353 10.462902,10.509754 7.4955902,13.492435 5.1659813,16.965546 3.5387726,20.832615 1.8541718,24.836094 1,29.089474 1,33.474594 c 0,4.385121 0.8541718,8.6385 2.5387726,12.641979 1.6272087,3.86707 3.9568176,7.34018 6.9241294,10.32285 2.96695,2.982322 6.421539,5.323631 10.267799,6.958881 3.981232,1.692638 8.210869,2.550877 12.571431,2.550877 4.360557,0 8.590202,-0.858239 12.57143,-2.550877 3.84626,-1.63525 7.300838,-3.976559 10.267799,-6.958881 2.967312,-2.98267 5.296921,-6.45578 6.92413,-10.32285 1.684601,-4.003479 2.538772,-8.256858 2.538772,-12.641979 0,-4.38512 -0.854171,-8.6385 -2.538772,-12.641979 -1.627209,-3.867069 -3.956818,-7.34018 -6.92413,-10.322861 C 53.1744,7.5274353 49.719822,5.1861343 45.873562,3.5508728 41.892334,1.8582306 37.662689,0.99999237 33.302132,0.99999237 m 0,-0.9999999993945 c 18.39225,0 33.302131,14.9870906293945 33.302131,33.4746016293945 0,18.487511 -14.909881,33.474587 -33.302131,33.474587 C 14.90987,66.949181 0,51.962105 0,33.474594 0,14.987083 14.90987,-7.6293945e-6 33.302132,-7.6293945e-6 Z"
         stroke="none"
         fill="rgba(32,10,77,0.2)"
         id="path4" />
    </g>
    <path
       id="apple"
       d="M 18.719,43.07 A 4.366,4.366 0 0 1 21.057,39.1 5.025,5.025 0 0 0 17.1,37.018 c -1.66,-0.131 -3.475,0.968 -4.139,0.968 -0.7,0 -2.31,-0.921 -3.573,-0.921 C 6.773,37.107 4,39.146 4,43.295 a 11.657,11.657 0 0 0 0.673,3.8 c 0.6,1.716 2.759,5.926 5.014,5.856 1.179,-0.028 2.011,-0.837 3.545,-0.837 1.487,0 2.259,0.837 3.573,0.837 2.273,-0.033 4.228,-3.859 4.8,-5.58 a 4.636,4.636 0 0 1 -2.886,-4.3 z M 16.072,35.39 A 4.405,4.405 0 0 0 17.194,32 4.959,4.959 0 0 0 14.018,33.632 4.474,4.474 0 0 0 12.821,37 a 3.928,3.928 0 0 0 3.25,-1.609 z"
       transform="translate(196.788)" />
  </g>
</svg>
