<svg id="Group_195" data-name="Group 195" xmlns="http://www.w3.org/2000/svg" width="15.754" height="15.78" viewBox="0 0 15.754 15.78">
  <path id="Path_18" data-name="Path 18" d="M15.433,3.566,13.571.852A2.153,2.153,0,0,0,11.867,0H3.914A2,2,0,0,0,2.241.884L.379,3.6A1.825,1.825,0,0,0,0,4.734V13.76a2.034,2.034,0,0,0,2.02,2.02H13.729a2.014,2.014,0,0,0,2.02-2.02V4.734A1.923,1.923,0,0,0,15.433,3.566ZM11.867,1.578a.45.45,0,0,1,.379.189l1.168,1.7H8.679V1.578Zm-8.332.189a.45.45,0,0,1,.379-.189H7.1V3.472H2.367ZM14.2,13.76a.431.431,0,0,1-.442.442H2.02a.431.431,0,0,1-.442-.442V5.46a.418.418,0,0,1,.41-.41H13.855a.418.418,0,0,1,.41.41v8.3Z" transform="translate(0 0)" fill="#fd8a00"/>
</svg>
