<?xml version="1.0" encoding="UTF-8" standalone="no"?>
<svg
   width="66.473"
   height="66.473"
   viewBox="0 0 66.473 66.473"
   version="1.1"
   id="svg11"
   sodipodi:docname="f1596a11372ee685bbc7f99381add7c6.svg"
   xmlns:inkscape="http://www.inkscape.org/namespaces/inkscape"
   xmlns:sodipodi="http://sodipodi.sourceforge.net/DTD/sodipodi-0.dtd"
   xmlns="http://www.w3.org/2000/svg"
   xmlns:svg="http://www.w3.org/2000/svg">
  <defs
     id="defs15" />
  <sodipodi:namedview
     id="namedview13"
     pagecolor="#ffffff"
     bordercolor="#666666"
     borderopacity="1.0"
     inkscape:pageshadow="2"
     inkscape:pageopacity="0.0"
     inkscape:pagecheckerboard="0" />
  <g
     id="Group_1788"
     data-name="Group 1788"
     transform="translate(-86.314,-9)">
    <g
       id="Rectangle_35"
       data-name="Rectangle 35"
       transform="translate(86.314,9)"
       fill="#ffffff"
       stroke="rgba(32,10,77,0.2)"
       stroke-width="1">
      <rect
         width="66.473"
         height="66.473"
         rx="33.237"
         stroke="none"
         id="rect2"
         x="0"
         y="0" />
      <rect
         x="0.5"
         y="0.5"
         width="65.473"
         height="65.473"
         rx="32.737"
         fill="none"
         id="rect4" />
    </g>
    <g
       id="icons8-facebook"
       transform="translate(109.314,32)">
      <path
         id="Path_543"
         data-name="Path 543"
         d="M 15.237,5 A 10.237,10.237 0 1 0 25.473,15.237 10.237,10.237 0 0 0 15.237,5 Z"
         transform="translate(-5,-5)"
         fill="#039be5" />
      <path
         id="Path_544"
         data-name="Path 544"
         d="m 21.907,21.548 h 2.649 l 0.416,-2.691 h -3.066 v -1.471 c 0,-1.118 0.365,-2.109 1.411,-2.109 H 25 v -2.349 a 14.274,14.274 0 0 0 -2.1,-0.127 c -2.464,0 -3.908,1.3 -3.908,4.265 v 1.79 h -2.535 v 2.691 h 2.533 v 7.4 a 9.282,9.282 0 0 0 2.917,0.022 z"
         transform="translate(-10.284,-8.598)"
         fill="#ffffff" />
    </g>
  </g>
</svg>
