<svg xmlns="http://www.w3.org/2000/svg" xmlns:xlink="http://www.w3.org/1999/xlink" width="439" height="314" viewBox="0 0 439 314">
  <defs>
    <clipPath id="clip-path">
      <rect id="Rectangle_540" data-name="Rectangle 540" width="32" height="25" transform="translate(303 183)" fill="#fff"/>
    </clipPath>
  </defs>
  <g id="Group_1754" data-name="Group 1754" transform="translate(-8 67)">
    <g id="Group_1751" data-name="Group 1751">
      <g id="Group_1750" data-name="Group 1750">
        <rect id="Rectangle_539" data-name="Rectangle 539" width="344" height="216" rx="8" transform="translate(16 24)" fill="#222"/>
      </g>
      <path id="Path_12607" data-name="Path 12607" d="M227.5,161.5c-20.3-3-43.662-.821-62.082,2.142-20.9,3.363-42.722.738-60.925-10.075a91.581,91.581,0,0,0-79.3-6.87L16.5,150,8,247H296l-1.575-11.972a47.514,47.514,0,0,0-3.661-13.532C283.629,205.785,262.541,166.677,227.5,161.5Z" fill="#fff" opacity="0.13"/>
      <path id="Path_12617" data-name="Path 12617" d="M120.5,0A120.5,120.5,0,1,1,0,120.5,120.5,120.5,0,0,1,120.5,0Z" transform="translate(206 -67)" fill="#fff" opacity="0.06"/>
    </g>
    <g id="Group_1752" data-name="Group 1752" clip-path="url(#clip-path)">
      <path id="Path_12608" data-name="Path 12608" d="M308.817,207.876v-1.655a.968.968,0,0,0-1.042-1.048,1.079,1.079,0,0,0-.933.469.958.958,0,0,0-.878-.469.886.886,0,0,0-.769.386v-.331h-.576v2.648h.576v-1.462c0-.469.247-.689.631-.689s.577.248.577.689v1.462h.576v-1.462a.608.608,0,0,1,.631-.689c.384,0,.576.248.576.689v1.462Zm8.534-2.648h-.933v-.8h-.576v.8h-.521v.524h.521v1.214c0,.606.247.965.906.965a1.53,1.53,0,0,0,.713-.193l-.164-.5a.9.9,0,0,1-.494.138c-.275,0-.385-.165-.385-.441v-1.186h.933Zm4.885-.055a.772.772,0,0,0-.686.386v-.331h-.576v2.648h.576v-1.49c0-.441.192-.689.549-.689a1.626,1.626,0,0,1,.356.055l.165-.551A1.775,1.775,0,0,0,322.236,205.173Zm-7.382.276a1.874,1.874,0,0,0-1.07-.276c-.658,0-1.1.331-1.1.855,0,.441.329.689.9.772l.274.028c.3.055.467.138.467.275,0,.194-.22.331-.6.331a1.509,1.509,0,0,1-.878-.275l-.274.441a1.93,1.93,0,0,0,1.125.331c.768,0,1.207-.359,1.207-.855,0-.469-.356-.717-.9-.8l-.275-.027c-.247-.028-.439-.083-.439-.249,0-.193.192-.3.494-.3a1.964,1.964,0,0,1,.823.221Zm15.312-.276a.772.772,0,0,0-.686.386v-.331H328.9v2.648h.576v-1.49c0-.441.192-.689.549-.689a1.635,1.635,0,0,1,.357.055l.164-.551A1.77,1.77,0,0,0,330.166,205.173Zm-7.354,1.379a1.321,1.321,0,0,0,1.4,1.379,1.361,1.361,0,0,0,.933-.3l-.275-.468a1.107,1.107,0,0,1-.686.248.782.782,0,0,1-.8-.855.813.813,0,0,1,.8-.855,1.107,1.107,0,0,1,.686.248l.275-.469a1.365,1.365,0,0,0-.933-.3A1.321,1.321,0,0,0,322.812,206.552Zm5.324,0v-1.324h-.577v.331a.989.989,0,0,0-.823-.386,1.38,1.38,0,0,0,0,2.758.921.921,0,0,0,.823-.386v.331h.577Zm-2.113,0a.8.8,0,1,1,1.591,0,.8.8,0,1,1-1.591,0Zm-6.888-1.379a1.38,1.38,0,0,0,.028,2.758,1.669,1.669,0,0,0,1.07-.359l-.275-.413a1.308,1.308,0,0,1-.768.275.741.741,0,0,1-.8-.634h1.948v-.22A1.216,1.216,0,0,0,319.135,205.173Zm0,.5a.644.644,0,0,1,.659.635h-1.372A.7.7,0,0,1,319.135,205.669Zm14.3.883V204.18h-.577v1.379a.989.989,0,0,0-.823-.386,1.38,1.38,0,0,0,0,2.758.921.921,0,0,0,.823-.386v.331h.577Zm-2.113,0a.8.8,0,1,1,1.591,0,.8.8,0,1,1-1.591,0Zm-19.264,0v-1.324h-.576v.331a.989.989,0,0,0-.823-.386,1.38,1.38,0,0,0,0,2.758.921.921,0,0,0,.823-.386v.331h.576Zm-2.14,0a.8.8,0,1,1,1.592,0,.8.8,0,1,1-1.592,0Z" fill="#fff"/>
      <path id="Path_12609" data-name="Path 12609" d="M323.306,185.124h-8.644v15.609h8.644Z" fill="#ff5f00"/>
      <path id="Path_12610" data-name="Path 12610" d="M315.211,192.928a9.973,9.973,0,0,1,3.759-7.8A9.782,9.782,0,0,0,312.879,183a9.929,9.929,0,0,0,0,19.857,9.782,9.782,0,0,0,6.091-2.124A9.933,9.933,0,0,1,315.211,192.928Z" fill="#eb001b"/>
      <path id="Path_12611" data-name="Path 12611" d="M334.968,192.928a9.9,9.9,0,0,1-9.878,9.929A9.787,9.787,0,0,1,319,200.733a9.981,9.981,0,0,0,0-15.609A9.787,9.787,0,0,1,325.09,183,9.915,9.915,0,0,1,334.968,192.928Z" fill="#f79e1b"/>
    </g>
    <g id="Group_1753" data-name="Group 1753">
      <rect id="Rectangle_541" data-name="Rectangle 541" width="32" height="24" rx="8" transform="translate(40 58)" fill="#ffba49"/>
      <rect id="Rectangle_542" data-name="Rectangle 542" width="20" height="7" rx="2.5" transform="translate(34 60)" fill="none" stroke="#d29634" stroke-width="0.3"/>
      <rect id="Rectangle_543" data-name="Rectangle 543" width="20" height="7" rx="2.5" transform="translate(34 67)" fill="none" stroke="#d29634" stroke-width="0.3"/>
      <rect id="Rectangle_544" data-name="Rectangle 544" width="20" height="7" rx="2.5" transform="translate(34 74)" fill="none" stroke="#d29634" stroke-width="0.3"/>
      <rect id="Rectangle_545" data-name="Rectangle 545" width="20" height="7" rx="2.5" transform="translate(59 60)" fill="none" stroke="#d29634" stroke-width="0.3"/>
      <rect id="Rectangle_546" data-name="Rectangle 546" width="20" height="7" rx="2.5" transform="translate(59 67)" fill="none" stroke="#d29634" stroke-width="0.3"/>
      <rect id="Rectangle_547" data-name="Rectangle 547" width="20" height="7" rx="2.5" transform="translate(59 74)" fill="none" stroke="#d29634" stroke-width="0.3"/>
    </g>
    <path id="Path_12612" data-name="Path 12612" d="M44.827,120.456a.778.778,0,0,0,.816-.72,23.267,23.267,0,0,0-.48-2.832,22.83,22.83,0,0,0,2.208,1.824.78.78,0,0,0,1.032-.336.754.754,0,0,0-.24-1.056,22.3,22.3,0,0,0-2.688-1.032,22.245,22.245,0,0,0,2.688-1.008.759.759,0,0,0,.24-1.056.74.74,0,0,0-1.032-.336,26.154,26.154,0,0,0-2.232,1.8,23.267,23.267,0,0,0,.48-2.832.809.809,0,0,0-1.608,0,23.172,23.172,0,0,0,.456,2.832,22.832,22.832,0,0,0-2.208-1.824.78.78,0,0,0-1.032.336.749.749,0,0,0,.216,1.056,23.962,23.962,0,0,0,2.688,1.032,25.758,25.758,0,0,0-2.688,1.008.754.754,0,0,0-.216,1.056.74.74,0,0,0,1.032.336,25.846,25.846,0,0,0,2.208-1.8,23.172,23.172,0,0,0-.456,2.832A.778.778,0,0,0,44.827,120.456Zm15.614,0a.778.778,0,0,0,.816-.72,23.267,23.267,0,0,0-.48-2.832,22.83,22.83,0,0,0,2.208,1.824.78.78,0,0,0,1.032-.336.754.754,0,0,0-.24-1.056,22.3,22.3,0,0,0-2.688-1.032,22.245,22.245,0,0,0,2.688-1.008.759.759,0,0,0,.24-1.056.74.74,0,0,0-1.032-.336,26.155,26.155,0,0,0-2.232,1.8,23.267,23.267,0,0,0,.48-2.832.809.809,0,0,0-1.608,0,23.172,23.172,0,0,0,.456,2.832,22.832,22.832,0,0,0-2.208-1.824.78.78,0,0,0-1.032.336.749.749,0,0,0,.216,1.056,23.962,23.962,0,0,0,2.688,1.032,25.758,25.758,0,0,0-2.688,1.008.754.754,0,0,0-.216,1.056.74.74,0,0,0,1.032.336,25.846,25.846,0,0,0,2.208-1.8,23.172,23.172,0,0,0-.456,2.832A.778.778,0,0,0,60.44,120.456Zm15.614,0a.778.778,0,0,0,.816-.72,23.266,23.266,0,0,0-.48-2.832,22.83,22.83,0,0,0,2.208,1.824.78.78,0,0,0,1.032-.336.754.754,0,0,0-.24-1.056A22.3,22.3,0,0,0,76.7,116.3,22.245,22.245,0,0,0,79.39,115.3a.759.759,0,0,0,.24-1.056A.74.74,0,0,0,78.6,113.9a26.154,26.154,0,0,0-2.232,1.8,23.268,23.268,0,0,0,.48-2.832.809.809,0,0,0-1.608,0,23.173,23.173,0,0,0,.456,2.832,22.832,22.832,0,0,0-2.208-1.824.78.78,0,0,0-1.032.336.749.749,0,0,0,.216,1.056,23.962,23.962,0,0,0,2.688,1.032,25.758,25.758,0,0,0-2.688,1.008.754.754,0,0,0-.216,1.056.74.74,0,0,0,1.032.336,25.845,25.845,0,0,0,2.208-1.8,23.173,23.173,0,0,0-.456,2.832A.778.778,0,0,0,76.054,120.456Zm15.614,0a.778.778,0,0,0,.816-.72A23.266,23.266,0,0,0,92,116.9a22.83,22.83,0,0,0,2.208,1.824.78.78,0,0,0,1.032-.336.754.754,0,0,0-.24-1.056,22.3,22.3,0,0,0-2.688-1.032A22.245,22.245,0,0,0,95,115.3a.759.759,0,0,0,.24-1.056.74.74,0,0,0-1.032-.336,26.155,26.155,0,0,0-2.232,1.8,23.267,23.267,0,0,0,.48-2.832.809.809,0,0,0-1.608,0,23.172,23.172,0,0,0,.456,2.832A22.832,22.832,0,0,0,89.1,113.88a.78.78,0,0,0-1.032.336.749.749,0,0,0,.216,1.056,23.962,23.962,0,0,0,2.688,1.032,25.757,25.757,0,0,0-2.688,1.008.754.754,0,0,0-.216,1.056.74.74,0,0,0,1.032.336,25.845,25.845,0,0,0,2.208-1.8,23.172,23.172,0,0,0-.456,2.832A.778.778,0,0,0,91.668,120.456Zm22,0a.778.778,0,0,0,.816-.72,23.266,23.266,0,0,0-.48-2.832,22.83,22.83,0,0,0,2.208,1.824.78.78,0,0,0,1.032-.336.754.754,0,0,0-.24-1.056,22.3,22.3,0,0,0-2.688-1.032,22.245,22.245,0,0,0,2.688-1.008.759.759,0,0,0,.24-1.056.74.74,0,0,0-1.032-.336,26.154,26.154,0,0,0-2.232,1.8,23.268,23.268,0,0,0,.48-2.832.809.809,0,0,0-1.608,0,23.173,23.173,0,0,0,.456,2.832,22.832,22.832,0,0,0-2.208-1.824.78.78,0,0,0-1.032.336.749.749,0,0,0,.216,1.056,23.962,23.962,0,0,0,2.688,1.032,25.758,25.758,0,0,0-2.688,1.008.754.754,0,0,0-.216,1.056.74.74,0,0,0,1.032.336,25.845,25.845,0,0,0,2.208-1.8,23.173,23.173,0,0,0-.456,2.832A.778.778,0,0,0,113.67,120.456Zm15.614,0a.778.778,0,0,0,.816-.72,23.265,23.265,0,0,0-.48-2.832,22.83,22.83,0,0,0,2.208,1.824.78.78,0,0,0,1.032-.336.754.754,0,0,0-.24-1.056,22.3,22.3,0,0,0-2.688-1.032,22.244,22.244,0,0,0,2.688-1.008.759.759,0,0,0,.24-1.056.74.74,0,0,0-1.032-.336,26.154,26.154,0,0,0-2.232,1.8,23.265,23.265,0,0,0,.48-2.832.809.809,0,0,0-1.608,0,23.173,23.173,0,0,0,.456,2.832,22.832,22.832,0,0,0-2.208-1.824.78.78,0,0,0-1.032.336.749.749,0,0,0,.216,1.056,23.962,23.962,0,0,0,2.688,1.032,25.758,25.758,0,0,0-2.688,1.008.754.754,0,0,0-.216,1.056.74.74,0,0,0,1.032.336,25.846,25.846,0,0,0,2.208-1.8,23.173,23.173,0,0,0-.456,2.832A.778.778,0,0,0,129.284,120.456Zm15.614,0a.778.778,0,0,0,.816-.72,23.265,23.265,0,0,0-.48-2.832,22.83,22.83,0,0,0,2.208,1.824.78.78,0,0,0,1.032-.336.754.754,0,0,0-.24-1.056,22.3,22.3,0,0,0-2.688-1.032,22.244,22.244,0,0,0,2.688-1.008.759.759,0,0,0,.24-1.056.74.74,0,0,0-1.032-.336,26.151,26.151,0,0,0-2.232,1.8,23.268,23.268,0,0,0,.48-2.832.809.809,0,0,0-1.608,0,23.173,23.173,0,0,0,.456,2.832,22.833,22.833,0,0,0-2.208-1.824.78.78,0,0,0-1.032.336.749.749,0,0,0,.216,1.056A23.962,23.962,0,0,0,144.2,116.3a25.757,25.757,0,0,0-2.688,1.008.754.754,0,0,0-.216,1.056.74.74,0,0,0,1.032.336,25.845,25.845,0,0,0,2.208-1.8,23.173,23.173,0,0,0-.456,2.832A.778.778,0,0,0,144.9,120.456Zm15.613,0a.778.778,0,0,0,.816-.72,23.268,23.268,0,0,0-.48-2.832,22.831,22.831,0,0,0,2.208,1.824.78.78,0,0,0,1.032-.336.754.754,0,0,0-.24-1.056,22.3,22.3,0,0,0-2.688-1.032,22.246,22.246,0,0,0,2.688-1.008.759.759,0,0,0,.24-1.056.74.74,0,0,0-1.032-.336,26.156,26.156,0,0,0-2.232,1.8,23.268,23.268,0,0,0,.48-2.832.809.809,0,0,0-1.608,0,23.173,23.173,0,0,0,.456,2.832,22.831,22.831,0,0,0-2.208-1.824.78.78,0,0,0-1.032.336.749.749,0,0,0,.216,1.056,23.963,23.963,0,0,0,2.688,1.032,25.759,25.759,0,0,0-2.688,1.008.754.754,0,0,0-.216,1.056.74.74,0,0,0,1.032.336,25.845,25.845,0,0,0,2.208-1.8,23.173,23.173,0,0,0-.456,2.832A.778.778,0,0,0,160.511,120.456Zm22,0a.778.778,0,0,0,.816-.72,23.268,23.268,0,0,0-.48-2.832,22.831,22.831,0,0,0,2.208,1.824.78.78,0,0,0,1.032-.336.754.754,0,0,0-.24-1.056,22.3,22.3,0,0,0-2.688-1.032,22.246,22.246,0,0,0,2.688-1.008.759.759,0,0,0,.24-1.056.74.74,0,0,0-1.032-.336,26.156,26.156,0,0,0-2.232,1.8,23.268,23.268,0,0,0,.48-2.832.809.809,0,0,0-1.608,0,23.17,23.17,0,0,0,.456,2.832,22.831,22.831,0,0,0-2.208-1.824.78.78,0,0,0-1.032.336.749.749,0,0,0,.216,1.056,23.962,23.962,0,0,0,2.688,1.032,25.757,25.757,0,0,0-2.688,1.008.754.754,0,0,0-.216,1.056.74.74,0,0,0,1.032.336,25.845,25.845,0,0,0,2.208-1.8,23.17,23.17,0,0,0-.456,2.832A.778.778,0,0,0,182.514,120.456Zm15.614,0a.778.778,0,0,0,.816-.72,23.268,23.268,0,0,0-.48-2.832,22.831,22.831,0,0,0,2.208,1.824.78.78,0,0,0,1.032-.336.754.754,0,0,0-.24-1.056,22.3,22.3,0,0,0-2.688-1.032,22.246,22.246,0,0,0,2.688-1.008.759.759,0,0,0,.24-1.056.74.74,0,0,0-1.032-.336,26.156,26.156,0,0,0-2.232,1.8,23.268,23.268,0,0,0,.48-2.832.809.809,0,0,0-1.608,0,23.17,23.17,0,0,0,.456,2.832,22.831,22.831,0,0,0-2.208-1.824.78.78,0,0,0-1.032.336.749.749,0,0,0,.216,1.056,23.961,23.961,0,0,0,2.688,1.032,25.756,25.756,0,0,0-2.688,1.008.754.754,0,0,0-.216,1.056.74.74,0,0,0,1.032.336,25.845,25.845,0,0,0,2.208-1.8,23.17,23.17,0,0,0-.456,2.832A.778.778,0,0,0,198.128,120.456Zm15.613,0a.778.778,0,0,0,.816-.72,23.265,23.265,0,0,0-.48-2.832,22.83,22.83,0,0,0,2.208,1.824.78.78,0,0,0,1.032-.336.754.754,0,0,0-.24-1.056,22.3,22.3,0,0,0-2.688-1.032,22.244,22.244,0,0,0,2.688-1.008.759.759,0,0,0,.24-1.056.74.74,0,0,0-1.032-.336,26.154,26.154,0,0,0-2.232,1.8,23.265,23.265,0,0,0,.48-2.832.809.809,0,0,0-1.608,0,23.173,23.173,0,0,0,.456,2.832,22.833,22.833,0,0,0-2.208-1.824.78.78,0,0,0-1.032.336.749.749,0,0,0,.216,1.056,23.963,23.963,0,0,0,2.688,1.032,25.759,25.759,0,0,0-2.688,1.008.754.754,0,0,0-.216,1.056.74.74,0,0,0,1.032.336,25.848,25.848,0,0,0,2.208-1.8,23.173,23.173,0,0,0-.456,2.832A.778.778,0,0,0,213.741,120.456Zm15.614,0a.778.778,0,0,0,.816-.72,23.265,23.265,0,0,0-.48-2.832,22.83,22.83,0,0,0,2.208,1.824.78.78,0,0,0,1.032-.336.754.754,0,0,0-.24-1.056A22.3,22.3,0,0,0,230,116.3a22.244,22.244,0,0,0,2.688-1.008.759.759,0,0,0,.24-1.056.74.74,0,0,0-1.032-.336,26.151,26.151,0,0,0-2.232,1.8,23.268,23.268,0,0,0,.48-2.832.809.809,0,0,0-1.608,0,23.173,23.173,0,0,0,.456,2.832,22.833,22.833,0,0,0-2.208-1.824.78.78,0,0,0-1.032.336.749.749,0,0,0,.216,1.056,23.963,23.963,0,0,0,2.688,1.032,25.759,25.759,0,0,0-2.688,1.008.754.754,0,0,0-.216,1.056.74.74,0,0,0,1.032.336,25.845,25.845,0,0,0,2.208-1.8,23.173,23.173,0,0,0-.456,2.832A.778.778,0,0,0,229.355,120.456Zm24.467,8.832c3.432,0,5.736-1.992,5.736-4.752a4.157,4.157,0,0,0-3.552-3.984,4.018,4.018,0,0,0,3.192-3.864c0-2.64-2.3-4.464-5.448-4.464a6.835,6.835,0,0,0-5.64,2.9l1.248,1.128a5.412,5.412,0,0,1,4.3-2.328c2.064,0,3.648,1.248,3.648,2.976,0,1.872-1.656,2.928-3.864,2.9l-1.776-.024v1.728h1.752c2.592,0,4.248.984,4.248,2.928,0,1.872-1.536,3.144-3.84,3.144a5.849,5.849,0,0,1-4.7-2.352l-1.3,1.224A7.413,7.413,0,0,0,253.822,129.288Zm13.942-17.064a5.476,5.476,0,0,0-5.808,5.448c0,3.264,2.52,5.136,5.52,5.136a5.426,5.426,0,0,0,4.656-2.52v.216c0,3.96-2.088,7.08-4.728,7.08a5.052,5.052,0,0,1-3.7-1.728l-1.032,1.464a6.428,6.428,0,0,0,4.68,1.968c3.744,0,6.672-3.864,6.672-8.784C274.028,115.848,272.228,112.224,267.764,112.224Zm.048,8.976c-2.208,0-3.96-1.368-3.96-3.624a3.806,3.806,0,0,1,3.936-3.744c2.3,0,3.648,1.8,4.128,4.3A4.01,4.01,0,0,1,267.812,121.2Zm16.681,7.8h1.872v-4.008h2.472v-1.7h-2.472V112.512H284.2l-8.184,10.92.24,1.56h8.232Zm-6.336-5.712,6.336-8.52v8.52ZM292.919,129h2.16l7.1-15.072v-1.416h-11.16v1.776h8.928Z" fill="#fff"/>
    <path id="Path_12613" data-name="Path 12613" d="M44.5,190.12a3.581,3.581,0,0,0,2.59-1.12l-.88-.82a2.28,2.28,0,0,1-1.71.8,2.416,2.416,0,0,1,0-4.83,2.259,2.259,0,0,1,1.7.8l.89-.83a3.575,3.575,0,1,0-2.59,6Zm5.356-5.41a4.655,4.655,0,0,0-2.06.54l.42.85a3.166,3.166,0,0,1,1.4-.39,1.122,1.122,0,0,1,1.27,1.18v.14a4.145,4.145,0,0,0-1.45-.28,1.9,1.9,0,0,0-2.11,1.72,1.731,1.731,0,0,0,1.93,1.65,2.122,2.122,0,0,0,1.63-.74V190h1.19v-3.11A2.058,2.058,0,0,0,49.859,184.71Zm-.33,4.52c-.58,0-1.01-.31-1.01-.8s.49-.83,1.1-.83a3.933,3.933,0,0,1,1.27.2v.58A1.347,1.347,0,0,1,49.529,189.23Zm4.713-3.4v-1h-1.22V190h1.22v-2.61a1.659,1.659,0,0,1,1.85-1.64v-1.04A1.973,1.973,0,0,0,54.242,185.83Zm6.276-2.82v2.62a2.124,2.124,0,0,0-1.79-.92,2.729,2.729,0,0,0,0,5.41,2.124,2.124,0,0,0,1.79-.92v.8h1.22v-6.99Zm-1.46,6.07a1.675,1.675,0,0,1,0-3.33,1.679,1.679,0,0,1,0,3.33Zm10.79-5.95v2.8h-3.43v-2.8h-1.25V190h1.25v-2.93h3.43V190H71.1v-6.87Zm4.725,6.99a2.706,2.706,0,1,0-2.77-2.71A2.778,2.778,0,0,0,74.573,190.12Zm0-1.04a1.668,1.668,0,1,1,1.57-1.67A1.643,1.643,0,0,1,74.573,189.08Zm3.42.92h1.22v-6.99h-1.22Zm6.09-6.99v2.62a2.124,2.124,0,0,0-1.79-.92,2.729,2.729,0,0,0,0,5.41,2.124,2.124,0,0,0,1.79-.92v.8H85.3v-6.99Zm-1.46,6.07a1.675,1.675,0,0,1,0-3.33,1.679,1.679,0,0,1,0,3.33Zm6.055-.04a1.44,1.44,0,0,1-1.43-1.21h3.9c0-1.91-.93-3.12-2.53-3.12a2.61,2.61,0,0,0-2.63,2.69,2.662,2.662,0,0,0,2.7,2.72,3.131,3.131,0,0,0,2.1-.8l-.77-.8A2.039,2.039,0,0,1,88.679,189.04Zm-.01-3.25a1.285,1.285,0,0,1,1.31,1.11h-2.72A1.43,1.43,0,0,1,88.669,185.79Zm4.38.04v-1h-1.22V190h1.22v-2.61a1.659,1.659,0,0,1,1.85-1.64v-1.04A1.973,1.973,0,0,0,93.048,185.83Zm4.9,4.17H99.2v-4.83l3.63,4.83h1.24v-6.87h-1.24v4.83l-3.63-4.83h-1.25Zm9.437-5.29a4.655,4.655,0,0,0-2.06.54l.42.85a3.166,3.166,0,0,1,1.4-.39,1.122,1.122,0,0,1,1.27,1.18v.14a4.145,4.145,0,0,0-1.45-.28,1.9,1.9,0,0,0-2.11,1.72,1.731,1.731,0,0,0,1.93,1.65,2.122,2.122,0,0,0,1.63-.74V190h1.19v-3.11A2.058,2.058,0,0,0,107.385,184.71Zm-.33,4.52c-.58,0-1.01-.31-1.01-.8s.49-.83,1.1-.83a3.933,3.933,0,0,1,1.27.2v.58A1.347,1.347,0,0,1,107.055,189.23Zm9.433-4.52a1.743,1.743,0,0,0-1.67.98,1.81,1.81,0,0,0-1.65-.98,1.574,1.574,0,0,0-1.44.82v-.7h-1.22V190h1.22v-3.17a1.064,1.064,0,0,1,1.13-1.08,1.044,1.044,0,0,1,1.01,1.16V190h1.19v-3.17a1.059,1.059,0,0,1,1.13-1.08,1.042,1.042,0,0,1,1,1.16V190h1.19v-3.29A1.886,1.886,0,0,0,116.488,184.71Zm5.212,4.33a1.44,1.44,0,0,1-1.43-1.21h3.9c0-1.91-.93-3.12-2.53-3.12a2.61,2.61,0,0,0-2.63,2.69,2.662,2.662,0,0,0,2.7,2.72,3.131,3.131,0,0,0,2.1-.8l-.77-.8A2.039,2.039,0,0,1,121.7,189.04Zm-.01-3.25A1.285,1.285,0,0,1,123,186.9h-2.72A1.43,1.43,0,0,1,121.69,185.79Z" fill="#fff" opacity="0.8"/>
    <path id="Path_12614" data-name="Path 12614" d="M200.88,184.27v-1.14h-5.17V190h5.17v-1.14h-3.92v-1.79h3.55v-1.14h-3.55v-1.66Zm5.489,5.73-1.94-2.65,1.85-2.52h-1.33l-1.18,1.61-1.18-1.61h-1.34l1.85,2.53-1.94,2.64h1.33l1.27-1.73,1.26,1.73Zm3.508-5.29a2.122,2.122,0,0,0-1.8.94v-.82h-1.22v6.89h1.22v-2.54a2.122,2.122,0,0,0,1.8.94,2.729,2.729,0,0,0,0-5.41Zm-.33,4.37a1.675,1.675,0,1,1,1.49-1.67A1.53,1.53,0,0,1,209.547,189.08Zm4.015-5.03a.707.707,0,0,0,.69-.7.7.7,0,0,0-1.39,0A.709.709,0,0,0,213.562,184.05Zm-.62,5.95h1.22v-5.17h-1.22Zm3.41-4.17v-1h-1.22V190h1.22v-2.61a1.659,1.659,0,0,1,1.85-1.64v-1.04A1.973,1.973,0,0,0,216.352,185.83Zm3.4,5.97a1.911,1.911,0,0,0,1.77-1.44l2.19-5.53h-1.26l-1.42,3.86-1.51-3.86h-1.29l2.19,5.21-.22.46a.7.7,0,0,1-.66.34,1.483,1.483,0,0,1-.66-.19l-.26.88A2.479,2.479,0,0,0,219.748,191.8Zm7.083-1.8h2.42c2.27,0,3.87-1.43,3.87-3.44s-1.6-3.43-3.87-3.43h-2.42Zm1.25-1.13v-4.61h1.3a2.311,2.311,0,1,1,0,4.61Zm8.069-4.16a4.655,4.655,0,0,0-2.06.54l.42.85a3.166,3.166,0,0,1,1.4-.39,1.122,1.122,0,0,1,1.27,1.18v.14a4.145,4.145,0,0,0-1.45-.28,1.9,1.9,0,0,0-2.11,1.72,1.731,1.731,0,0,0,1.93,1.65,2.122,2.122,0,0,0,1.63-.74V190h1.19v-3.11A2.058,2.058,0,0,0,236.15,184.71Zm-.33,4.52c-.58,0-1.01-.31-1.01-.8s.49-.83,1.1-.83a3.933,3.933,0,0,1,1.27.2v.58A1.347,1.347,0,0,1,235.82,189.23Zm6.043-.34a.738.738,0,0,1-.51.19.544.544,0,0,1-.51-.6v-2.64h1.17v-1.01h-1.17v-1.42h-1.19v1.42h-.75v1.01h.75v2.79a1.415,1.415,0,0,0,1.46,1.49,1.757,1.757,0,0,0,1.1-.41Zm3.3.15a1.44,1.44,0,0,1-1.43-1.21h3.9c0-1.91-.93-3.12-2.53-3.12a2.61,2.61,0,0,0-2.63,2.69,2.662,2.662,0,0,0,2.7,2.72,3.131,3.131,0,0,0,2.1-.8l-.77-.8A2.039,2.039,0,0,1,245.162,189.04Zm-.01-3.25a1.285,1.285,0,0,1,1.31,1.11h-2.72A1.43,1.43,0,0,1,245.152,185.79Z" fill="#fff" opacity="0.8"/>
    <path id="Path_12615" data-name="Path 12615" d="M43.537,210.168a3.129,3.129,0,0,0,3.206-3.3v-6.482H45.007v6.37a1.666,1.666,0,0,1-1.624,1.834,2.123,2.123,0,0,1-1.806-1.162L40.4,208.572A3.969,3.969,0,0,0,43.537,210.168Zm8.132-1.512a2.016,2.016,0,0,1-2-1.694h5.46c0-2.674-1.3-4.368-3.542-4.368A3.654,3.654,0,0,0,47.9,206.36a3.727,3.727,0,0,0,3.78,3.808,4.384,4.384,0,0,0,2.94-1.12l-1.078-1.12A2.855,2.855,0,0,1,51.668,208.656Zm-.014-4.55a1.8,1.8,0,0,1,1.834,1.554H49.681A2,2,0,0,1,51.654,204.106Zm8.493-1.512a2.691,2.691,0,0,0-2.24,1.134v-.966H56.2V210h1.708v-4.578a1.714,1.714,0,0,1,1.75-1.372,1.545,1.545,0,0,1,1.526,1.68V210h1.652v-4.606A2.633,2.633,0,0,0,60.147,202.594Zm8.082,0a2.691,2.691,0,0,0-2.24,1.134v-.966H64.281V210h1.708v-4.578a1.714,1.714,0,0,1,1.75-1.372,1.545,1.545,0,0,1,1.526,1.68V210h1.652v-4.606A2.633,2.633,0,0,0,68.229,202.594Zm5.6,9.926a2.675,2.675,0,0,0,2.478-2.016l3.066-7.742H77.614l-1.988,5.4-2.114-5.4H71.705l3.066,7.294-.308.644a.973.973,0,0,1-.924.476,2.076,2.076,0,0,1-.924-.266l-.364,1.232A3.471,3.471,0,0,0,73.834,212.52Zm8.687-10.36a.761.761,0,0,1,.714-.84,1.033,1.033,0,0,1,.714.266l.49-1.092a2.46,2.46,0,0,0-1.54-.574,1.981,1.981,0,0,0-2.044,2.086v.756H79.8v1.414h1.05V210H82.52v-5.824h1.638v-1.414H82.52Zm5.964,6.5a2.016,2.016,0,0,1-2-1.694h5.46c0-2.674-1.3-4.368-3.542-4.368a3.654,3.654,0,0,0-3.682,3.766,3.727,3.727,0,0,0,3.78,3.808,4.384,4.384,0,0,0,2.94-1.12l-1.078-1.12A2.855,2.855,0,0,1,88.484,208.656Zm-.014-4.55A1.8,1.8,0,0,1,90.3,205.66H86.5A2,2,0,0,1,88.47,204.106Zm6.295.056v-1.4H93.057V210h1.708v-3.654a2.323,2.323,0,0,1,2.59-2.3v-1.456A2.763,2.763,0,0,0,94.765,204.162ZM101.951,210h3.388c3.178,0,5.418-2,5.418-4.816s-2.24-4.8-5.418-4.8h-3.388Zm1.75-1.582v-6.454h1.82a3.235,3.235,0,1,1,0,6.454Zm11.81,1.75a3.788,3.788,0,1,0-3.878-3.794A3.889,3.889,0,0,0,115.511,210.168Zm0-1.456a2.335,2.335,0,1,1,2.2-2.338A2.3,2.3,0,0,1,115.511,208.712Zm8.326-.056a2.016,2.016,0,0,1-2-1.694h5.46c0-2.674-1.3-4.368-3.542-4.368a3.654,3.654,0,0,0-3.682,3.766,3.727,3.727,0,0,0,3.78,3.808,4.384,4.384,0,0,0,2.94-1.12l-1.078-1.12A2.855,2.855,0,0,1,123.837,208.656Zm-.014-4.55a1.8,1.8,0,0,1,1.834,1.554h-3.808A2,2,0,0,1,123.823,204.106Z" fill="#fff"/>
    <path id="Path_12616" data-name="Path 12616" d="M200.01,210.168c2.464,0,4.2-2.058,4.2-4.984s-1.736-4.97-4.2-4.97-4.228,2.058-4.228,4.97S197.532,210.168,200.01,210.168Zm0-1.6c-1.428,0-2.436-1.4-2.436-3.388s1.008-3.374,2.436-3.374,2.422,1.386,2.422,3.374S201.424,208.572,200.01,208.572Zm8.7,1.6c2.2,0,3.7-1.288,3.7-3.276a2.972,2.972,0,0,0-3.178-3.024,3.346,3.346,0,0,0-1.946.588l.084-2.478h4.522v-1.6h-6.16l-.14,5.11,1.19.5a3.161,3.161,0,0,1,1.96-.672,1.7,1.7,0,0,1,1.918,1.638,1.745,1.745,0,0,1-1.918,1.694,3.76,3.76,0,0,1-2.59-1.218l-1.036,1.246A4.779,4.779,0,0,0,208.705,210.168Zm3.656.868H214.2l4.844-11.438h-1.834ZM219.125,210h7.07v-1.6h-4.354l2.016-1.624c1.652-1.274,2.24-2.3,2.24-3.57a3.088,3.088,0,0,0-3.36-3,4.36,4.36,0,0,0-3.626,1.876l1.134,1.05a3.1,3.1,0,0,1,2.436-1.358,1.52,1.52,0,0,1,1.638,1.47c0,.784-.434,1.512-1.652,2.492l-3.542,2.828Zm11.57.168c2.17,0,3.584-1.176,3.584-2.828a2.389,2.389,0,0,0-2.03-2.282,2.3,2.3,0,0,0,1.82-2.226c0-1.526-1.358-2.618-3.4-2.618a4.312,4.312,0,0,0-3.528,1.694l1.036,1.064a3.079,3.079,0,0,1,2.338-1.19c1.036,0,1.792.546,1.792,1.33,0,.84-.742,1.3-1.876,1.288h-1.078v1.512l1.078-.014c1.358,0,2.072.448,2.072,1.3s-.714,1.414-1.862,1.414a3.5,3.5,0,0,1-2.632-1.218l-1.064,1.148A4.779,4.779,0,0,0,230.7,210.168Z" fill="#fff"/>
  </g>
</svg>
