<svg xmlns="http://www.w3.org/2000/svg" width="59.217" height="87.793" viewBox="0 0 59.217 87.793">
  <g id="Group_1832" data-name="Group 1832" transform="translate(0 0.001)">
    <path id="Path_12583" data-name="Path 12583" d="M59.177,0C9.508,39.662-8.728,25.214,3.841,87.537c21.292.575,55.354,0,55.354,0S59.256,32.011,59.177,0Z" transform="translate(59.217 87.793) rotate(180)" fill="#fd8a00"/>
    <g id="Arrow_-_Left_Square" data-name="Arrow - Left Square" transform="translate(18.63 38.277) rotate(-90)" style="isolation: isolate">
      <path id="Fill_4" data-name="Fill 4" d="M.248,4.518,4.506.241a.878.878,0,0,1,1.209,0L9.973,4.518a.853.853,0,0,1-1.209,1.2l-2.8-2.814v7.219a.852.852,0,0,1-1.7,0V2.907l-2.8,2.814a.852.852,0,0,1-1.208-1.2" transform="translate(0 0)" fill="#fff"/>
    </g>
  </g>
</svg>
