<svg xmlns="http://www.w3.org/2000/svg" width="18.609" height="20.676" viewBox="0 0 18.609 20.676">
  <g id="Iconly_Bold_Calendar" data-name="Iconly/Bold/Calendar" transform="translate(0 0)">
    <g id="Calendar" transform="translate(0 0)">
      <path id="Calendar-2" data-name="Calendar" d="M5.326,20.676H5.315a5.327,5.327,0,0,1-3.865-1.428A5.313,5.313,0,0,1,.011,15.383L0,6.774A5.261,5.261,0,0,1,1.26,3.153a5.106,5.106,0,0,1,3.4-1.571V.807A.8.8,0,0,1,4.885.235.792.792,0,0,1,6.229.8v.724l6.064-.008V.8a.8.8,0,0,1,.225-.57.792.792,0,0,1,1.346.569V1.57A5.134,5.134,0,0,1,17.3,3.107a5.162,5.162,0,0,1,1.3,3.6l.011,8.711c0,3.231-2.028,5.241-5.3,5.246Zm8.158-6a.861.861,0,0,0-.836.88.858.858,0,1,0,.847-.88Zm-8.4,0h0a.879.879,0,0,0-.836.889.85.85,0,0,0,.838.826h.04a.836.836,0,0,0,.584-.274.849.849,0,0,0,.222-.615.84.84,0,0,0-.847-.825Zm4.206-.006h0a.884.884,0,0,0-.836.89.851.851,0,0,0,.841.826h.037a.851.851,0,0,0,.806-.89.84.84,0,0,0-.847-.825Zm-4.21-3.714h0a.879.879,0,0,0-.836.889.849.849,0,0,0,.839.826h.04a.834.834,0,0,0,.582-.274.85.85,0,0,0,.222-.615.84.84,0,0,0-.846-.825Zm4.206-.036h0a.88.88,0,0,0-.837.889.851.851,0,0,0,.842.827h.037a.853.853,0,0,0,.8-.89.841.841,0,0,0-.846-.825Zm4.208.007h0a.854.854,0,0,0-.836.867V11.8a.841.841,0,0,0,.849.825h.02a.853.853,0,0,0-.029-1.7ZM4.661,3.162c-2.052.206-3.092,1.421-3.089,3.611l0,.321,15.454-.02V6.711c-.044-2.184-1.107-3.382-3.16-3.561v.8a.79.79,0,0,1-1.348.566.8.8,0,0,1-.224-.564V3.111L6.232,3.12l0,.836a.79.79,0,0,1-1.348.566.8.8,0,0,1-.224-.564v-.8Z" transform="translate(0 0)" fill="#a3a3a3"/>
    </g>
  </g>
</svg>
