<svg id="Camera" xmlns="http://www.w3.org/2000/svg" width="59.787" height="53.808" viewBox="0 0 59.787 53.808">
  <path id="Combined_Shape" data-name="Combined Shape" d="M3.439,20.751A11.752,11.752,0,0,1,0,12.451,11.571,11.571,0,0,1,3.409,4.178a11.737,11.737,0,1,1,.03,16.573ZM6.579,7.345a6.977,6.977,0,0,0-2.093,5.077v.03a7.243,7.243,0,0,0,7.264,7.256,7.3,7.3,0,0,0,7.264-7.256A7.273,7.273,0,0,0,6.579,7.345Zm19.25-4.628a2.705,2.705,0,1,1,2.69,2.688A2.7,2.7,0,0,1,25.829,2.717Z" transform="translate(18.144 18.424)" fill="#fd8a00"/>
  <path id="Path" d="M46.156,9.675l-.3-.657c-.807-1.7-1.734-3.673-2.3-4.808A7.3,7.3,0,0,0,36.919,0H22.839a7.257,7.257,0,0,0-6.606,4.21c-.6,1.194-1.614,3.344-2.451,5.106l-.179.358a.586.586,0,0,1-.568.358A13.038,13.038,0,0,0,0,23.052V40.789A13.038,13.038,0,0,0,13.034,53.808h33.72A13.057,13.057,0,0,0,59.787,40.789V23.052A13.057,13.057,0,0,0,46.754,10.033.68.68,0,0,1,46.156,9.675Z" transform="translate(0)" fill="#fd8a00" opacity="0.4"/>
</svg>
