<svg xmlns="http://www.w3.org/2000/svg" width="16" height="16" viewBox="0 0 16 16">
  <path id="Chat" d="M8,16a7.964,7.964,0,0,1-3.936-1.041,1.759,1.759,0,0,0-.885-.339.971.971,0,0,0-.306.051l-1.616.481a.6.6,0,0,1-.181.029.5.5,0,0,1-.4-.191A.518.518,0,0,1,.6,14.526l.536-1.795a.837.837,0,0,0-.056-.721,8.453,8.453,0,0,1-1.08-4A8.126,8.126,0,0,1,2.265,2.426,7.912,7.912,0,0,1,8.016,0a7.892,7.892,0,0,1,5.7,2.4,8.046,8.046,0,0,1,1.68,2.546A7.912,7.912,0,0,1,16,7.988a8.111,8.111,0,0,1-.692,3.337,7.679,7.679,0,0,1-1.82,2.522A8.2,8.2,0,0,1,8,16Zm3.672-9.005A1.025,1.025,0,1,0,12.7,8.02,1.026,1.026,0,0,0,11.672,6.995Zm-3.7,0A1.014,1.014,0,0,0,6.96,8.012,1.024,1.024,0,1,0,7.984,6.995H7.969Zm-3.673,0A1.025,1.025,0,1,0,5.32,8.02,1.026,1.026,0,0,0,4.3,6.995Z" fill="#fd8a00"/>
</svg>
