<svg xmlns="http://www.w3.org/2000/svg" width="13" height="13" viewBox="0 0 13 13">
  <g id="Edit" transform="translate(0 0)">
    <path id="Edit-2" data-name="Edit" d="M8.146,13a.739.739,0,0,1,0-1.478h4.124a.739.739,0,0,1,0,1.478ZM.612,12.694.038,10.2a1.539,1.539,0,0,1,.291-1.3l4.5-5.823a.226.226,0,0,1,.306-.039L7.027,4.55a.611.611,0,0,0,.467.132.683.683,0,0,0,.59-.753.761.761,0,0,0-.238-.458L6.008,2a.273.273,0,0,1-.046-.38L6.674.691A1.866,1.866,0,0,1,9.411.505l1.065.846A2.211,2.211,0,0,1,11.3,2.617a1.735,1.735,0,0,1-.352,1.475L4.605,12.3a1.52,1.52,0,0,1-1.18.59L.9,12.919A.288.288,0,0,1,.612,12.694Z" transform="translate(0 0)" fill="#fd8a00"/>
  </g>
</svg>
