<svg xmlns="http://www.w3.org/2000/svg" width="11.405" height="10.833" viewBox="0 0 11.405 10.833">
  <g id="Heart" transform="translate(0.001)">
    <path id="Heart-2" data-name="Heart" d="M5.492,10.774l-.14-.084A19.815,19.815,0,0,1,1.928,8.026a7.036,7.036,0,0,1-1.7-2.706A4.422,4.422,0,0,1,.346,2.185a3.591,3.591,0,0,1,2.211-2A3.742,3.742,0,0,1,5.55.488l.15.09L5.853.488A3.748,3.748,0,0,1,8.694.134L8.846.18a3.6,3.6,0,0,1,2.213,2.007,4.436,4.436,0,0,1,.114,3.142,7.123,7.123,0,0,1-1.7,2.7,19.828,19.828,0,0,1-3.419,2.66l-.131.082a.419.419,0,0,1-.435,0ZM2.812.973A2.775,2.775,0,0,0,1.1,2.549a3.579,3.579,0,0,0-.074,2.506,6.28,6.28,0,0,0,1.49,2.376A18.962,18.962,0,0,0,5.785,9.978L5.7,9.927l.266-.168A18.948,18.948,0,0,0,8.59,7.722l.3-.286a6.252,6.252,0,0,0,1.491-2.371,3.584,3.584,0,0,0-.074-2.513A2.779,2.779,0,0,0,8.59.973a2.912,2.912,0,0,0-2.639.445.418.418,0,0,1-.493.005l-.112-.081A2.907,2.907,0,0,0,2.812.973Zm5.62,3.076a1.13,1.13,0,0,0-.777-.984.417.417,0,1,1,.254-.794A1.963,1.963,0,0,1,9.264,3.979a.417.417,0,0,1-.381.45l-.036,0A.417.417,0,0,1,8.433,4.049Z" transform="translate(-0.001)" fill="#97aabd"/>
  </g>
</svg>
