<svg xmlns="http://www.w3.org/2000/svg" width="44.928" height="40.496" viewBox="0 0 44.928 40.496">
  <g id="Group_1831" data-name="Group 1831" transform="translate(-54.036 -136.454)">
    <g id="Camera" transform="translate(61.608 143.33)">
      <path id="Combined_Shape" data-name="Combined Shape" d="M2.149,12.965A7.342,7.342,0,0,1,0,7.78,7.229,7.229,0,0,1,2.13,2.611a7.333,7.333,0,1,1,.018,10.355ZM4.11,4.589A4.359,4.359,0,0,0,2.8,7.761V7.78a4.525,4.525,0,0,0,4.539,4.534A4.564,4.564,0,0,0,11.88,7.78,4.544,4.544,0,0,0,4.11,4.589ZM16.138,1.7a1.69,1.69,0,1,1,1.681,1.679A1.69,1.69,0,0,1,16.138,1.7Z" transform="translate(11.337 11.511)" fill="#fd8a00"/>
      <path id="Path" d="M28.838,6.045l-.187-.41c-.5-1.063-1.083-2.295-1.438-3A4.561,4.561,0,0,0,23.067,0h-8.8a4.534,4.534,0,0,0-4.128,2.631c-.374.746-1.009,2.09-1.532,3.19L8.5,6.045a.366.366,0,0,1-.355.224A8.146,8.146,0,0,0,0,14.4V25.485A8.146,8.146,0,0,0,8.143,33.62H29.212a8.158,8.158,0,0,0,8.143-8.134V14.4a8.158,8.158,0,0,0-8.143-8.134A.425.425,0,0,1,28.838,6.045Z" transform="translate(0)" fill="#fd8a00" opacity="0.4"/>
    </g>
    <g id="Button" transform="translate(55.036 137.454)">
      <g id="plus">
        <path id="Shape" d="M7,0V11.572" transform="translate(-1.214)" fill="#fd8a00" stroke="#04030a" stroke-linecap="round" stroke-linejoin="round" stroke-width="2" fill-rule="evenodd"/>
        <path id="Shape-2" data-name="Shape" d="M0,7H11.572" transform="translate(0 -1.214)" fill="#fd8a00" stroke="#04030a" stroke-linecap="round" stroke-linejoin="round" stroke-width="2" fill-rule="evenodd"/>
      </g>
    </g>
  </g>
</svg>
