<svg id="Heart" xmlns="http://www.w3.org/2000/svg" width="14.16" height="13.452" viewBox="0 0 14.16 13.452">
  <path id="Heart-2" data-name="Heart" d="M7.1,13.452h0l-.183-.113A27.02,27.02,0,0,1,2.41,9.827a9.2,9.2,0,0,1-2.132-3.4,5.483,5.483,0,0,1,.1-3.735A4.307,4.307,0,0,1,3.062.191a3.189,3.189,0,0,1,.63-.148h.085A4.039,4.039,0,0,1,4.371,0h.078a4.436,4.436,0,0,1,1.3.234h.042a.234.234,0,0,1,.064.042A2.39,2.39,0,0,1,6.3.461l.269.12a1.86,1.86,0,0,1,.2.134c.04.029.075.055.1.072L6.9.8A1.724,1.724,0,0,1,7.082.92,4.407,4.407,0,0,1,9.777,0h.031a4.125,4.125,0,0,1,1.317.206A4.262,4.262,0,0,1,13.784,2.7a5.6,5.6,0,0,1,.109,3.733,9.049,9.049,0,0,1-2.13,3.405,27.33,27.33,0,0,1-4.483,3.512l-.177.106ZM10.578,2.207a.573.573,0,0,0-.536.384.58.58,0,0,0,.354.728,1.187,1.187,0,0,1,.758,1.112v.022a.609.609,0,0,0,.134.439.6.6,0,0,0,.4.205.583.583,0,0,0,.559-.538V4.475a2.337,2.337,0,0,0-1.494-2.238A.552.552,0,0,0,10.578,2.207Z" transform="translate(0 0)" fill="#a90000"/>
</svg>
