<svg xmlns="http://www.w3.org/2000/svg" width="17" height="12" viewBox="0 0 17 12">
  <g id="Icons_Multimedia_credit-card" data-name="Icons/Multimedia/credit-card" transform="translate(0.217 0.058)">
    <path id="Combined_Shape" data-name="Combined Shape" d="M2.833,12A2.757,2.757,0,0,1,0,9.333V2.667A2.757,2.757,0,0,1,2.833,0H14.167A2.757,2.757,0,0,1,17,2.667V9.333A2.757,2.757,0,0,1,14.167,12ZM1.416,2.667V7.333H15.584V2.667a1.379,1.379,0,0,0-1.417-1.334H2.833A1.379,1.379,0,0,0,1.416,2.667Zm2.125,2A.689.689,0,0,1,2.833,4a.688.688,0,0,1,.708-.667H6.375A.688.688,0,0,1,7.083,4a.689.689,0,0,1-.708.667Z" transform="translate(-0.217 -0.058)" fill="#fd8a00"/>
  </g>
</svg>
