<svg id="Iconly_Bulk_Message" data-name="Iconly/Bulk/Message" xmlns="http://www.w3.org/2000/svg" width="14.712" height="13.698" viewBox="0 0 14.712 13.698">
  <path id="Fill_1" data-name="Fill 1" d="M14.712,5.436a3.779,3.779,0,0,1-3.7,3.851h-7.3A3.778,3.778,0,0,1,0,5.451V5.443S0,2.075.01.381A.366.366,0,0,1,.6.083c1.748,1.434,4.873,4.05,4.912,4.084a2.93,2.93,0,0,0,1.861.677,2.892,2.892,0,0,0,1.861-.686C9.278,4.132,12.333,1.6,14.108.137a.367.367,0,0,1,.6.3c.007,1.681.007,5,.007,5" transform="translate(0 4.412)" fill="#c0bdbd" opacity="0.4"/>
  <path id="Fill_4" data-name="Fill 4" d="M13.956,2.035A3.689,3.689,0,0,0,10.686,0H3.345A3.689,3.689,0,0,0,.074,2.035a.672.672,0,0,0,.163.82L5.7,7.375a2.036,2.036,0,0,0,1.309.479h.015a2.036,2.036,0,0,0,1.309-.479l5.462-4.519a.672.672,0,0,0,.163-.82" transform="translate(0.37)" fill="#c0bdbd"/>
</svg>
