<svg id="Image_2" data-name="Image 2" xmlns="http://www.w3.org/2000/svg" width="62.169" height="62.169" viewBox="0 0 62.169 62.169">
  <path id="Fill_1" data-name="Fill 1" d="M59.708,10.6v4.3c0,.714-.031,1.434-.093,2.147-.872,9.82-7.693,16.236-17.536,16.236H15.168a17.094,17.094,0,0,1-12.209-4.55A14.274,14.274,0,0,1,0,24.9c1.028-1.25,2.18-2.618,3.3-3.989,1.9-2.275,3.738-4.522,4.89-5.983,1.713-2.119,6.229-7.7,12.49-5.08a22.351,22.351,0,0,1,3.426,1.932c2.523,1.683,3.582,2.181,5.357,1.215,1.962-1.06,3.239-3.148,4.579-5.329.716-1.156,1.433-2.275,2.211-3.3,3.395-4.425,8.628-5.61,12.988-2.992a32.776,32.776,0,0,1,5.793,4.64c.374.374.748.72,1.09,1.063.467.467,2.025,2.026,3.582,3.522" transform="translate(2.46 28.884)" fill="#fd8a00"/>
  <path id="Fill_3" data-name="Fill 3" d="M44.571,0H17.629C7.07,0,0,7.386,0,18.384v25.4a20,20,0,0,0,2.461,10c1.028-1.25,2.18-2.618,3.3-3.992,1.9-2.272,3.738-4.519,4.89-5.98,1.713-2.119,6.229-7.7,12.49-5.08a22.351,22.351,0,0,1,3.426,1.932c2.523,1.683,3.582,2.181,5.357,1.212,1.962-1.056,3.239-3.144,4.579-5.329.716-1.153,1.433-2.272,2.211-3.3,3.395-4.425,8.628-5.61,12.988-2.992A32.776,32.776,0,0,1,57.5,34.9c.374.374.748.72,1.09,1.063.467.464,2.025,2.023,3.582,3.522v-21.1C62.169,7.386,55.1,0,44.571,0" transform="translate(0 0)" fill="#fd8a00" opacity="0.4"/>
  <path id="Fill_5" data-name="Fill 5" d="M16.044,8.025A8.1,8.1,0,0,1,8.02,16.049,8.094,8.094,0,0,1,0,8.025,8.1,8.1,0,0,1,8.02,0a8.1,8.1,0,0,1,8.023,8.025" transform="translate(13.345 13.102)" fill="#fd8a00"/>
</svg>
