<svg id="Info_Square" data-name="Info Square" xmlns="http://www.w3.org/2000/svg" width="17.137" height="17.137" viewBox="0 0 17.137 17.137">
  <path id="Info_Square-2" data-name="Info Square" d="M12.287,17.137H4.858A4.7,4.7,0,0,1,0,12.074v-7A4.7,4.7,0,0,1,4.858,0h7.429c2.9,0,4.85,2.039,4.85,5.073v7A4.7,4.7,0,0,1,12.287,17.137ZM8.56,7.267a.751.751,0,0,0-.746.754v3.787a.75.75,0,0,0,1.5,0V8.021A.755.755,0,0,0,8.56,7.267Zm.017-2.716a.75.75,0,1,0,.746.754A.746.746,0,0,0,8.577,4.551Z" transform="translate(0 0)" fill="#fd8a00"/>
</svg>
