<svg id="Location" xmlns="http://www.w3.org/2000/svg" width="14.545" height="20.779" viewBox="0 0 14.545 20.779">
  <path id="Path_34175" d="M7.316,17.662h0a.855.855,0,0,1-.406-.123,19.173,19.173,0,0,1-5.027-4.725A9.586,9.586,0,0,1,0,7.412,7.445,7.445,0,0,1,3.669.973a7.157,7.157,0,0,1,7.308.06A7.537,7.537,0,0,1,13.6,3.811a7.708,7.708,0,0,1,.943,3.733,10.924,10.924,0,0,1-3.317,7.039,19.481,19.481,0,0,1-3.49,2.929,1.218,1.218,0,0,1-.423.15ZM7.265,5.037A2.433,2.433,0,0,0,5.52,5.77a2.54,2.54,0,0,0-.54,2.743A2.462,2.462,0,0,0,7.263,10.07h.017A2.418,2.418,0,0,0,9.013,9.34a2.551,2.551,0,0,0-.8-4.109A2.419,2.419,0,0,0,7.265,5.037Z" transform="translate(0 0)" fill="#c0bdbd"/>
  <ellipse id="Ellipse_743" cx="5.195" cy="1.039" rx="5.195" ry="1.039" transform="translate(2.078 18.701)" fill="#c0bdbd" opacity="0.4"/>
</svg>
