<svg id="Logout" xmlns="http://www.w3.org/2000/svg" width="17.137" height="16.493" viewBox="0 0 17.137 16.493">
  <path id="Logout-2" data-name="Logout" d="M3.725,16.493A3.7,3.7,0,0,1,0,12.832V3.669A3.705,3.705,0,0,1,3.734,0H7.828a3.694,3.694,0,0,1,3.718,3.661V7.612H6.511a.635.635,0,1,0,0,1.27h5.034v3.942a3.705,3.705,0,0,1-3.734,3.669Zm9.915-5.4a.637.637,0,0,1,0-.9l1.32-1.311H11.546V7.612H14.96L13.64,6.3a.637.637,0,0,1,0-.9.63.63,0,0,1,.9-.008l2.408,2.4a.632.632,0,0,1,.189.453.611.611,0,0,1-.189.445l-2.408,2.4a.628.628,0,0,1-.9,0Z" transform="translate(0)" fill="#fd8a00"/>
</svg>
