<svg id="More_Square" data-name="More Square" xmlns="http://www.w3.org/2000/svg" width="17.137" height="17.137" viewBox="0 0 17.137 17.137">
  <path id="More_Square-2" data-name="More Square" d="M12.287,17.137H4.858A4.7,4.7,0,0,1,0,12.073v-7A4.7,4.7,0,0,1,4.858,0h7.429c2.9,0,4.85,2.039,4.85,5.073v7A4.7,4.7,0,0,1,12.287,17.137Zm.12-9.6a1.028,1.028,0,1,0,1.019,1.027A1.029,1.029,0,0,0,12.407,7.541Zm-3.839,0A1.028,1.028,0,1,0,9.6,8.568,1.029,1.029,0,0,0,8.568,7.541Zm-3.839,0A1.028,1.028,0,1,0,5.758,8.568,1.029,1.029,0,0,0,4.73,7.541Z" transform="translate(0 0)" fill="#fd8a00"/>
</svg>
