<svg id="Icons_Multimedia_credit-card" data-name="Icons/Multimedia/credit-card" xmlns="http://www.w3.org/2000/svg" width="24.812" height="18.609" viewBox="0 0 24.812 18.609">
  <path id="Combined_Shape" data-name="Combined Shape" d="M4.135,18.609A4.14,4.14,0,0,1,0,14.474V4.135A4.14,4.14,0,0,1,4.135,0H20.676a4.14,4.14,0,0,1,4.136,4.135V14.474a4.14,4.14,0,0,1-4.136,4.135ZM2.067,14.474a2.07,2.07,0,0,0,2.067,2.067H20.676a2.07,2.07,0,0,0,2.067-2.067V13.439H2.067Zm0-10.339v7.237H22.744V4.135a2.07,2.07,0,0,0-2.067-2.067H4.135A2.07,2.07,0,0,0,2.067,4.135Zm3.1,3.1a1.034,1.034,0,1,1,0-2.067H9.3a1.034,1.034,0,1,1,0,2.067Z" transform="translate(0 0)" fill="#a3a3a3"/>
</svg>
