<svg xmlns="http://www.w3.org/2000/svg" width="21.46" height="25.247" viewBox="0 0 21.46 25.247">
  <g id="Notification" style="isolation: isolate">
    <path id="Fill_1" data-name="Fill 1" d="M20.538,12.176A4.9,4.9,0,0,1,19.2,8.58V8.041a7,7,0,0,0-1.509-4.728A8.889,8.889,0,0,0,10.786,0h-.112a8.926,8.926,0,0,0-6.79,3.172A7.1,7.1,0,0,0,2.263,8.041V8.58a4.8,4.8,0,0,1-1.341,3.6A4.245,4.245,0,0,0,0,15.092a4.555,4.555,0,0,0,1.09,3,5.721,5.721,0,0,0,3.661,1.784,52.571,52.571,0,0,0,5.979.311c2.011,0,3.995-.142,5.979-.311a5.721,5.721,0,0,0,3.66-1.784,4.562,4.562,0,0,0,1.09-3,4.245,4.245,0,0,0-.922-2.916" transform="translate(0 0)" fill="#fff"/>
    <path id="Fill_4" data-name="Fill 4" d="M6.23.1A32.312,32.312,0,0,0,1.123.1C.583.226,0,.516,0,1.151A1.957,1.957,0,0,0,.878,2.632h0a4.589,4.589,0,0,0,2.164.924,4.842,4.842,0,0,0,1.272,0,4.59,4.59,0,0,0,2.163-.924h0a1.957,1.957,0,0,0,.878-1.481C7.353.516,6.77.226,6.23.1" transform="translate(7.035 21.647)" fill="#fff" opacity="0.4"/>
  </g>
</svg>
