<svg xmlns="http://www.w3.org/2000/svg" width="89.277" height="84.813" viewBox="0 0 89.277 84.813">
  <g id="Heart" opacity="0.2">
    <path id="Heart-2" data-name="Heart" d="M44.785,84.813h0L43.628,84.1A170.356,170.356,0,0,1,15.2,61.954,58,58,0,0,1,1.754,40.533a34.568,34.568,0,0,1,.639-23.546A27.157,27.157,0,0,1,19.3,1.2,20.107,20.107,0,0,1,23.271.27h.534A25.463,25.463,0,0,1,27.558,0h.49A27.97,27.97,0,0,1,36.22,1.475h.265a1.476,1.476,0,0,1,.4.265A15.067,15.067,0,0,1,39.7,2.905l1.7.755a11.726,11.726,0,0,1,1.274.847c.255.186.475.346.647.451l.182.106a10.867,10.867,0,0,1,1.155.737A27.782,27.782,0,0,1,61.642,0h.2a26.008,26.008,0,0,1,8.3,1.3A26.869,26.869,0,0,1,86.906,17a35.33,35.33,0,0,1,.688,23.534A57.054,57.054,0,0,1,74.164,62,172.308,172.308,0,0,1,45.9,84.142l-1.115.669Zm21.907-70.9a3.612,3.612,0,0,0-3.378,2.422,3.658,3.658,0,0,0,2.23,4.592,7.482,7.482,0,0,1,4.777,7.01v.137a3.84,3.84,0,0,0,.848,2.768A3.752,3.752,0,0,0,73.71,32.14a3.673,3.673,0,0,0,3.527-3.395v-.53a14.734,14.734,0,0,0-9.417-14.109A3.481,3.481,0,0,0,66.692,13.917Z" transform="translate(0 0)" fill="#fd8a00"/>
  </g>
</svg>
