<svg xmlns="http://www.w3.org/2000/svg" width="336.891" height="323.338" viewBox="0 0 336.891 323.338">
  <g id="In_no_time-pana_1_" data-name="In no time-pana (1)" transform="translate(-28.76 -42.51)">
    <g id="freepik--background-complete--inject-157" transform="translate(35.903 42.51)">
      <path id="Path_13596" data-name="Path 13596" d="M175.641,298.049s-7.381-5.147-10.769-4.214-7.732,5.7-7.732,5.7,8.6-2.478,11.189-1.958A48.415,48.415,0,0,0,175.641,298.049Z" transform="translate(-66.095 -101.588)" fill="#e0e0e0"/>
      <path id="Path_13597" data-name="Path 13597" d="M183.082,301.81c-1.078,2.432-2.929,4.459-3.969,6.883a11.663,11.663,0,0,0-.054,8.864,15.939,15.939,0,0,0,3.763-7.549,41.363,41.363,0,0,0,.864-7.893Z" transform="translate(-71.05 -103.49)" fill="#e0e0e0"/>
      <path id="Path_13598" data-name="Path 13598" d="M178.6,300.855c.337-.994-8.015-.558-10.708,2.662s-5.354,6.723-3.059,14.853c0,0,5.04-8.811,5.04-8.681S177.926,302.8,178.6,300.855Z" transform="translate(-67.699 -103.155)" fill="#e0e0e0"/>
      <path id="Path_13599" data-name="Path 13599" d="M183.163,300.4c-.765.3,6.815,2.608,10.317,2.891a10.662,10.662,0,0,0,5.621-.887S194.016,296.185,183.163,300.4Z" transform="translate(-72.202 -102.814)" fill="#e0e0e0"/>
      <path id="Path_13600" data-name="Path 13600" d="M233.31,341.846s3.656-1.53,4.688-.459,5.247,6.623,9.247,6.968c0,0-3.656-7.771-6.968-9.025C238.1,338.5,233.31,341.846,233.31,341.846Z" transform="translate(-84.008 -112.283)" fill="#e0e0e0"/>
      <path id="Path_13601" data-name="Path 13601" d="M232.118,340.076s-.145-2.746-1.53-4.191-6.348-2.425-6.348-2.425a19.38,19.38,0,0,0,3.641,4.237,20.493,20.493,0,0,0,4.237,2.379Z" transform="translate(-81.875 -110.934)" fill="#e0e0e0"/>
      <path id="Path_13602" data-name="Path 13602" d="M232.4,341.9s-2.547,0-4.344,3.143a26.151,26.151,0,0,0-2.631,6.883c.153-.268,4.8-2.294,6.027-4.88a10.746,10.746,0,0,0,.948-5.147Z" transform="translate(-82.153 -112.919)" fill="#e0e0e0"/>
      <path id="Path_13603" data-name="Path 13603" d="M235.29,341.9s.459,6.057,1.484,7.09,2.516,4.8,2.516,4.8,2.294-5.484,1.025-8.107S235.29,341.9,235.29,341.9Z" transform="translate(-84.474 -112.919)" fill="#e0e0e0"/>
      <path id="Path_13604" data-name="Path 13604" d="M203.974,357.2c-.291.436-6.119,4.979-7.029,7.182s-.145,5.568,0,6.593,5.27-1.323,6.119-5.277A45.63,45.63,0,0,0,203.974,357.2Z" transform="translate(-75.353 -116.517)" fill="#e0e0e0"/>
      <path id="Path_13605" data-name="Path 13605" d="M207.77,352.75c0,.727.084,7.908,1.973,10.417a33.593,33.593,0,0,0,5.354,5.17s1.239-9.079-1.377-11.885a14.181,14.181,0,0,0-5.95-3.7Z" transform="translate(-78.002 -115.47)" fill="#e0e0e0"/>
      <path id="Path_13606" data-name="Path 13606" d="M202.894,354.331c-.428-.1-5.729-.6-8.252,2.417a28.06,28.06,0,0,0-3.931,6.447s8.015-3.977,9.484-5.736S202.894,354.331,202.894,354.331Z" transform="translate(-73.99 -115.82)" fill="#e0e0e0"/>
      <path id="Path_13607" data-name="Path 13607" d="M211.41,349.835a4.176,4.176,0,0,1,4.543-.115c2.379,1.484,6.34,7.251,6.34,7.251s-4.849-.3-7.373-2.746A16.643,16.643,0,0,1,211.41,349.835Z" transform="translate(-78.858 -114.613)" fill="#e0e0e0"/>
      <path id="Path_13608" data-name="Path 13608" d="M202.394,350.21s-3.059-2.616-5.423-3.2-9.231,1.132-9.231,1.132a12.329,12.329,0,0,0,7.985,2.065A25.729,25.729,0,0,1,202.394,350.21Z" transform="translate(-73.291 -114.093)" fill="#e0e0e0"/>
      <path id="Path_13609" data-name="Path 13609" d="M193.259,386s-2.2,4.252,0,6.6,3.381,7.036,3.381,7.036,3.824-3.671,1.9-7.771A13.3,13.3,0,0,0,193.259,386Z" transform="translate(-74.359 -123.29)" fill="#e0e0e0"/>
      <path id="Path_13610" data-name="Path 13610" d="M187.454,386.14c-.589.3-4.4,5.423-4.688,9.086s-.589,9.943,0,9.53,4.834-4.4,6-8.207S187.454,386.14,187.454,386.14Z" transform="translate(-72.042 -123.323)" fill="#e0e0e0"/>
      <path id="Path_13611" data-name="Path 13611" d="M182.564,385.614c-.581.145-6.119-.88-9.231,3.059a49.014,49.014,0,0,0-5.423,9.675s8.061-4.122,9.943-6.386S182.564,385.614,182.564,385.614Z" transform="translate(-68.628 -123.194)" fill="#e0e0e0"/>
      <path id="Path_13612" data-name="Path 13612" d="M227.971,376.42s-1.675,4.987,0,9.384a42.909,42.909,0,0,0,3.579,7.327s2.478-8.8.872-11.144S227.971,376.42,227.971,376.42Z" transform="translate(-82.578 -121.037)" fill="#e0e0e0"/>
      <path id="Path_13613" data-name="Path 13613" d="M229.4,375.646c.589.551,7.465,10.417,12.138,11.3s.727-.375.727-.375-1.468-6.646-3.564-9.4S229.4,375.646,229.4,375.646Z" transform="translate(-83.089 -120.79)" fill="#e0e0e0"/>
      <path id="Path_13614" data-name="Path 13614" d="M228,374.04a75.989,75.989,0,0,1,7.052-4.413c1.981-.895,8.543.283,8.543.283s-7.947,4.145-9.859,3.748-5.713,1.254-5.713,1.254" transform="translate(-82.759 -119.36)" fill="#e0e0e0"/>
      <path id="Path_13615" data-name="Path 13615" d="M249.889,312.77s-4.39,4.658-3.824,8.3a42.828,42.828,0,0,0,1.881,7.128l1.927-6.4Z" transform="translate(-86.996 -106.068)" fill="#e0e0e0"/>
      <path id="Path_13616" data-name="Path 13616" d="M251.782,311.55s-1.017,7.136,1.017,10.042,4.8,8.413,5.094,8.008,4.512-4.222,1.461-9.606A27.68,27.68,0,0,0,251.782,311.55Z" transform="translate(-88.292 -105.781)" fill="#e0e0e0"/>
      <path id="Path_13617" data-name="Path 13617" d="M246.889,313.012s-7.021-2.034-8.031,1.316S237,320.584,237,320.584a27.536,27.536,0,0,1,4.956-4.092A50.551,50.551,0,0,0,246.889,313.012Z" transform="translate(-84.876 -105.981)" fill="#e0e0e0"/>
      <path id="Path_13618" data-name="Path 13618" d="M208.76,314.049l.574-.5c1.66-1.415,6.5-5.308,8.948-4.711a51.454,51.454,0,0,1,7.082,2.577S214.756,316.925,208.76,314.049Z" transform="translate(-78.235 -105.129)" fill="#e0e0e0"/>
      <path id="Path_13619" data-name="Path 13619" d="M207.772,315.565c0-.528-3.189-1.377-6.012,1.53s-3.25,4.7-3.25,4.7S207.573,320.59,207.772,315.565Z" transform="translate(-75.824 -106.599)" fill="#e0e0e0"/>
      <path id="Path_13620" data-name="Path 13620" d="M209.48,316.5s-3.228,3.709-.765,7.35,4.589,7.136,4.589,7.136a11.786,11.786,0,0,0,0-7.243A26,26,0,0,0,209.48,316.5Z" transform="translate(-78.006 -106.945)" fill="#e0e0e0"/>
      <path id="Path_13621" data-name="Path 13621" d="M222.829,326.279c-.145-.887,1.025-8.153-8.589-7.434h-.88s4.589,7.419,5.652,9.752a10.111,10.111,0,0,0,2.975,4.076C223.119,333.69,222.974,327.166,222.829,326.279Z" transform="translate(-79.316 -107.485)" fill="#e0e0e0"/>
      <path id="Path_13622" data-name="Path 13622" d="M227.17,374.014a8.352,8.352,0,0,0-2.294-6.2c-.145-.161-.359-.321-.551-.229a.535.535,0,0,0-.237.344,5.354,5.354,0,0,0,.535,3.992,13.543,13.543,0,0,0,2.6,3.2" transform="translate(-81.8 -118.952)" fill="#e0e0e0"/>
      <path id="Path_13623" data-name="Path 13623" d="M189.973,382.556a16.444,16.444,0,0,0-7.794-7.128,1.086,1.086,0,0,0-.65-.13.841.841,0,0,0-.589.765,2.746,2.746,0,0,0,.765,1.943,13.652,13.652,0,0,0,8.658,5.178" transform="translate(-71.692 -120.771)" fill="#e0e0e0"/>
      <path id="Path_13624" data-name="Path 13624" d="M234.78,370.756a10.02,10.02,0,0,0-1.377.138,15.3,15.3,0,0,0-3.625.941,20.892,20.892,0,0,0-4.841,2.723,51.5,51.5,0,0,0-5.109,4.535c-3.5,3.4-6.578,6.555-8.711,8.926-1.063,1.186-1.912,2.157-2.493,2.838l-.681.765c-.153.176-.237.268-.252.26a1.574,1.574,0,0,1,.2-.306c.145-.184.352-.467.627-.811.551-.7,1.369-1.706,2.417-2.914,2.1-2.417,5.155-5.614,8.65-9.01a47.25,47.25,0,0,1,5.163-4.551,20.543,20.543,0,0,1,4.948-2.7,14.088,14.088,0,0,1,3.7-.834,9.041,9.041,0,0,1,1.025,0,1.639,1.639,0,0,1,.359,0Z" transform="translate(-77.983 -119.701)" fill="#e0e0e0"/>
      <path id="Path_13625" data-name="Path 13625" d="M202.041,393.283c-.054.038-.627-.956-1.874-2.294a15.908,15.908,0,0,0-12.788-5.017c-1.82.122-2.914.459-2.929.4a2.977,2.977,0,0,1,.765-.26,13.125,13.125,0,0,1,2.149-.382,15.3,15.3,0,0,1,13,5.094,12.713,12.713,0,0,1,1.315,1.751A3.243,3.243,0,0,1,202.041,393.283Z" transform="translate(-72.518 -123.207)" fill="#e0e0e0"/>
      <path id="Path_13626" data-name="Path 13626" d="M209.027,315.6a1.129,1.129,0,0,1,0,.214,2.781,2.781,0,0,1-.054.612c-.054.558-.13,1.346-.229,2.348-.206,2.034-.5,4.987-.834,8.635-.642,7.289-1.407,17.392-1.392,28.566s.818,21.278,1.384,28.574c.3,3.633.535,6.585.7,8.65.076,1,.138,1.79.184,2.348a2.791,2.791,0,0,0,.038.612.765.765,0,0,1,0,.214,1.109,1.109,0,0,1-.038-.207,2.152,2.152,0,0,0-.069-.612c-.061-.558-.145-1.346-.245-2.348-.206-2.034-.5-4.987-.818-8.635-.627-7.3-1.453-17.4-1.53-28.6a258.028,258.028,0,0,1,1.53-28.589c.359-3.648.7-6.593.941-8.627q.191-1.53.3-2.34l.092-.612A.642.642,0,0,1,209.027,315.6Z" transform="translate(-77.615 -106.734)" fill="#e0e0e0"/>
      <path id="Path_13627" data-name="Path 13627" d="M231.045,341.319a4.936,4.936,0,0,1-1.025.161c-.658.069-1.614.2-2.784.382a51.756,51.756,0,0,0-17.384,6.119c-1.033.581-1.851,1.078-2.417,1.438a4.957,4.957,0,0,1-.895.512,6.116,6.116,0,0,1,.826-.627c.535-.39,1.346-.918,2.363-1.53a46.449,46.449,0,0,1,17.469-6.119c1.185-.153,2.141-.245,2.807-.275a5.984,5.984,0,0,1,1.04-.061Z" transform="translate(-77.713 -112.781)" fill="#e0e0e0"/>
      <path id="Path_13628" data-name="Path 13628" d="M200.523,327.821a3.142,3.142,0,0,1-.092-.39c-.054-.3-.115-.673-.2-1.132a15.968,15.968,0,0,0-.352-1.774,22.481,22.481,0,0,0-.6-2.294c-.138-.421-.275-.864-.421-1.323s-.352-.918-.535-1.407c-.359-.979-.864-1.973-1.369-3.059a39.608,39.608,0,0,0-4.184-6.356,49.378,49.378,0,0,0-10.256-9.27c-.711-.528-1.407-.925-2-1.323s-1.117-.7-1.53-.948l-.987-.612a1.932,1.932,0,0,1-.329-.222,1.53,1.53,0,0,1,.367.161l1.01.543c.444.229.979.52,1.576.9s1.308.765,2.042,1.277a47.053,47.053,0,0,1,10.371,9.262,38.417,38.417,0,0,1,4.2,6.432,31.44,31.44,0,0,1,1.354,3.059c.176.5.39.956.52,1.43s.275.91.405,1.338a23.657,23.657,0,0,1,.558,2.348,13.344,13.344,0,0,1,.3,1.79c.054.466.1.841.13,1.14A1.354,1.354,0,0,1,200.523,327.821Z" transform="translate(-70.923 -102.526)" fill="#e0e0e0"/>
      <path id="Path_13629" data-name="Path 13629" d="M241.942,312.33a1.653,1.653,0,0,1-.367.168l-1.078.405c-.941.336-2.294.849-3.947,1.53a117.634,117.634,0,0,0-12.6,5.935,116.255,116.255,0,0,0-11.763,7.457c-1.453,1.04-2.608,1.9-3.4,2.516l-.918.7a2.027,2.027,0,0,1-.337.222,3.3,3.3,0,0,1,.291-.283l.88-.765c.765-.642,1.9-1.53,3.335-2.616a101.362,101.362,0,0,1,24.413-13.43c1.667-.635,3.059-1.117,3.985-1.415l1.1-.344a1.98,1.98,0,0,1,.4-.077Z" transform="translate(-77.948 -105.964)" fill="#e0e0e0"/>
      <path id="Path_13630" data-name="Path 13630" d="M216.6,453.709h-27.61L186.11,419.98h33.729Z" transform="translate(-72.908 -131.281)" fill="#e0e0e0"/>
      <rect id="Rectangle_665" data-name="Rectangle 665" width="38.104" height="5.186" transform="translate(111.068 288.699)" fill="#e0e0e0"/>
      <path id="Path_13631" data-name="Path 13631" d="M221.115,426.726c0,.092-8.528.176-19.029.176s-19.037-.084-19.037-.176,8.52-.176,19.037-.176S221.115,426.626,221.115,426.726Z" transform="translate(-72.188 -132.826)" fill="#ebebeb"/>
      <rect id="Rectangle_666" data-name="Rectangle 666" width="23.45" height="29.599" transform="translate(288.498 323.118) rotate(-179.55)" fill="#ebebeb"/>
      <path id="Path_13632" data-name="Path 13632" d="M402.342,427.431l-.421,28.658-3.7-.031.8-28.658Z" transform="translate(-122.791 -133.026)" fill="#fafafa"/>
      <path id="Path_13633" data-name="Path 13633" d="M367.272,427.16l13.453.1,23.45.184-23.48,3.09-.2,25.392-13.446-.107Z" transform="translate(-115.46 -132.969)" fill="#e0e0e0"/>
      <path id="Path_13634" data-name="Path 13634" d="M375.52,427.221l-.535,28.658L371,455.848l.65-28.658Z" transform="translate(-116.389 -132.976)" fill="#fafafa"/>
      <path id="Path_13635" data-name="Path 13635" d="M387.389,412.97c0,.176-.382.367-1.1.543a18.827,18.827,0,0,1-5.354.39,8.108,8.108,0,0,1-1.247-.145,9.176,9.176,0,0,1-1.369-.291,4.021,4.021,0,0,1-.841-.359,2.623,2.623,0,0,1-.895-.841,2.516,2.516,0,0,1-.382-1.285,3.947,3.947,0,0,1,.115-.994,17.038,17.038,0,0,1,.895-2.975,8.2,8.2,0,0,1,.857-1.53,6.929,6.929,0,0,1,.581-.688,4.248,4.248,0,0,1,.765-.627,3.136,3.136,0,0,1,1.063-.428,2.715,2.715,0,0,1,1.216,0,4.032,4.032,0,0,1,1.606.887,13,13,0,0,1,3.059,3.778,9.177,9.177,0,0,1,1.032,3.059c.092.765,0,1.2-.168,1.247-.382.084-.933-1.423-2.425-3.319a15.2,15.2,0,0,0-3.013-2.883,1.651,1.651,0,0,0-.681-.352.245.245,0,0,0-.13,0,.881.881,0,0,0-.2.107,2.116,2.116,0,0,0-.3.26,4.581,4.581,0,0,0-.329.413,5.527,5.527,0,0,0-.566,1.033,18.626,18.626,0,0,0-.811,2.516,2.037,2.037,0,0,0-.069.367h-.069c-.084,0-.107.046-.053,0l.092-.069h0a.289.289,0,0,0,.069.061,1.647,1.647,0,0,0,.337.176,10.687,10.687,0,0,0,1.04.314c.367.1.765.176,1.078.245.7.145,1.377.245,2,.329,1.247.168,2.294.275,3.006.413S387.389,412.787,387.389,412.97Z" transform="translate(-117.612 -127.445)" fill="#e0e0e0"/>
      <path id="Path_13636" data-name="Path 13636" d="M390.153,412.833c-.061-.375,1.69-.925,4.428-1.729a37.709,37.709,0,0,0,4.589-1.652,4.536,4.536,0,0,0,1-.558c.107-.084.153-.168.138-.161s0,.107,0,.054a2.1,2.1,0,0,0-.168-.405c-.107-.237-.222-.467-.337-.7a11.715,11.715,0,0,0-.711-1.27,5.224,5.224,0,0,0-.834-1,5.352,5.352,0,0,0-.474-.375,2.143,2.143,0,0,0-.428-.229,1.063,1.063,0,0,0-.688-.069,2.355,2.355,0,0,0-.834.482,18.356,18.356,0,0,0-3.2,3.48c-1.568,2.241-1.981,3.985-2.371,3.931-.176,0-.306-.5-.245-1.361a10.02,10.02,0,0,1,1.017-3.5,15.243,15.243,0,0,1,3.212-4.367,4.742,4.742,0,0,1,1.66-1.055,3.556,3.556,0,0,1,2.294.038,5.046,5.046,0,0,1,.979.474,7.151,7.151,0,0,1,2.073,2.1,11.7,11.7,0,0,1,.872,1.583l.344.765a4.259,4.259,0,0,1,.344,1.078,2.416,2.416,0,0,1-.26,1.53,2.9,2.9,0,0,1-.872.956,6.317,6.317,0,0,1-1.6.765,23.844,23.844,0,0,1-5.14,1.231C392.019,413.277,390.214,413.17,390.153,412.833Z" transform="translate(-120.857 -127.094)" fill="#ebebeb"/>
      <rect id="Rectangle_667" data-name="Rectangle 667" width="34.471" height="9.797" transform="translate(282.018 294.414) rotate(-179.55)" fill="#e0e0e0"/>
      <rect id="Rectangle_668" data-name="Rectangle 668" width="31.159" height="9.797" transform="translate(291.38 294.483) rotate(-179.55)" fill="#ebebeb"/>
      <path id="Path_13637" data-name="Path 13637" d="M405.485,414.643l-.222,9.843-3.633-.076.252-9.79Z" transform="translate(-123.593 -130.02)" fill="#fafafa"/>
      <path id="Path_13638" data-name="Path 13638" d="M371.574,414.427l-.352,9.759-3.992-.031.214-9.805Z" transform="translate(-115.503 -129.957)" fill="#fafafa"/>
      <rect id="Rectangle_669" data-name="Rectangle 669" width="13.285" height="16.773" transform="translate(304.294 323.122) rotate(-179.55)" fill="#ebebeb"/>
      <path id="Path_13639" data-name="Path 13639" d="M428.6,443.715l-.237,16.237-2.1-.015.451-16.237Z" transform="translate(-129.387 -136.859)" fill="#fafafa"/>
      <path id="Path_13640" data-name="Path 13640" d="M408.732,443.56l7.625.054,13.285.107-13.3,1.751-.115,14.386-7.618-.061Z" transform="translate(-125.234 -136.826)" fill="#e0e0e0"/>
      <path id="Path_13641" data-name="Path 13641" d="M413.4,443.6l-.3,16.237-2.264-.015.367-16.237Z" transform="translate(-125.758 -136.831)" fill="#fafafa"/>
      <path id="Path_13642" data-name="Path 13642" d="M420.081,435.476c0,.245-.872.543-2.394.673a8.643,8.643,0,0,1-2.784-.229,1.9,1.9,0,0,1-1.078-.765,1.53,1.53,0,0,1-.245-.818,2.249,2.249,0,0,1,.069-.612,9.694,9.694,0,0,1,.512-1.713,4.9,4.9,0,0,1,.5-.887,2.943,2.943,0,0,1,.826-.765,1.843,1.843,0,0,1,1.423-.245,2.554,2.554,0,0,1,.979.543,7.212,7.212,0,0,1,1.751,2.21c.719,1.453.612,2.478.382,2.516s-.627-.765-1.484-1.8A9.064,9.064,0,0,0,416.838,432a.765.765,0,0,0-.321-.161h0a.158.158,0,0,0-.054.038,1.376,1.376,0,0,0-.306.337,3.127,3.127,0,0,0-.306.551,11.019,11.019,0,0,0-.444,1.392l-.038.168h-.222a.63.63,0,0,0,.13-.115h.038a.591.591,0,0,0,.153.084,13.389,13.389,0,0,0,2.294.535C419.148,435.048,420.081,435.209,420.081,435.476Z" transform="translate(-126.403 -133.653)" fill="#e0e0e0"/>
      <path id="Path_13643" data-name="Path 13643" d="M421.65,435.363c-.046-.283.941-.665,2.47-1.163a23.934,23.934,0,0,0,2.562-.987,2,2,0,0,0,.5-.291c.046,0,.046-.061,0,0a.382.382,0,0,0-.046.2c-.092-.184-.184-.367-.268-.558a7.12,7.12,0,0,0-.39-.688,2.659,2.659,0,0,0-.428-.512,1.529,1.529,0,0,0-.421-.3.321.321,0,0,0-.222-.038.9.9,0,0,0-.39.214,10.877,10.877,0,0,0-1.813,1.881c-.91,1.208-1.216,2.164-1.53,2.126s-.467-1.178.275-2.845a8.558,8.558,0,0,1,1.828-2.562,2.86,2.86,0,0,1,1.025-.658,2.341,2.341,0,0,1,1.484,0,3.419,3.419,0,0,1,.6.3,3.333,3.333,0,0,1,.482.367,4.445,4.445,0,0,1,.765.895,6.749,6.749,0,0,1,.512.933l.2.428a3.128,3.128,0,0,1,.214.681,1.66,1.66,0,0,1-.184,1.048,1.813,1.813,0,0,1-.566.62,3.747,3.747,0,0,1-.964.482,12.7,12.7,0,0,1-2.968.65C422.728,435.753,421.7,435.623,421.65,435.363Z" transform="translate(-128.247 -133.417)" fill="#e0e0e0"/>
      <rect id="Rectangle_670" data-name="Rectangle 670" width="19.534" height="5.553" transform="translate(300.629 306.855) rotate(-179.55)" fill="#e0e0e0"/>
      <rect id="Rectangle_671" data-name="Rectangle 671" width="17.652" height="5.553" transform="translate(305.93 306.891) rotate(-179.55)" fill="#ebebeb"/>
      <path id="Path_13644" data-name="Path 13644" d="M430.38,436.465l-.122,5.576L428.2,442l.145-5.553Z" transform="translate(-129.841 -135.154)" fill="#fafafa"/>
      <path id="Path_13645" data-name="Path 13645" d="M411.173,436.346l-.2,5.53-2.264-.023.122-5.553Z" transform="translate(-125.258 -135.119)" fill="#fafafa"/>
      <rect id="Rectangle_672" data-name="Rectangle 672" width="101.248" height="167.589" transform="translate(3.365)" fill="#e0e0e0"/>
      <rect id="Rectangle_673" data-name="Rectangle 673" width="101.248" height="167.589" transform="translate(0)" fill="#ebebeb"/>
      <rect id="Rectangle_674" data-name="Rectangle 674" width="92.621" height="160.789" transform="translate(4.314 3.403)" fill="#fafafa"/>
      <rect id="Rectangle_675" data-name="Rectangle 675" width="56.957" height="119.007" transform="translate(21.943 24.291)" fill="#ebebeb"/>
      <path id="Path_13646" data-name="Path 13646" d="M66.788,161.311c-.13-11.113,9.866-21.966,20.872-23.518,5.247-.765,10.83.3,15.732-1.713,8.757-3.587,11.541-15.22,20.352-18.669l.4,86.012H66.78Z" transform="translate(-44.845 -60.124)" fill="#e0e0e0"/>
    </g>
    <g id="freepik--Floor--inject-157" transform="translate(28.76 365.443)">
      <path id="Path_13647" data-name="Path 13647" d="M365.651,464.939c0,.115-75.42.207-168.438.207s-168.453-.092-168.453-.207,75.4-.2,168.453-.2S365.651,464.832,365.651,464.939Z" transform="translate(-28.76 -464.74)" fill="#263238"/>
    </g>
    <g id="freepik--Device--inject-157" transform="translate(167.974 58.801)">
      <path id="Path_13648" data-name="Path 13648" d="M377.375,315.652l-157.768-.069a8.841,8.841,0,0,1-8.826-8.841l.122-234.09a8.834,8.834,0,0,1,8.841-8.841l157.761.084a8.834,8.834,0,0,1,8.834,8.834l-.13,234.091a8.834,8.834,0,0,1-8.834,8.834Z" transform="translate(-210.78 -63.81)" fill="#263238"/>
      <rect id="Rectangle_676" data-name="Rectangle 676" width="164.369" height="210.251" transform="translate(5.27 17.438)" fill="#fff"/>
      <path id="Path_13649" data-name="Path 13649" d="M330.131,374.428a6.723,6.723,0,1,1-1.964-4.764A6.73,6.73,0,0,1,330.131,374.428Z" transform="translate(-235.683 -135.274)" fill="#455a64"/>
      <rect id="Rectangle_677" data-name="Rectangle 677" width="52.834" height="2.784" rx="1.22" transform="translate(61.423 7.289)" fill="#455a64"/>
      <path id="Path_13650" data-name="Path 13650" d="M422.823,276.368h0a1.973,1.973,0,0,1-1.973-1.981l.077-149.264a1.973,1.973,0,0,1,1.981-1.973h0a1.981,1.981,0,0,1,1.973,1.973l-.092,149.264a1.973,1.973,0,0,1-1.966,1.981Z" transform="translate(-260.183 -77.765)" fill="#e0e0e0"/>
      <path id="Path_13651" data-name="Path 13651" d="M349.2,109.034c0,.115-15.251.191-34.058.184S281.08,109.11,281.08,109s15.251-.191,34.058-.184S349.2,108.958,349.2,109.034Z" transform="translate(-227.313 -74.395)" fill="#263238"/>
      <path id="Path_13652" data-name="Path 13652" d="M238.55,111.339h.834l2.241-.061-.069.076v-2.577a.88.88,0,0,1,.765-.7H243.4a.887.887,0,0,1,.765.88c0,.765,0,1.53,0,2.379l-.115-.115h2.838l-.122.122V106.9a.879.879,0,0,0-.4-.658l-1.239-1.224-1.193-1.178c-.191-.2-.39-.39-.581-.574s-.352-.39-.581-.436a.765.765,0,0,0-.635.122c-.168.138-.359.344-.528.512l-1.071.941c-.642.665-1.315,1.277-1.8,1.843a2.057,2.057,0,0,0-.138,1.055v3.641a2.183,2.183,0,0,1,0,.375,1.958,1.958,0,0,1,0-.344q0-.413,0-1.01v-3.2a1.185,1.185,0,0,1,.161-.6c.528-.65,1.155-1.216,1.8-1.9l1.01-1.033a7.426,7.426,0,0,1,.551-.543.979.979,0,0,1,.834-.168,1.53,1.53,0,0,1,.688.5l.581.566,1.2,1.178,1.239,1.224a1.117,1.117,0,0,1,.474.826v4.566h-3.075v-2.463a.658.658,0,0,0-.558-.673h-1.025a.681.681,0,0,0-.6.543v2.608h-2.952Z" transform="translate(-217.311 -72.907)" fill="#263238"/>
      <path id="Path_13653" data-name="Path 13653" d="M405.039,103.725a.122.122,0,0,0-.084-.038h-9.231l-.046-.382-.107-.765a.115.115,0,0,0-.107-.1H393.6c-.145,0-.245,0-.245.122s.1.122.245.122h1.7l.948,7.327a.107.107,0,0,0,.115.1h7.511c.176,0,.26,0,.26-.115s-.084-.122-.26-.13l-7.327-.1-.168-1.293,7.694.1h0a.115.115,0,0,0,.115-.092l.566-3.059.306-1.652a.107.107,0,0,0-.023-.046Zm-9.277.168,8.933.122-.765,4.283h-7.556Z" transform="translate(-253.718 -72.895)" fill="#263238"/>
      <path id="Path_13654" data-name="Path 13654" d="M399.451,114.522a.941.941,0,0,0-.314-.512.9.9,0,0,0-.864-.145.918.918,0,0,0,0,1.729.887.887,0,0,0,.306.054.9.9,0,0,0,.558-.191.841.841,0,0,0,.321-.5.658.658,0,0,0,0-.214A.984.984,0,0,0,399.451,114.522Zm-1.086.765a.6.6,0,0,1,0-1.132.658.658,0,0,1,.207,0,.635.635,0,0,1,.367.122.665.665,0,0,1,.237.337.572.572,0,0,1,0,.13v-.023a.344.344,0,0,1,0,.13.665.665,0,0,1-.237.337.612.612,0,0,1-.6.107Z" transform="translate(-254.73 -75.569)" fill="#263238"/>
      <path id="Path_13655" data-name="Path 13655" d="M405.813,114.572a.834.834,0,0,0-.306-.5.88.88,0,0,0-.864-.153.918.918,0,0,0,0,1.728.887.887,0,0,0,.306.054.9.9,0,0,0,.558-.191.841.841,0,0,0,.321-.5.667.667,0,0,0,0-.214.643.643,0,0,0-.015-.214Zm-1.078.765a.612.612,0,0,1-.382-.574.6.6,0,0,1,.4-.558.658.658,0,0,1,.207,0,.635.635,0,0,1,.367.122.627.627,0,0,1,.26.467h0a.344.344,0,0,1,0,.13.635.635,0,0,1-.237.337.612.612,0,0,1-.574.084Z" transform="translate(-256.228 -75.581)" fill="#263238"/>
      <path id="Path_13656" data-name="Path 13656" d="M271.29,331.511c0,1.078-.765,1.736-2.08,1.736h-1.377v1.606h-.543V329.76h1.9C270.51,329.76,271.3,330.418,271.29,331.511Zm-.535,0c0-.818-.535-1.285-1.53-1.285h-1.392v2.547h1.354c1.033,0,1.568-.467,1.568-1.262Z" transform="translate(-224.07 -126.354)" fill="#263238"/>
      <path id="Path_13657" data-name="Path 13657" d="M277.437,331.42v3.824h-.49v-.7a1.53,1.53,0,0,1-1.377.765,1.484,1.484,0,0,1-1.614-1.644v-2.218h.52v2.164a1.063,1.063,0,0,0,1.147,1.231,1.247,1.247,0,0,0,1.3-1.392v-2Z" transform="translate(-225.635 -126.745)" fill="#263238"/>
      <path id="Path_13658" data-name="Path 13658" d="M282.327,331.388v.467H282.2a1.239,1.239,0,0,0-1.293,1.415v1.943H280.4v-3.824h.5v.765A1.461,1.461,0,0,1,282.327,331.388Z" transform="translate(-227.153 -126.736)" fill="#263238"/>
      <path id="Path_13659" data-name="Path 13659" d="M283.579,333.324a1.882,1.882,0,0,1,1.973-1.935,1.667,1.667,0,0,1,1.53.765l-.39.26a1.3,1.3,0,0,0-1.109-.566,1.491,1.491,0,0,0,0,2.975,1.27,1.27,0,0,0,1.109-.558l.39.268a1.7,1.7,0,0,1-1.53.765,1.889,1.889,0,0,1-1.973-1.973Z" transform="translate(-227.9 -126.736)" fill="#263238"/>
      <path id="Path_13660" data-name="Path 13660" d="M292.918,332.552v2.218h-.512v-2.164a1.071,1.071,0,0,0-1.147-1.224,1.254,1.254,0,0,0-1.338,1.377v2.012h-.52v-5.4h.459v2.241a1.614,1.614,0,0,1,1.43-.7,1.469,1.469,0,0,1,1.629,1.637Z" transform="translate(-229.269 -126.263)" fill="#263238"/>
      <path id="Path_13661" data-name="Path 13661" d="M298.595,332.869v2.371h-.49v-.6a1.438,1.438,0,0,1-1.315.635c-.864,0-1.4-.451-1.4-1.117s.382-1.078,1.476-1.078h1.216v-.237c0-.65-.367-1.01-1.086-1.01a1.958,1.958,0,0,0-1.27.451l-.229-.382a2.4,2.4,0,0,1,1.53-.52,1.361,1.361,0,0,1,1.568,1.484Zm-.52,1.224v-.627h-1.2c-.765,0-.979.291-.979.688s.352.719.964.719a1.224,1.224,0,0,0,1.216-.78Z" transform="translate(-230.678 -126.732)" fill="#263238"/>
      <path id="Path_13662" data-name="Path 13662" d="M300.72,334.811l.229-.405a2.294,2.294,0,0,0,1.361.428c.727,0,1.025-.245,1.025-.62,0-1-2.478-.214-2.478-1.729,0-.627.535-1.086,1.53-1.086a2.6,2.6,0,0,1,1.346.352l-.222.421a1.928,1.928,0,0,0-1.124-.329c-.7,0-1,.268-1,.627,0,1.033,2.478.26,2.478,1.729,0,.658-.581,1.086-1.576,1.086a2.486,2.486,0,0,1-1.568-.474Z" transform="translate(-231.931 -126.74)" fill="#263238"/>
      <path id="Path_13663" data-name="Path 13663" d="M309.276,333.529h-3.2a1.423,1.423,0,0,0,1.53,1.331,1.53,1.53,0,0,0,1.17-.5l.291.337a2.019,2.019,0,0,1-3.48-1.323,1.859,1.859,0,1,1,3.717,0A.355.355,0,0,0,309.276,333.529Zm-3.2-.39h2.715a1.361,1.361,0,0,0-2.715,0Z" transform="translate(-233.077 -126.766)" fill="#263238"/>
      <path id="Path_13664" data-name="Path 13664" d="M319.7,331.44l-1.446,3.824h-.489l-1.2-3.136-1.208,3.136h-.49l-1.438-3.824h.5l1.193,3.251,1.231-3.251h.444l1.224,3.251,1.216-3.251Z" transform="translate(-234.921 -126.749)" fill="#263238"/>
      <path id="Path_13665" data-name="Path 13665" d="M325.285,332.888v2.371h-.49v-.6a1.445,1.445,0,0,1-1.316.627c-.872,0-1.4-.451-1.4-1.109s.382-1.086,1.476-1.086h1.216v-.229c0-.658-.367-1.01-1.086-1.01a1.92,1.92,0,0,0-1.27.451l-.229-.39a2.4,2.4,0,0,1,1.53-.512,1.354,1.354,0,0,1,1.568,1.484Zm-.512,1.216v-.62h-1.224c-.765,0-.979.291-.979.681s.352.719.964.719a1.224,1.224,0,0,0,1.239-.78Z" transform="translate(-236.955 -126.737)" fill="#263238"/>
      <path id="Path_13666" data-name="Path 13666" d="M327.41,334.829l.237-.405a2.3,2.3,0,0,0,1.361.428c.727,0,1.025-.252,1.025-.627,0-.994-2.478-.214-2.478-1.721,0-.627.535-1.094,1.53-1.094a2.554,2.554,0,0,1,1.346.359l-.222.413a1.935,1.935,0,0,0-1.132-.329c-.688,0-.994.268-.994.635,0,1.033,2.478.252,2.478,1.721,0,.665-.581,1.094-1.576,1.094A2.578,2.578,0,0,1,327.41,334.829Z" transform="translate(-238.208 -126.742)" fill="#263238"/>
      <path id="Path_13667" data-name="Path 13667" d="M334.56,334.829l.229-.405a2.341,2.341,0,0,0,1.361.428c.727,0,1.025-.245,1.025-.627,0-.994-2.478-.206-2.478-1.721,0-.627.535-1.094,1.53-1.094a2.6,2.6,0,0,1,1.346.359l-.222.413a1.989,1.989,0,0,0-1.124-.329c-.7,0-1,.275-1,.635,0,1.033,2.486.252,2.478,1.729,0,.658-.581,1.086-1.576,1.086a2.547,2.547,0,0,1-1.568-.474Z" transform="translate(-239.89 -126.742)" fill="#263238"/>
      <path id="Path_13668" data-name="Path 13668" d="M343.335,331.46v3.824h-.5v-.7a1.53,1.53,0,0,1-1.377.765,1.484,1.484,0,0,1-1.614-1.644v-2.218h.52v2.172a1.071,1.071,0,0,0,1.147,1.224,1.239,1.239,0,0,0,1.3-1.384v-2Z" transform="translate(-241.131 -126.754)" fill="#263238"/>
      <path id="Path_13669" data-name="Path 13669" d="M345.8,333.4a1.881,1.881,0,0,1,1.966-1.943,1.667,1.667,0,0,1,1.53.765l-.382.26a1.323,1.323,0,0,0-1.117-.566,1.53,1.53,0,0,0,0,2.983,1.315,1.315,0,0,0,1.117-.558l.382.26a1.7,1.7,0,0,1-1.53.765A1.882,1.882,0,0,1,345.8,333.4Z" transform="translate(-242.533 -126.753)" fill="#263238"/>
      <path id="Path_13670" data-name="Path 13670" d="M351.06,333.4a1.889,1.889,0,0,1,1.973-1.943,1.683,1.683,0,0,1,1.53.765l-.39.268a1.285,1.285,0,0,0-1.109-.574,1.53,1.53,0,0,0,0,2.983,1.293,1.293,0,0,0,1.109-.558l.39.26a1.69,1.69,0,0,1-1.53.765,1.9,1.9,0,0,1-1.973-1.966Z" transform="translate(-243.77 -126.753)" fill="#263238"/>
      <path id="Path_13671" data-name="Path 13671" d="M360.053,333.526h-3.2a1.407,1.407,0,0,0,1.53,1.331,1.529,1.529,0,0,0,1.17-.5l.291.337a2.027,2.027,0,0,1-3.48-1.331,1.843,1.843,0,0,1,1.874-1.935,1.82,1.82,0,0,1,1.828,1.966S360.053,333.472,360.053,333.526Zm-3.2-.382h2.707a1.354,1.354,0,1,0-2.707,0Z" transform="translate(-245.016 -126.747)" fill="#263238"/>
      <path id="Path_13672" data-name="Path 13672" d="M361.88,334.849l.237-.413a2.294,2.294,0,0,0,1.354.436c.765,0,1.025-.252,1.025-.627,0-.994-2.478-.214-2.478-1.729,0-.62.543-1.086,1.53-1.086a2.562,2.562,0,0,1,1.354.359l-.222.413a1.935,1.935,0,0,0-1.178-.336c-.688,0-.994.268-.994.627,0,1.04,2.478.26,2.478,1.729,0,.658-.581,1.094-1.576,1.086a2.578,2.578,0,0,1-1.53-.459Z" transform="translate(-246.315 -126.747)" fill="#263238"/>
      <path id="Path_13673" data-name="Path 13673" d="M366.53,334.849l.237-.405a2.3,2.3,0,0,0,1.354.428c.727,0,1.025-.252,1.025-.627,0-.994-2.478-.214-2.478-1.721,0-.627.543-1.094,1.53-1.094a2.562,2.562,0,0,1,1.354.359l-.222.413a2.012,2.012,0,0,0-1.132-.329c-.688,0-.994.268-.994.635,0,1.033,2.478.252,2.478,1.721,0,.665-.581,1.094-1.576,1.094A2.578,2.578,0,0,1,366.53,334.849Z" transform="translate(-247.408 -126.747)" fill="#263238"/>
      <path id="Path_13674" data-name="Path 13674" d="M372.288,330.514v.451h1.178v.405H372.3v3.388h-.512v-3.388h-.681v-.436h.681v-.474a1.056,1.056,0,0,1,1.155-1.132,1.194,1.194,0,0,1,.765.245l-.176.382a.872.872,0,0,0-.566-.191A.679.679,0,0,0,372.288,330.514Z" transform="translate(-248.485 -126.252)" fill="#263238"/>
      <path id="Path_13675" data-name="Path 13675" d="M378.544,331.48V335.3h-.467v-.7a1.53,1.53,0,0,1-1.377.765,1.484,1.484,0,0,1-1.614-1.644V331.5h.52v2.172a1.071,1.071,0,0,0,1.147,1.224,1.239,1.239,0,0,0,1.3-1.384v-2Z" transform="translate(-249.418 -126.759)" fill="#263238"/>
      <path id="Path_13676" data-name="Path 13676" d="M381.5,329.42h.52v5.4h-.512Z" transform="translate(-250.929 -126.274)" fill="#263238"/>
      <path id="Path_13677" data-name="Path 13677" d="M282.358,312.92H279.62v-1.3h7.021v1.3H283.9V319.9h-1.53Z" transform="translate(-226.969 -122.088)" fill="#fd8a00"/>
      <path id="Path_13678" data-name="Path 13678" d="M296.341,316.132v3.618h-1.476v-3.4c0-1.124-.558-1.667-1.53-1.667a1.675,1.675,0,0,0-1.759,1.9v3.2H290.1V311h1.476v3.189a2.814,2.814,0,0,1,2.1-.8A2.447,2.447,0,0,1,296.341,316.132Z" transform="translate(-229.434 -121.943)" fill="#fd8a00"/>
      <path id="Path_13679" data-name="Path 13679" d="M305.866,316.781v3.7h-1.4v-.765a2.218,2.218,0,0,1-1.981.857c-1.445,0-2.356-.765-2.356-1.9s.711-1.874,2.623-1.874h1.637v-.1c0-.864-.52-1.369-1.576-1.369a3.1,3.1,0,0,0-1.912.627l-.581-1.078a4.428,4.428,0,0,1,2.669-.765C304.811,314.1,305.866,314.96,305.866,316.781Zm-1.476,1.728v-.765h-1.53c-1,0-1.277.375-1.277.841s.451.872,1.208.872A1.614,1.614,0,0,0,304.39,318.509Z" transform="translate(-231.793 -122.675)" fill="#fd8a00"/>
      <path id="Path_13680" data-name="Path 13680" d="M316.318,316.867v3.618h-1.476v-3.4c0-1.124-.558-1.667-1.53-1.667a1.675,1.675,0,0,0-1.767,1.9v3.2H310.1V314.2h1.407v.818a2.738,2.738,0,0,1,2.18-.887A2.426,2.426,0,0,1,316.318,316.867Z" transform="translate(-234.137 -122.677)" fill="#fd8a00"/>
      <path id="Path_13681" data-name="Path 13681" d="M323.267,317.042l-1.1,1.04v1.667H320.69V311h1.476v5.293l3.059-2.837h1.82l-2.639,2.654,2.883,3.664h-1.8Z" transform="translate(-236.628 -121.943)" fill="#fd8a00"/>
      <path id="Path_13682" data-name="Path 13682" d="M340.342,314.18,337.382,321a2.436,2.436,0,0,1-2.432,1.874,2.6,2.6,0,0,1-1.69-.581l.589-1.086a1.622,1.622,0,0,0,1.086.436c.52,0,.834-.252,1.117-.872l.107-.252-2.761-6.34h1.53l1.989,4.673,2-4.673Z" transform="translate(-239.584 -122.69)" fill="#fd8a00"/>
      <path id="Path_13683" data-name="Path 13683" d="M342.809,317.238a3.365,3.365,0,1,1,3.358,3.243,3.182,3.182,0,0,1-3.358-3.243Zm5.239,0a1.874,1.874,0,1,0-1.881,1.973,1.836,1.836,0,0,0,1.882-1.973Z" transform="translate(-241.829 -122.589)" fill="#fd8a00"/>
      <path id="Path_13684" data-name="Path 13684" d="M359.565,314.18V320.5h-1.407v-.8a2.585,2.585,0,0,1-2.035.887,2.5,2.5,0,0,1-2.723-2.792v-3.61h1.476v3.411c0,1.147.551,1.69,1.484,1.69a1.667,1.667,0,0,0,1.721-1.9v-3.2Z" transform="translate(-244.32 -122.69)" fill="#fd8a00"/>
      <path id="Path_13685" data-name="Path 13685" d="M363.64,319.054a.918.918,0,1,1,.279.668A.918.918,0,0,1,363.64,319.054Zm.076-7.434h1.729l-.291,5.53h-1.178Z" transform="translate(-246.729 -122.088)" fill="#fd8a00"/>
    </g>
    <g id="freepik--character-2--inject-157" transform="translate(156.593 106.566)">
      <path id="Path_13686" data-name="Path 13686" d="M341.362,144.88l-2.233,31.664a9.859,9.859,0,0,1-9.836,9.178h0a9.859,9.859,0,0,1-9.843-10.509c.2-3.013.375-5.476.375-5.476s-7.648-1.193-7.755-8.849c-.054-4.421.711-14.455,1.369-22.18a10.035,10.035,0,0,1,10-9.178h4.635a14.172,14.172,0,0,1,13.285,15.35Z" transform="translate(-223.219 -127.031)" fill="#ffbe9d"/>
      <path id="Path_13687" data-name="Path 13687" d="M322.161,181.145A18.524,18.524,0,0,0,332.1,178.2s-2.455,5.568-10.1,4.88Z" transform="translate(-225.555 -138.477)" fill="#eb996e"/>
      <path id="Path_13688" data-name="Path 13688" d="M315.725,150.735c.138.138.971-.474,2.142-.467s2.042.589,2.172.444-.076-.321-.451-.6a3.059,3.059,0,0,0-1.736-.535,2.906,2.906,0,0,0-1.706.551C315.787,150.414,315.664,150.666,315.725,150.735Z" transform="translate(-224.076 -131.746)" fill="#263238"/>
      <path id="Path_13689" data-name="Path 13689" d="M329.45,155.056a1.094,1.094,0,0,0,1.056,1.1,1.055,1.055,0,0,0,1.124-.987,1.086,1.086,0,0,0-1.055-1.1,1.04,1.04,0,0,0-1.124.987Z" transform="translate(-227.307 -132.801)" fill="#263238"/>
      <path id="Path_13690" data-name="Path 13690" d="M315.71,155.056a1.094,1.094,0,0,0,1.055,1.1,1.055,1.055,0,0,0,1.132-.987,1.094,1.094,0,0,0-1.055-1.1,1.048,1.048,0,0,0-1.132.987Z" transform="translate(-224.076 -132.801)" fill="#263238"/>
      <path id="Path_13691" data-name="Path 13691" d="M330.585,150.937c.138.145.971-.467,2.142-.467s2.042.6,2.172.451-.076-.321-.459-.6a2.975,2.975,0,0,0-1.729-.535,2.906,2.906,0,0,0-1.706.551C330.647,150.616,330.524,150.876,330.585,150.937Z" transform="translate(-227.571 -131.795)" fill="#263238"/>
      <path id="Path_13692" data-name="Path 13692" d="M324.2,160.242a7.761,7.761,0,0,0-1.912-.344c-.3,0-.581-.092-.635-.3a1.53,1.53,0,0,1,.2-.887l.895-2.294a38.126,38.126,0,0,0,1.989-5.989,38.287,38.287,0,0,0-2.47,5.813q-.447,1.2-.849,2.294a1.737,1.737,0,0,0-.161,1.178.765.765,0,0,0,.5.444,2.2,2.2,0,0,0,.512.069,7.65,7.65,0,0,0,1.935.015Z" transform="translate(-225.371 -131.946)" fill="#263238"/>
      <path id="Path_13693" data-name="Path 13693" d="M328.5,164.33c-.191,0-.191,1.262-1.285,2.172s-2.455.765-2.463.941.3.252.872.268a3.182,3.182,0,0,0,2.057-.719,2.807,2.807,0,0,0,1-1.82C328.765,164.636,328.582,164.322,328.5,164.33Z" transform="translate(-226.202 -135.215)" fill="#263238"/>
      <path id="Path_13694" data-name="Path 13694" d="M330.688,145.442c.115.314,1.293.168,2.669.329s2.5.543,2.685.26c.077-.138-.115-.444-.566-.765a4.482,4.482,0,0,0-1.989-.7,4.436,4.436,0,0,0-2.088.245C330.925,145.036,330.634,145.289,330.688,145.442Z" transform="translate(-227.597 -130.56)" fill="#263238"/>
      <path id="Path_13695" data-name="Path 13695" d="M315.491,146.072c.206.268,1.017,0,1.989,0s1.8.184,1.989-.1c.084-.138-.046-.405-.405-.658a2.883,2.883,0,0,0-3.2.1C315.514,145.667,315.4,145.942,315.491,146.072Z" transform="translate(-224.017 -130.64)" fill="#263238"/>
      <path id="Path_13696" data-name="Path 13696" d="M346.908,157.047c.13-.061,5.262-1.53,5.094,3.679s-5.392,3.985-5.392,3.824S346.908,157.047,346.908,157.047Z" transform="translate(-231.343 -133.447)" fill="#ffbe9d"/>
      <path id="Path_13697" data-name="Path 13697" d="M348.779,163.143s.092.061.237.138a.9.9,0,0,0,.681.038,2.233,2.233,0,0,0,1.109-1.989,3.06,3.06,0,0,0-.207-1.316,1.079,1.079,0,0,0-.665-.765.474.474,0,0,0-.551.237c-.069.145-.038.245-.069.252s-.107-.084-.061-.306a.612.612,0,0,1,.214-.321.765.765,0,0,1,.512-.115,1.3,1.3,0,0,1,.925.841,3.152,3.152,0,0,1,.268,1.468,2.362,2.362,0,0,1-1.4,2.218.979.979,0,0,1-.834-.161C348.786,163.266,348.763,163.151,348.779,163.143Z" transform="translate(-231.852 -133.959)" fill="#eb996e"/>
      <path id="Path_13698" data-name="Path 13698" d="M343.406,150.118a2.746,2.746,0,0,0-2.516,1.293c-.344.765-.413,1.6-.765,2.34a1.843,1.843,0,0,1-1.9,1.239,1.621,1.621,0,0,1-1.094-1.193,4.482,4.482,0,0,1,0-1.69c.314-2.447.826-4.872.926-7.335a12.558,12.558,0,0,0-1.53-7.113,6.882,6.882,0,0,0-6.119-3.442c-1.629.13-3.12.979-4.734,1.2a6.386,6.386,0,0,1-5.316-1.774c-.176-.168-.994-.711-.994-.711a3.059,3.059,0,0,1,.551-1.621c3.212-2.96,8.987-3.824,13.224-2.723a15.251,15.251,0,0,1,10.027,8.023c1.82,3.969,1.285,9.492.275,13.507" transform="translate(-224.935 -126.701)" fill="#263238"/>
      <path id="Path_13699" data-name="Path 13699" d="M312.532,138.7a5.01,5.01,0,0,0,4.161,2.692,13.767,13.767,0,0,0,5.109-.765,40.9,40.9,0,0,1,7.87-1.163c.26,0,.566,0,.7-.214s-.107-.642-.375-.849c-2.294-1.79-7.8-2.891-10.708-3.006a8.5,8.5,0,0,0-7.5,3.556" transform="translate(-223.154 -128.405)" fill="#263238"/>
      <path id="Path_13700" data-name="Path 13700" d="M313.74,136.769a9.828,9.828,0,0,1,5.706-2.577c6.623-.566,17.484,1.468,23.182,12.872a26.1,26.1,0,0,0,1.193-6.057c0-1.53-.933-10.83-10.471-13.767C333.35,127.24,318.971,121.756,313.74,136.769Z" transform="translate(-223.613 -126.262)" fill="#fd8a00"/>
      <g id="Group_1825" data-name="Group 1825" transform="translate(90.127)" opacity="0.4">
        <path id="Path_13701" data-name="Path 13701" d="M313.74,136.769a9.323,9.323,0,0,1,6.394-2.9c5.92-.268,17.125,2.447,22.494,13.193a26.1,26.1,0,0,0,1.193-6.057c0-1.53-.933-10.83-10.471-13.767C333.35,127.24,318.971,121.756,313.74,136.769Z" transform="translate(-313.74 -126.262)"/>
      </g>
      <path id="Path_13702" data-name="Path 13702" d="M338.75,145.566c-2.86-4.834-7.151-8.115-11.74-11s-12.237-5.744-17.514-7.136a11.472,11.472,0,0,0-4.834-.512,4.367,4.367,0,0,0-3.587,2.937c-.5,1.989,3.021,5.048,4.673,6.249a53.47,53.47,0,0,0,5.025,2.975s-.046-3.694,5.851-4.444C324.632,133.627,338.987,145.772,338.75,145.566Z" transform="translate(-220.623 -126.401)" fill="#fd8a00"/>
      <path id="Path_13703" data-name="Path 13703" d="M332.95,131.627a21.094,21.094,0,0,0-11.09-2.692,5.231,5.231,0,0,1,1.7-.237,15.4,15.4,0,0,1,7.992,1.943,5.292,5.292,0,0,1,1.4.987Z" transform="translate(-225.522 -126.833)" fill="#fff"/>
      <path id="Path_13704" data-name="Path 13704" d="M361.156,295.619c0,.107-19.58.2-43.733.2s-43.733-.092-43.733-.2,19.58-.2,43.733-.2S361.156,295.512,361.156,295.619Z" transform="translate(-214.194 -166.044)" fill="#263238"/>
      <path id="Path_13705" data-name="Path 13705" d="M271.521,211.045l-11.258,5.086L242.794,201.89,237.44,210.3s9.943,11.511,13.637,15.427,6.119,6,9.048,5.621,19.5-8.191,19.5-8.191S275.7,211.534,271.521,211.045Z" transform="translate(-205.669 -144.048)" fill="#ffbe9d"/>
      <path id="Path_13706" data-name="Path 13706" d="M218.44,192.5s2.2,1.652,3.633,1.53,6.883-.13,7.273-.1,5.706,2.914,5.706,2.914l3.885,3.732-6.119,8.474s-1-1.155-1.69-1.071a79.46,79.46,0,0,1-10.325-1.055c-1.262-.428-2.876-.681-3.3-1.453s-.512-1.331.642-2.294a1.937,1.937,0,0,1-.428-2.685s-1.744-1.277-1.117-2.455c0,0-.987-.405-1.147-1.033a6.731,6.731,0,0,1,.069-1.966l2.5-.765A1.2,1.2,0,0,1,218.44,192.5Z" transform="translate(-200.489 -141.84)" fill="#ffbe9d"/>
      <path id="Path_13707" data-name="Path 13707" d="M217.791,194.908s.115-.046.321-.107a4.054,4.054,0,0,1,.933-.191,2.294,2.294,0,0,1,1.361.528,1.583,1.583,0,0,1,.52,1.721,1.208,1.208,0,0,1-.681.727,3.823,3.823,0,0,1-.818.237l-1.346.275a3.916,3.916,0,0,1-1.262.161,4.213,4.213,0,0,1,1.2-.428l1.323-.367c.5-.122,1.055-.237,1.208-.765a1.254,1.254,0,0,0-.39-1.315,2.164,2.164,0,0,0-1.124-.52,5.643,5.643,0,0,0-.895.061C217.914,194.977,217.791,194.947,217.791,194.908Z" transform="translate(-200.82 -142.336)" fill="#eb996e"/>
      <path id="Path_13708" data-name="Path 13708" d="M221.341,197.78a2.863,2.863,0,0,1,.581-.168,9.3,9.3,0,0,1,1.652-.184,4.268,4.268,0,0,1,2.417.619,2.1,2.1,0,0,1,.91,1.254,1.438,1.438,0,0,1-.627,1.53,3.824,3.824,0,0,1-1.583.321l-1.438.115-2.425.168a12.694,12.694,0,0,1-2.249.054,12.108,12.108,0,0,1,2.226-.337l2.417-.252,1.438-.138a3.824,3.824,0,0,0,1.415-.275,1.048,1.048,0,0,0,.474-1.094,1.721,1.721,0,0,0-.765-1.025,4.153,4.153,0,0,0-2.218-.642C222.205,197.689,221.349,197.865,221.341,197.78Z" transform="translate(-201.234 -142.998)" fill="#eb996e"/>
      <path id="Path_13709" data-name="Path 13709" d="M226.733,201.89s.153,0,.314.237a1.224,1.224,0,0,1,.145,1.086,1.858,1.858,0,0,1-1.178,1.1,6.424,6.424,0,0,1-1.9.252c-2.639.122-4.727.635-4.757.52a13.308,13.308,0,0,1,4.734-.918,7.059,7.059,0,0,0,1.8-.2,1.667,1.667,0,0,0,1.04-.857,1.155,1.155,0,0,0,0-.9C226.779,201.974,226.672,201.921,226.733,201.89Z" transform="translate(-201.417 -144.048)" fill="#eb996e"/>
      <path id="Path_13710" data-name="Path 13710" d="M237.942,203.5a2.624,2.624,0,0,1-1.1.428,8.213,8.213,0,0,1-2.86.13,8.123,8.123,0,0,1-2.723-.88c-.642-.352-.979-.665-.948-.7a11.251,11.251,0,0,0,7.648,1.025Z" transform="translate(-203.992 -144.187)" fill="#eb996e"/>
      <path id="Path_13711" data-name="Path 13711" d="M228.889,198.617c.054-.1.6.092,1.27,0s1.163-.375,1.231-.283-.382.6-1.186.681S228.827,198.7,228.889,198.617Z" transform="translate(-203.657 -143.208)" fill="#eb996e"/>
      <path id="Path_13712" data-name="Path 13712" d="M228.11,208.68a3.059,3.059,0,0,1,1.155-2.111,3.151,3.151,0,0,1,2.18-1.01,17.353,17.353,0,0,0-1.9,1.3,16.418,16.418,0,0,0-1.43,1.82Z" transform="translate(-203.475 -144.911)" fill="#eb996e"/>
      <path id="Path_13713" data-name="Path 13713" d="M202.393,238.4H235.61l6.164,48.582H195.9Z" transform="translate(-195.9 -152.634)" fill="#fdaa00"/>
      <path id="Path_13714" data-name="Path 13714" d="M247.82,238.4h3.847L263,286.982h-9.017Z" transform="translate(-208.11 -152.634)" fill="#fd8a00"/>
      <path id="Path_13715" data-name="Path 13715" d="M247.82,238.4h3.847L263,286.982h-9.017Z" transform="translate(-208.11 -152.634)" fill="#fdaa00" opacity="0.3"/>
      <path id="Path_13716" data-name="Path 13716" d="M222.8,205.363a.362.362,0,0,1,.268,0,.987.987,0,0,1,.581.451,1.231,1.231,0,0,1,.107,1.1,1.851,1.851,0,0,1-.9.987,3.771,3.771,0,0,1-1.683.329l.145-.1c-.436.834-.956,1.208-.994,1.155s.344-.5.688-1.3l.038-.084h.107a4.031,4.031,0,0,0,1.53-.352,1.53,1.53,0,0,0,.765-.765.986.986,0,0,0,0-.834C223.18,205.462,222.782,205.424,222.8,205.363Z" transform="translate(-201.642 -144.859)" fill="#eb996e"/>
      <path id="Path_13717" data-name="Path 13717" d="M215.42,233.6a5,5,0,0,1,.076-.987c.069-.627.2-1.53.382-2.662.359-2.241.971-5.354,1.683-8.7s1.369-6.447,1.8-8.673c.2-1.055.375-1.935.5-2.639a4.7,4.7,0,0,1,.229-.964,4.954,4.954,0,0,1-.076.987c-.069.635-.2,1.53-.382,2.662-.359,2.241-.971,5.354-1.69,8.711s-1.361,6.447-1.8,8.673c-.2,1.048-.375,1.935-.5,2.631a4.359,4.359,0,0,1-.229.964Z" transform="translate(-200.49 -145.713)" fill="#fd8a00"/>
      <path id="Path_13718" data-name="Path 13718" d="M236.052,232.923a7.419,7.419,0,0,1-.367-1.117c-.222-.765-.512-1.836-.857-3.059-.711-2.608-1.66-6.218-2.692-10.21s-1.935-7.648-2.577-10.249c-.291-1.262-.543-2.294-.765-3.113a6.4,6.4,0,0,1-.214-1.155,7.421,7.421,0,0,1,.367,1.117c.222.765.512,1.836.857,3.059.711,2.608,1.66,6.218,2.692,10.218s1.935,7.61,2.57,10.233l.765,3.12a6.4,6.4,0,0,1,.222,1.155Z" transform="translate(-203.585 -144.549)" fill="#fd8a00"/>
      <path id="Path_13719" data-name="Path 13719" d="M264.9,300.363a8.493,8.493,0,0,1-1.6-1.117c-.956-.727-2.294-1.759-3.686-2.914l-.719-.589.291-.046c-.895,1.346-1.7,2.531-2.294,3.365a7.051,7.051,0,0,1-1.01,1.3,7.949,7.949,0,0,1,.765-1.446c.528-.872,1.293-2.08,2.18-3.434l.115-.184.176.138.719.581c1.423,1.163,2.7,2.226,3.61,3.013a9.945,9.945,0,0,1,1.453,1.331Z" transform="translate(-210.006 -166.016)" fill="#263238"/>
      <path id="Path_13720" data-name="Path 13720" d="M250.458,238.4c.107,0,1.828,9.774,3.824,21.874s3.556,21.92,3.442,21.935-1.828-9.774-3.824-21.874S250.351,238.415,250.458,238.4Z" transform="translate(-208.729 -152.634)" fill="#263238"/>
      <path id="Path_13721" data-name="Path 13721" d="M238.566,254.327a8.845,8.845,0,0,1-.765.765,13.85,13.85,0,0,1-2.532,1.729,15.136,15.136,0,0,1-4.589,1.576,13.652,13.652,0,0,1-6.394-.375,7.824,7.824,0,0,1-3.212-1.958,6.05,6.05,0,0,1-1.751-3.671,4.773,4.773,0,0,1,1.66-4,3.74,3.74,0,0,1,2.149-.895,4.421,4.421,0,0,1,2.348.489,5.567,5.567,0,0,1,1.874,1.53,6.287,6.287,0,0,1,1.078,2.294,11.136,11.136,0,0,1,0,5.071,17.17,17.17,0,0,1-5.216,9.178,15.563,15.563,0,0,1-4.589,2.922,11.258,11.258,0,0,1-5.178.887,8.834,8.834,0,0,1-4.734-1.836,6.669,6.669,0,0,1-2.524-4.13,6.249,6.249,0,0,1,.887-4.528,4.283,4.283,0,0,1,3.786-2.042,2.746,2.746,0,0,1,1.874,1.01,4.084,4.084,0,0,1,.849,1.774,6.669,6.669,0,0,1-.436,3.74,10,10,0,0,1-4.26,4.742,15.121,15.121,0,0,1-4.589,1.652,23.715,23.715,0,0,1-3.059.382c-.344,0-.612.038-.765.038h0l.765-.076a26.8,26.8,0,0,0,3.021-.459,15.052,15.052,0,0,0,4.474-1.69,9.774,9.774,0,0,0,4.115-4.658,6.394,6.394,0,0,0,.4-3.572,3.885,3.885,0,0,0-.765-1.706,2.44,2.44,0,0,0-1.66-.887,3.924,3.924,0,0,0-3.457,1.912,5.882,5.882,0,0,0-.826,4.268,6.279,6.279,0,0,0,2.4,3.893,8.482,8.482,0,0,0,4.528,1.744,12.992,12.992,0,0,0,9.43-3.717A16.781,16.781,0,0,0,228,256.8a10.708,10.708,0,0,0,0-4.895,5.912,5.912,0,0,0-.994-2.126,5.293,5.293,0,0,0-1.751-1.468,4.091,4.091,0,0,0-2.149-.451,3.442,3.442,0,0,0-1.958.765,4.421,4.421,0,0,0-1.53,3.7,5.744,5.744,0,0,0,1.644,3.488,7.487,7.487,0,0,0,3.059,1.9,13.462,13.462,0,0,0,6.272.421,15.488,15.488,0,0,0,4.551-1.491,14.846,14.846,0,0,0,2.555-1.652c.275-.207.467-.39.612-.5A.932.932,0,0,1,238.566,254.327Z" transform="translate(-196.914 -154.771)" fill="#fff"/>
      <path id="Path_13722" data-name="Path 13722" d="M304.615,194.4h-5.989c-1.927.681-17.476,13.9-17.476,13.9l8.788,13.813,11.4-6.662Z" transform="translate(-215.949 -142.286)" fill="#455a64"/>
      <path id="Path_13723" data-name="Path 13723" d="M301.335,192.293l13.232-5.025s1.935,4.061,7.824,3.189,12.841-5.017,12.841-5.017,10.142,5.79,13.14,8.207-2.417,53.018-2.417,53.018L344.6,261.831s1.063.765,1.063,3.381.1,4.344.1,4.344H293.343s-1.277-6.08-.314-8.5a30.887,30.887,0,0,1,2.562-4.826l.818-23.373.291-20.864Z" transform="translate(-218.658 -140.179)" fill="#455a64"/>
      <path id="Path_13724" data-name="Path 13724" d="M360.237,196.17s4.23,1.193,5.484,7.465,1.017,30.226,1.017,30.226l-23.618-5.117s3.2-10.05,3.2-10.708,6.5-16.88,6.73-17.224S360.237,196.17,360.237,196.17Z" transform="translate(-230.522 -142.703)" fill="#455a64"/>
      <path id="Path_13725" data-name="Path 13725" d="M297.388,207.28c.107,0,.26,4.184.337,9.354s.046,9.354-.061,9.354-.26-4.184-.336-9.346S297.273,207.28,297.388,207.28Z" transform="translate(-219.742 -145.316)" fill="#263238"/>
      <path id="Path_13726" data-name="Path 13726" d="M349.517,210.22a3.175,3.175,0,0,1-.092.826c-.076.535-.214,1.3-.4,2.241-.375,1.881-.948,4.474-1.7,7.3s-1.53,5.354-2.119,7.2c-.306.91-.558,1.644-.765,2.149a3.058,3.058,0,0,1-.337.765,3.742,3.742,0,0,1,.191-.811c.168-.6.375-1.331.627-2.187.535-1.836,1.262-4.382,2-7.212s1.361-5.4,1.8-7.266l.528-2.21A2.829,2.829,0,0,1,349.517,210.22Z" transform="translate(-230.755 -146.007)" fill="#263238"/>
      <path id="Path_13727" data-name="Path 13727" d="M348.1,209.55a29.966,29.966,0,0,1-.054,4.826,30.408,30.408,0,0,1-.451,4.8,27.909,27.909,0,0,1,.054-4.818,29.651,29.651,0,0,1,.451-4.8Z" transform="translate(-231.556 -145.849)" fill="#263238"/>
      <path id="Path_13728" data-name="Path 13728" d="M337.462,219.831a64.757,64.757,0,0,1-10.142,0,64.754,64.754,0,0,1,10.142,0Z" transform="translate(-226.806 -148.214)" fill="#fff"/>
      <path id="Path_13729" data-name="Path 13729" d="M304.48,258.8l26.134-3.143,4.122-16.551,14.616,3.166s-5.782,22.945-11.74,25.193-35.442-1.53-35.442-1.53Z" transform="translate(-220.892 -152.801)" fill="#ffbe9d"/>
      <path id="Path_13730" data-name="Path 13730" d="M296,264.14a31.446,31.446,0,0,0-4.36-1.476c-1.208-.176-2.639.092-3,.673l-7.021,4.092s-5.208-.5-5.706.673c0,0-3.327-.948-3.862-.275,0,0-1.667.543-1.392,1.308s6.287,2.876,6.287,2.876l8.237.841a20.073,20.073,0,0,1,4.444-1.843,22.5,22.5,0,0,1,3.748.3c-.107,0,4.818.558,4.818.558s1-1.078,1.407-4.046,0-3.587,0-3.587Z" transform="translate(-213.474 -158.328)" fill="#ffbe9d"/>
      <path id="Path_13731" data-name="Path 13731" d="M297.948,267.869a1,1,0,0,1-.512-.2c-.291-.2-.543-.7-1-1.01a2.68,2.68,0,0,0-.9-.275,2.05,2.05,0,0,1-1.124-.5,2,2,0,0,1-.612-1.239,1.759,1.759,0,0,1,.444-1.423,2.86,2.86,0,0,1,2.623-.719,4.59,4.59,0,0,1,1.973,1.01,9.547,9.547,0,0,1,1.048,1.04c.222.26.329.413.314.436s-.574-.52-1.53-1.254a4.68,4.68,0,0,0-1.874-.872,2.547,2.547,0,0,0-2.294.635,1.591,1.591,0,0,0,.13,2.126c.5.52,1.361.375,1.935.765s.7.91.948,1.132S297.963,267.838,297.948,267.869Z" transform="translate(-218.919 -158.286)" fill="#eb996e"/>
      <path id="Path_13732" data-name="Path 13732" d="M291.458,267.739c0,.061-.4.038-.956.291a14.443,14.443,0,0,1-2.256,1.071,6.516,6.516,0,0,1-2.516-.2,8.753,8.753,0,0,1-1.01-.145,1.66,1.66,0,0,1,1.04-.13,8.92,8.92,0,0,0,2.394.084c.872-.222,1.614-.765,2.294-.941S291.473,267.693,291.458,267.739Z" transform="translate(-216.788 -159.517)" fill="#eb996e"/>
      <path id="Path_13733" data-name="Path 13733" d="M289.821,271.577a1.644,1.644,0,0,1-.482.306,6.969,6.969,0,0,1-1.446.558,14.2,14.2,0,0,1-5.078.291c-.979-.122-1.912-.275-2.761-.4a8.528,8.528,0,0,1-2.256-.5,1.43,1.43,0,0,1-.673-.65,1.178,1.178,0,0,1-.1-.7c.084-.405.336-.5.336-.474a.86.86,0,0,0-.184.489,1.117,1.117,0,0,0,.765,1.078,9.993,9.993,0,0,0,2.187.39l2.746.367a15.992,15.992,0,0,0,4.971-.168C289.079,271.89,289.79,271.531,289.821,271.577Z" transform="translate(-214.975 -160.067)" fill="#eb996e"/>
      <path id="Path_13734" data-name="Path 13734" d="M343.739,267.627a29.205,29.205,0,0,0-1.7-3.266,29.746,29.746,0,0,0-2.4-2.792,6.984,6.984,0,0,1,2.73,2.57A6.883,6.883,0,0,1,343.739,267.627Z" transform="translate(-229.704 -158.083)" fill="#eb996e"/>
    </g>
    <g id="freepik--character-1--inject-157" transform="translate(34.481 103.767)">
      <path id="Path_13735" data-name="Path 13735" d="M89.9,385.12l-1,51.06,12.367,1.323,8.5-51.985-6.677-8.4Z" transform="translate(-48.624 -182.458)" fill="#ffbe9d"/>
      <path id="Path_13736" data-name="Path 13736" d="M102.784,452.629v.834s14.073,5.843,14.188,8.52l-28.061-.467V452.17A17.3,17.3,0,0,0,102.784,452.629Z" transform="translate(-48.627 -200.108)" fill="#fd8a00"/>
      <path id="Path_13737" data-name="Path 13737" d="M88.9,463.7l.13-2.241,26.853,1.27s1.239.566,1.078,1.438Z" transform="translate(-48.624 -202.293)" fill="#263238"/>
      <path id="Path_13738" data-name="Path 13738" d="M79.141,181.946c-.206-2.356-1.614-4.734-3.824-5.446l-2.593,1.484a6.233,6.233,0,0,0-3.12,7.572,7.381,7.381,0,0,0-2.363,10.126c-1.683.765-2.4,2.83-2.371,4.681s.627,3.648.765,5.491c.13,1.423,0,2.868.26,4.275A4.375,4.375,0,0,0,68.25,213.5a3.824,3.824,0,0,0,4.069-1.163,7.931,7.931,0,0,0,1.706-4.1c.7-4.275-.214-8.734.864-12.933a42.119,42.119,0,0,1,2.7-6.532A14.213,14.213,0,0,0,79.141,181.946Z" transform="translate(-42.973 -135.278)" fill="#263238"/>
      <path id="Path_13739" data-name="Path 13739" d="M79.384,179.011A8.245,8.245,0,0,1,72.5,166.322a2.119,2.119,0,0,1,.941-.91c.864-.344,1.774.359,2.44,1.017l4.841,4.711" transform="translate(-44.462 -132.649)" fill="#263238"/>
      <path id="Path_13740" data-name="Path 13740" d="M79.634,167c-3.633-1.721-6.493-5.8-7.549-9.675s.161-11.732,1.2-15.61c1.277-4.727,3.243,1.354,4.849,1.851a3.121,3.121,0,0,1,1.912,2.157,9.125,9.125,0,0,1,.222,2.99q-.321,9.178-.635,18.287" transform="translate(-44.574 -126.675)" fill="#263238"/>
      <path id="Path_13741" data-name="Path 13741" d="M93.024,124.4c6.073-3.266,10.952-1.338,13.323.512a14.685,14.685,0,0,1,4.673,7.564c.849,2.883,1.247,5.882,1.95,8.811a36.184,36.184,0,0,1,.941,5.124c.344,2.5.229,6.975-1.048,9.178a14.991,14.991,0,0,1-4.589,5.293,3.038,3.038,0,0,1-2.432.719,2.929,2.929,0,0,1-1.377-1.262A117.217,117.217,0,0,1,89.1,129.621" transform="translate(-48.671 -122.61)" fill="#263238"/>
      <path id="Path_13742" data-name="Path 13742" d="M84.526,132.815,95.05,128.57l2.761.306c6.2,0,10.5,6.807,10.57,11.832.069,5.576-.061,12.39-.925,16.5-1.744,8.275-8.191,9.017-8.191,9.017s.076,2.256.138,5.033a8.75,8.75,0,0,1-8.933,8.964h0a8.75,8.75,0,0,1-8.581-8.727l-.138-35.847a2.937,2.937,0,0,1,2.776-2.838Z" transform="translate(-46.943 -124.006)" fill="#ffbe9d"/>
      <path id="Path_13743" data-name="Path 13743" d="M112.4,151.345a1.071,1.071,0,0,1-1.086,1.025,1.025,1.025,0,0,1-1.055-1.017,1.078,1.078,0,0,1,1.086-1.033,1.033,1.033,0,0,1,1.055,1.025Z" transform="translate(-53.648 -129.121)" fill="#263238"/>
      <path id="Path_13744" data-name="Path 13744" d="M112.384,147.78c-.138.13-.918-.5-2.065-.558s-2.027.474-2.149.329.092-.314.474-.558a2.922,2.922,0,0,1,1.721-.444,2.86,2.86,0,0,1,1.644.627C112.345,147.466,112.452,147.719,112.384,147.78Z" transform="translate(-53.148 -128.233)" fill="#263238"/>
      <path id="Path_13745" data-name="Path 13745" d="M104.479,156.979a7.992,7.992,0,0,1,1.889-.245c.291,0,.574-.054.635-.252a1.568,1.568,0,0,0-.153-.887c-.237-.719-.489-1.484-.765-2.294a38.892,38.892,0,0,1-1.66-5.95,38.787,38.787,0,0,1,2.134,5.805c.252.765.489,1.53.719,2.294a1.683,1.683,0,0,1,.1,1.155.765.765,0,0,1-.5.413,2.018,2.018,0,0,1-.5.038,7.166,7.166,0,0,1-1.889-.076Z" transform="translate(-52.272 -128.422)" fill="#263238"/>
      <path id="Path_13746" data-name="Path 13746" d="M101.261,176.721A21.285,21.285,0,0,1,90.24,173.18s2.685,5.927,11.075,5.568Z" transform="translate(-48.939 -134.497)" fill="#eb996e"/>
      <path id="Path_13747" data-name="Path 13747" d="M102.471,162.9a2.088,2.088,0,0,0-1.859-.979,1.652,1.652,0,0,0-1.346.642,1.468,1.468,0,0,0-.084,1.568,1.53,1.53,0,0,0,1.568.612,3.824,3.824,0,0,0,1.53-.826,1.254,1.254,0,0,0,.344-.352A.918.918,0,0,0,102.471,162.9Z" transform="translate(-50.998 -131.848)" fill="#eb996e"/>
      <path id="Path_13748" data-name="Path 13748" d="M99.932,160.76c.184,0,.13,1.247,1.155,2.187s2.356.872,2.363,1.048-.314.229-.872.214a3.121,3.121,0,0,1-1.981-.8,2.723,2.723,0,0,1-.887-1.828C99.71,161.051,99.863,160.752,99.932,160.76Z" transform="translate(-51.166 -131.576)" fill="#263238"/>
      <path id="Path_13749" data-name="Path 13749" d="M112.277,143.6c-.214.252-.994-.054-1.95-.115s-1.767.084-1.943-.2c-.076-.138.069-.39.428-.62a2.822,2.822,0,0,1,3.136.252C112.277,143.166,112.369,143.442,112.277,143.6Z" transform="translate(-53.202 -127.237)" fill="#263238"/>
      <path id="Path_13750" data-name="Path 13750" d="M96.43,151.277a1.063,1.063,0,0,0,1.017,1.094,1.025,1.025,0,0,0,1.117-.948,1.071,1.071,0,0,0-1.017-1.094,1.017,1.017,0,0,0-1.117.948Z" transform="translate(-50.395 -129.122)" fill="#263238"/>
      <path id="Path_13751" data-name="Path 13751" d="M93.6,147.664c.13.145.948-.444,2.1-.428s1.989.6,2.111.467-.069-.314-.428-.589a2.883,2.883,0,0,0-1.7-.543,2.845,2.845,0,0,0-1.675.512C93.658,147.335,93.536,147.587,93.6,147.664Z" transform="translate(-49.726 -128.239)" fill="#263238"/>
      <path id="Path_13752" data-name="Path 13752" d="M94.252,142.85c.2.26,1,0,1.958,0s1.759.2,1.95-.076c.084-.13-.046-.39-.39-.642a2.685,2.685,0,0,0-1.583-.451,2.761,2.761,0,0,0-1.568.5C94.282,142.452,94.168,142.689,94.252,142.85Z" transform="translate(-49.877 -127.088)" fill="#263238"/>
      <path id="Path_13753" data-name="Path 13753" d="M93.423,127.223a10.232,10.232,0,0,0-9.033,1.025,11.8,11.8,0,0,0-4.237,7.281c-.528,2.83.176,7.013.918,9.79,4.314-5.56,8.757-11.97,12.918-17.645Z" transform="translate(-46.524 -123.546)" fill="#263238"/>
      <path id="Path_13754" data-name="Path 13754" d="M99.66,124.068c14.623-2.065,13.27,20.046,13.27,20.046h0c-1.461-8.145-12.8-16.666-12.8-16.666l-2.294-.39Z" transform="translate(-50.727 -122.915)" fill="#263238"/>
      <path id="Path_13755" data-name="Path 13755" d="M81.078,155.527c0-.619-.612-2.119-1.224-2.249-1.629-.337-4.589-.352-4.818,3.824-.329,5.683,5.446,4.834,5.469,4.673S80.979,157.676,81.078,155.527Z" transform="translate(-45.361 -129.785)" fill="#ffbe9d"/>
      <path id="Path_13756" data-name="Path 13756" d="M80.31,160.058a1.862,1.862,0,0,1-.275.138,1.009,1.009,0,0,1-.765,0,2.455,2.455,0,0,1-1.01-2.294,3.266,3.266,0,0,1,.359-1.4,1.155,1.155,0,0,1,.765-.719.5.5,0,0,1,.566.306c.069.161,0,.275.054.283s.13-.084.1-.321a.689.689,0,0,0-.206-.375.765.765,0,0,0-.535-.176,1.392,1.392,0,0,0-1.086.826,3.319,3.319,0,0,0-.436,1.53,2.61,2.61,0,0,0,1.308,2.532,1.025,1.025,0,0,0,.91-.1C80.257,160.2,80.326,160.073,80.31,160.058Z" transform="translate(-46.023 -130.339)" fill="#eb996e"/>
      <path id="Path_13757" data-name="Path 13757" d="M73.837,134.746a20.513,20.513,0,0,1,7.824-9.476,13.874,13.874,0,0,1,6.119-2.585,7.036,7.036,0,0,1,6.119,2.05l.405.413c-2.509,5.576-4.283,10.295-7.518,15.48-1.193,1.9-1.706,8.413-1.989,10.623-.979,7.61-5.147,10.868-5.147,10.868C70.624,162.127,72.383,138.647,73.837,134.746Z" transform="translate(-44.804 -122.602)" fill="#263238"/>
      <path id="Path_13758" data-name="Path 13758" d="M78.4,171.369a2.486,2.486,0,0,1-1.124-.352,7.694,7.694,0,0,1-2.294-1.713,7.381,7.381,0,0,1-1.53-2.417,2.5,2.5,0,0,1-.252-1.147,14.837,14.837,0,0,0,2.034,3.3A14.532,14.532,0,0,0,78.4,171.369Z" transform="translate(-44.932 -132.747)" fill="#455a64"/>
      <path id="Path_13759" data-name="Path 13759" d="M77.374,181.893a4.367,4.367,0,0,1-3.824-2.883,23.707,23.707,0,0,0,1.729,1.7A20.532,20.532,0,0,0,77.374,181.893Z" transform="translate(-45.014 -135.868)" fill="#455a64"/>
      <path id="Path_13760" data-name="Path 13760" d="M72.962,191.045c-.084.069-.6-.5-1.163-1.277s-.925-1.453-.834-1.53.6.5,1.163,1.277S73.054,190.984,72.962,191.045Z" transform="translate(-44.403 -138.036)" fill="#455a64"/>
      <path id="Path_13761" data-name="Path 13761" d="M69.287,202.64c-.084.069-.482-.252-.895-.727s-.681-.91-.6-.987.482.252.895.727S69.371,202.563,69.287,202.64Z" transform="translate(-43.657 -141.019)" fill="#455a64"/>
      <path id="Path_13762" data-name="Path 13762" d="M72,148.095a8.556,8.556,0,0,1,1.078-.627,12.948,12.948,0,0,0,1.262-.765c.5-.344,1.055-.6,1.637-1.017a39.2,39.2,0,0,0,4.008-3.006,38.731,38.731,0,0,0,7.924-9.308,39.771,39.771,0,0,0,2.333-4.436c.314-.642.528-1.247.765-1.774a14.327,14.327,0,0,0,.512-1.369,7.587,7.587,0,0,1,.451-1.163,7.967,7.967,0,0,1-.306,1.216,14.235,14.235,0,0,1-.451,1.392c-.191.535-.39,1.155-.688,1.813a36.259,36.259,0,0,1-2.294,4.512,40.268,40.268,0,0,1-3.6,5.033,40.008,40.008,0,0,1-4.4,4.367,36.384,36.384,0,0,1-4.092,2.96c-.6.4-1.178.7-1.675.979s-.941.5-1.308.665a7.785,7.785,0,0,1-1.155.528Z" transform="translate(-44.65 -123.079)" fill="#455a64"/>
      <path id="Path_13763" data-name="Path 13763" d="M85.9,146.4a4.6,4.6,0,0,1-.413.543c-.283.329-.765.765-1.3,1.331a27.816,27.816,0,0,1-10.493,6.233,18.351,18.351,0,0,1-1.79.5,2.586,2.586,0,0,1-.673.107,23.943,23.943,0,0,1,2.371-.864,35.239,35.239,0,0,0,5.476-2.6A34.838,34.838,0,0,0,84,148.1,23.377,23.377,0,0,1,85.9,146.4Z" transform="translate(-44.469 -128.198)" fill="#455a64"/>
      <path id="Path_13764" data-name="Path 13764" d="M113.671,148.257a9.947,9.947,0,0,1,.237-1.247,20.843,20.843,0,0,0,.375-3.411,19.824,19.824,0,0,0-10.845-18.463,20.725,20.725,0,0,0-3.166-1.331,10.489,10.489,0,0,1-1.2-.405,1.756,1.756,0,0,1,.329.046c.214.046.52.092.918.207a17.9,17.9,0,0,1,3.243,1.231,19.541,19.541,0,0,1,11.006,18.723,17.927,17.927,0,0,1-.5,3.434c-.092.4-.206.7-.268.91A1.178,1.178,0,0,1,113.671,148.257Z" transform="translate(-51.016 -122.79)" fill="#455a64"/>
      <path id="Path_13765" data-name="Path 13765" d="M206.664,223.5a1.828,1.828,0,0,0-.252,1.774,2.883,2.883,0,0,0,1.132,1.155,9.943,9.943,0,0,0,1.882-2.692" transform="translate(-76.231 -146.331)" fill="#eb996e"/>
      <path id="Path_13766" data-name="Path 13766" d="M202.225,222.23a1.843,1.843,0,0,0-.688,1.66,2.837,2.837,0,0,0,.811,1.4,10.088,10.088,0,0,0,2.493-2.134" transform="translate(-75.11 -146.032)" fill="#eb996e"/>
      <path id="Path_13767" data-name="Path 13767" d="M103.82,189.26s25.155,19.794,29.691,20.444,25.752-1.927,34.463-2.2l1.231,7.3s-24.038,8.161-32.78,8.482-13.767-2.034-13.767-2.034l-16.344-16.742Z" transform="translate(-52.133 -138.278)" fill="#ffbe9d"/>
      <path id="Path_13768" data-name="Path 13768" d="M187,212.916s11.235-1.606,13-.727,6.761,5.109,6.761,5.109,1.675,4.7.619,4.925-2.142-1.53-2.142-1.53L203.78,218.1l-6.279-1.53-10.409.925Z" transform="translate(-71.695 -143.609)" fill="#ffbe9d"/>
      <path id="Path_13769" data-name="Path 13769" d="M188.169,221.285c.161.2,4.176,2.134,6.218,2.08s4.375-1.652,6.119-1.407,5.4.528,5.843-.107a1.384,1.384,0,0,0,0-1.927c-.6-.566-3.541-1.124-5.667-1.7a8.505,8.505,0,0,1-3.151-1.445l-12.367,1.361-.7,3.824Z" transform="translate(-71.097 -144.75)" fill="#ffbe9d"/>
      <path id="Path_13770" data-name="Path 13770" d="M196.3,216.594a2.439,2.439,0,0,1,.65-.046,9.529,9.529,0,0,1,1.751.214,49.011,49.011,0,0,1,5.522,1.751,17.056,17.056,0,0,0,3.059.719,2.577,2.577,0,0,1,1.369.528,1.53,1.53,0,0,1,.459,1.224,1.369,1.369,0,0,1-.512.941,1.43,1.43,0,0,1-.765.283c-.444,0-.65-.138-.642-.153a3.433,3.433,0,0,0,.627,0,1.2,1.2,0,0,0,.994-1.094,1.17,1.17,0,0,0-.4-.948,2.34,2.34,0,0,0-1.2-.421,15.4,15.4,0,0,1-3.128-.7c-2.157-.719-4.031-1.53-5.461-1.851S196.3,216.671,196.3,216.594Z" transform="translate(-73.882 -144.695)" fill="#eb996e"/>
      <path id="Path_13771" data-name="Path 13771" d="M205.923,218.907a3.6,3.6,0,0,1-1.82-.918,3.956,3.956,0,0,1-1.316-1.53c.084,0,.711.574,1.53,1.239S206.007,218.8,205.923,218.907Z" transform="translate(-75.405 -144.675)" fill="#eb996e"/>
      <path id="Path_13772" data-name="Path 13772" d="M68.469,384.917l-22.8,10.149,2.746,12.176s28.666-8.551,38.042-10.448,24.574-4.314,28.865-13.415Z" transform="translate(-38.458 -183.93)" fill="#ffbe9d"/>
      <path id="Path_13773" data-name="Path 13773" d="M48.395,410.766l-.765.214s-1.836,14.945-4.36,15.771L36.28,399.906l8.9-2.486A17.125,17.125,0,0,0,48.395,410.766Z" transform="translate(-36.249 -187.232)" fill="#fd8a00"/>
      <path id="Path_13774" data-name="Path 13774" d="M36.24,400.524l2.172-.474,5.9,25.9s-.207,1.331-1.086,1.415Z" transform="translate(-36.24 -187.851)" fill="#263238"/>
      <path id="Path_13775" data-name="Path 13775" d="M117.548,383.84a3.059,3.059,0,0,1-.237.642,7.762,7.762,0,0,1-1.094,1.629,25.408,25.408,0,0,1-5.629,4.482,26.007,26.007,0,0,1-4.512,2.119,50.018,50.018,0,0,1-5.5,1.53c-3.885.979-8.153,2.1-12.627,3.281L65,403.573l-6.945,1.805-1.9.459a3.957,3.957,0,0,1-.673.13,4.772,4.772,0,0,1,.65-.214l1.881-.52,6.929-1.9c5.859-1.591,13.943-3.824,22.9-6.165,4.474-1.185,8.742-2.294,12.643-3.258a51.159,51.159,0,0,0,5.469-1.53A26.524,26.524,0,0,0,116.095,386a8.6,8.6,0,0,0,1.453-2.157Z" transform="translate(-40.767 -184.038)" fill="#eb996e"/>
      <path id="Path_13776" data-name="Path 13776" d="M85.891,255.146l.52,4.489s-7.9,14.922-7.9,22.945-3.641,71.748-3.641,71.748,42.83,2.44,47.35-1.744l4.528-4.176,15.3-4.176-23.9-87.19V252.37Z" transform="translate(-45.325 -153.12)" fill="#263238"/>
      <path id="Path_13777" data-name="Path 13777" d="M127.583,284.24a.62.62,0,0,1,.046.184l.084.52c.069.49.161,1.163.283,2.011.252,1.782.6,4.306,1.04,7.4.887,6.249,2.218,14.861,3.939,24.337s3.5,18.012,4.857,24.176c.681,3.059,1.231,5.537,1.629,7.3l.436,1.989c.038.207.077.375.1.512a.567.567,0,0,1,0,.184.763.763,0,0,1-.061-.168l-.138-.512c-.13-.482-.3-1.14-.512-1.966-.436-1.713-1.04-4.191-1.751-7.273-1.43-6.119-3.251-14.685-4.979-24.169s-3-18.111-3.824-24.367c-.413-3.128-.719-5.667-.91-7.426-.092-.849-.161-1.53-.214-2.019a1.805,1.805,0,0,0-.046-.528A.6.6,0,0,1,127.583,284.24Z" transform="translate(-57.716 -160.615)" fill="#455a64"/>
      <path id="Path_13778" data-name="Path 13778" d="M87.37,294.68a2.848,2.848,0,0,1,.184.5q.161.566.436,1.468c.382,1.323.918,3.151,1.576,5.4,1.354,4.551,3.312,10.807,5.7,17.645s4.773,12.956,6.555,17.354c.887,2.164,1.614,3.931,2.134,5.209l.574,1.415a4.265,4.265,0,0,1,.176.5,2.212,2.212,0,0,1-.252-.474l-.642-1.384c-.551-1.208-1.323-2.967-2.249-5.163-1.851-4.375-4.268-10.478-6.669-17.323S90.582,306.7,89.3,302.129c-.642-2.294-1.14-4.145-1.461-5.438-.153-.612-.268-1.1-.359-1.484A3.22,3.22,0,0,1,87.37,294.68Z" transform="translate(-48.264 -163.07)" fill="#455a64"/>
      <path id="Path_13779" data-name="Path 13779" d="M123.287,261.183a7.235,7.235,0,0,1-1.285.153c-.826.084-2.027.168-3.518.26-2.968.176-7.082.337-11.618.359s-8.658-.115-11.633-.268c-1.484-.077-2.685-.153-3.518-.222a7.235,7.235,0,0,1-1.285-.153,9.95,9.95,0,0,1,1.293,0l3.526.1c2.968.084,7.075.168,11.61.153s8.643-.138,11.618-.245l3.518-.13a7.985,7.985,0,0,1,1.293-.008Z" transform="translate(-48.984 -155.188)" fill="#455a64"/>
      <path id="Path_13780" data-name="Path 13780" d="M96.658,184.811c-.207-.482,15.189,11.794,17.124,17.775s2.294,23.235,2.294,23.235l1.078,11.075-30.769,2.172L85.56,236.9l-2.294-6.172L80.122,221.4s-7.579-11.771-9.086-16.826c-1.866-6.295,1.231-12.742,1.231-12.742L79.22,184Z" transform="translate(-44.282 -137.041)" fill="#fd8a00"/>
      <path id="Path_13781" data-name="Path 13781" d="M81.623,183.177s-1.706-3.159-.658-4.543c.841-1.094,15.641.283,18.662.918,1.774.382,0,4.337,0,4.337Z" transform="translate(-46.678 -135.683)" fill="#fd8a00"/>
      <g id="Group_1826" data-name="Group 1826" transform="translate(36.305 62.408)" opacity="0.3">
        <path id="Path_13782" data-name="Path 13782" d="M91.212,204.2c1.293,3.342-.535,13.706-.811,16.168a42.2,42.2,0,0,1-1.7,7.243c-.337,1.109-.658,2.379,0,3.35,1.01,1.53,3.61,1.117,4.872,2.493a12.122,12.122,0,0,1-7.572.872,2.065,2.065,0,0,1-1.2-.574,2.18,2.18,0,0,1-.367-.971,28.8,28.8,0,0,1-.359-11.029c.665-3.633,4.138-12.352,7.059-14.646" transform="translate(-83.708 -204.2)"/>
      </g>
      <path id="Path_13783" data-name="Path 13783" d="M93.022,210.19a10.088,10.088,0,0,1-1.484,3.549,9.622,9.622,0,0,1-2.44,2.968c-.084-.076,1.025-1.377,2.1-3.174S92.907,210.144,93.022,210.19Z" transform="translate(-48.67 -143.2)" fill="#263238"/>
      <path id="Path_13784" data-name="Path 13784" d="M99.859,184.854a2.294,2.294,0,0,1-.7.2c-.459.1-1.124.214-1.958.329a36.36,36.36,0,0,1-12.994-.627c-.818-.191-1.468-.375-1.912-.52a2.386,2.386,0,0,1-.681-.268c0-.061,1.017.2,2.654.512a46.3,46.3,0,0,0,6.44.765A47.242,47.242,0,0,0,97.2,185.1C98.826,184.954,99.843,184.793,99.859,184.854Z" transform="translate(-46.91 -137.032)" fill="#263238"/>
      <path id="Path_13785" data-name="Path 13785" d="M118.832,219.508c-.069,0,.2-.849.405-2.218a16.6,16.6,0,0,0-1.851-10.44c-.665-1.216-1.2-1.9-1.147-1.943s.176.145.428.444a10.2,10.2,0,0,1,.964,1.361,15.1,15.1,0,0,1,1.889,10.631,10.631,10.631,0,0,1-.444,1.606,1.844,1.844,0,0,1-.245.558Z" transform="translate(-55.053 -141.957)" fill="#263238"/>
      <g id="Group_1827" data-name="Group 1827" transform="translate(35.763 47.265)" opacity="0.3">
        <path id="Path_13786" data-name="Path 13786" d="M90.648,185.486A53.329,53.329,0,0,1,83,184.4a20.3,20.3,0,0,0,11.763,2.363,6.211,6.211,0,0,0,4.023-1.728C96.53,185.914,93.065,185.7,90.648,185.486Z" transform="translate(-83 -184.4)"/>
      </g>
      <g id="Group_1828" data-name="Group 1828" transform="translate(60.758 70.079)" opacity="0.3">
        <path id="Path_13787" data-name="Path 13787" d="M115.68,225.221a13.507,13.507,0,0,0,3.587-10.991,15.3,15.3,0,0,1,.574,3.992,6.746,6.746,0,0,1-1.078,4.421c-.941,1.293-1.484,2.073-3.059,2.577" transform="translate(-115.68 -214.23)"/>
      </g>
      <path id="Path_13788" data-name="Path 13788" d="M82.775,194.848a7.648,7.648,0,0,0-10.922,1.025c-.107.138-.214.291-.314.436-1.6,2.394-6,39.679-4.245,44.146s4.306,4.153,4.306,4.153,11.534-.13,19.832-2.05,17.545-5.055,17.545-5.055l-1.53-9.033s-20.314,2.692-25.9,2.057h0l2.134-18.157s4.857-5.912,3.465-11.335A12.756,12.756,0,0,0,82.775,194.848Z" transform="translate(-43.447 -139.162)" fill="#ffbe9d"/>
      <path id="Path_13789" data-name="Path 13789" d="M128.29,230.328l4.589-3.059,3.281-2.769a3.709,3.709,0,0,1-.62,2.914c-1.017,1.53-2.73,3.824-2.73,3.824Z" transform="translate(-57.888 -146.566)" fill="#ffbe9d"/>
      <path id="Path_13790" data-name="Path 13790" d="M134.125,228.378c-.038,0,.26-.352.581-1.01a4.444,4.444,0,0,0,.291-2.922l.275.077-3.266,2.792h0l-.245.161-2.876,1.92a27.065,27.065,0,0,1-2.4,1.484,16.828,16.828,0,0,1-2.294,1.193,16.471,16.471,0,0,1,2.164-1.438c.7-.405,1.476-.948,2.348-1.53l2.853-1.935L131.8,227h0l3.3-2.746.222-.176.054.26a4.429,4.429,0,0,1-.444,3.113,3.893,3.893,0,0,1-.52.711C134.225,228.317,134.14,228.394,134.125,228.378Z" transform="translate(-56.924 -146.467)" fill="#eb996e"/>
      <path id="Path_13791" data-name="Path 13791" d="M126.13,236.833c.153-.306,12.145-13.667,15.105-16.964a1.27,1.27,0,0,1,1.53-.283h0a1.277,1.277,0,0,1,.382,2L127.79,238.661Z" transform="translate(-57.38 -145.377)" fill="#263238"/>
      <path id="Path_13792" data-name="Path 13792" d="M136.792,233.816c.5-.665-.237-1.973-.918-2.333s-3.4,1.14-3.4,1.14l-.979.092s-5.27-1.071-5.446-.979a16.757,16.757,0,0,0-3.824,2.294,7.48,7.48,0,0,0-1.361,1.66,5.7,5.7,0,0,1-3.679,2.18l2.233,9.078s4.9-1.155,5.27-1.163,4.474-.329,5.017-.421a13.614,13.614,0,0,0,4.589-2.119c1.759-1.308.941-2.417.941-2.417,1.813-1.231.4-2.455.4-2.455l.512-.872a1.563,1.563,0,0,0-.765-2.149,13.269,13.269,0,0,0,1.407-1.537Z" transform="translate(-55.277 -148.195)" fill="#ffbe9d"/>
      <path id="Path_13793" data-name="Path 13793" d="M138.06,237.773a6.179,6.179,0,0,1,1.193-.765,5.847,5.847,0,0,1,1.224-.719c.077.046-.329.6-1.033,1.033S138.091,237.872,138.06,237.773Z" transform="translate(-60.185 -149.337)" fill="#eb996e"/>
      <path id="Path_13794" data-name="Path 13794" d="M140.066,241.183c-.061-.084.122-.344.421-.581s.589-.375.65-.3-.122.337-.421.581S140.135,241.26,140.066,241.183Z" transform="translate(-60.654 -150.277)" fill="#eb996e"/>
      <path id="Path_13795" data-name="Path 13795" d="M139.37,243.92c0-.107.291-.214.65-.352s.658-.252.719-.176-.176.359-.589.52S139.37,244.02,139.37,243.92Z" transform="translate(-60.493 -151.003)" fill="#eb996e"/>
      <path id="Path_13796" data-name="Path 13796" d="M135.47,232.967a10.11,10.11,0,0,1-2.769.39,18.791,18.791,0,0,1-2.792.153,7.016,7.016,0,0,1,2.761-.551,9.659,9.659,0,0,1,2.8.008Z" transform="translate(-58.269 -148.532)" fill="#eb996e"/>
      <path id="Path_13797" data-name="Path 13797" d="M85.055,241.84a13.484,13.484,0,0,1-2.034,2.616,13.531,13.531,0,0,1-2.34,2.356,14.716,14.716,0,0,1,2.042-2.616,14.342,14.342,0,0,1,2.333-2.356Z" transform="translate(-46.691 -150.644)" fill="#eb996e"/>
      <path id="Path_13798" data-name="Path 13798" d="M88.086,205.66s.054-.405.122-1.132a10,10,0,0,0-.145-3.059,11.258,11.258,0,0,0-6.2-7.534,7.3,7.3,0,0,0-5.354-.344,6,6,0,0,0-3.5,2.669,10,10,0,0,0-1.094,2.868,9.577,9.577,0,0,1-.268,1.109s0-.1,0-.3a5.167,5.167,0,0,1,.115-.841,9.292,9.292,0,0,1,.918-2.975,5.858,5.858,0,0,1,1.407-1.69,7.006,7.006,0,0,1,2.218-1.193,7.6,7.6,0,0,1,5.66.337,11.274,11.274,0,0,1,6.371,7.8,8.925,8.925,0,0,1,0,3.136,6.449,6.449,0,0,1-.184.841.879.879,0,0,1-.069.306Z" transform="translate(-44.567 -139.122)" fill="#263238"/>
    </g>
    <g id="freepik--speech-bubble--inject-157" transform="translate(100.828 133.955)">
      <path id="Path_13799" data-name="Path 13799" d="M156.962,162.34H125.6a2.34,2.34,0,0,0-2.294,2.294v30.394a2.34,2.34,0,0,0,2.294,2.333h11.549l4.5,6.386,3.916-6.386h11.388a2.294,2.294,0,0,0,2.333-2.333V164.673a2.294,2.294,0,0,0-2.333-2.333Z" transform="translate(-123.064 -162.136)" fill="#fafafa"/>
      <path id="Path_13800" data-name="Path 13800" d="M156.887,162.277a1.965,1.965,0,0,1,.925.153,2.516,2.516,0,0,1,.925.681,2.394,2.394,0,0,1,.543,1.476c0,2.379,0,5.828.054,10.157s0,9.591.046,15.534v4.589a2.532,2.532,0,0,1-1.078,2.187,2.486,2.486,0,0,1-1.224.436H145.5l.161-.092-3.908,6.394-.153.252-.168-.237-4.52-6.394.168.084H125.223a2.516,2.516,0,0,1-1.7-.971,2.715,2.715,0,0,1-.528-1.843V164.465a2.493,2.493,0,0,1,1.843-2.294,6.072,6.072,0,0,1,1.468-.084h9.3l15.541.061h5.323a3.4,3.4,0,0,1,.375,0h-5.7l-15.541.069h-9.262a6.3,6.3,0,0,0-1.384.084,2.149,2.149,0,0,0-1.591,1.989v30.218a2.348,2.348,0,0,0,.444,1.606,2.141,2.141,0,0,0,1.43.811c1.185.038,2.47,0,3.709,0h8.2l.061.084,4.5,6.394H141.4l3.916-6.386.054-.092h.107l10.409.275H157.1a2.218,2.218,0,0,0,1.048-.375,2.18,2.18,0,0,0,.941-1.9q0-2.363,0-4.589c0-5.943,0-11.182.046-15.534s0-7.771.054-10.157a2.294,2.294,0,0,0-1.377-2.1,3.059,3.059,0,0,0-.925-.268Z" transform="translate(-122.988 -162.074)" fill="#263238"/>
      <path id="Path_13801" data-name="Path 13801" d="M149.064,188.1H138.226v-.061c-.061-.405-.122-.834-.184-1.27-.512-3.709-.971-7.021-1.27-9.178l.046.046h.031c.314,2.164.765,5.476,1.323,9.178.061.428.122.864.176,1.27l-.069-.069h10.562a1.209,1.209,0,0,1,.222.084Z" transform="translate(-125.59 -165.723)" fill="#263238"/>
      <path id="Path_13802" data-name="Path 13802" d="M138.168,188.3a.13.13,0,0,1-.115-.115l-1.438-10.363h-2.424c-.214,0-.314,0-.321-.145s.107-.153.321-.161h2.623a.138.138,0,0,1,.138.122l1.484,10.31,10.371.046c.252,0,.344,0,.352.145h0c0,.138-.1.145-.352.153H138.184Z" transform="translate(-125.547 -165.706)" fill="#263238"/>
      <path id="Path_13803" data-name="Path 13803" d="M139.19,186.429h3.12l7.939-.038-.069.061c.237-1.338.489-2.784.765-4.283.138-.765.268-1.53.4-2.249l.069.084H142.05l9.361-.038h.084v.084c-.122.765-.26,1.476-.39,2.249-.268,1.53-.52,2.945-.765,4.283v.054H139.221Z" transform="translate(-126.798 -166.271)" fill="#263238"/>
      <path id="Path_13804" data-name="Path 13804" d="M138.864,186.534a.145.145,0,0,1-.145-.145c0-.13.138-.138.184-.145h3.059l7.771-.038,1.071-6.119-12.826-.046c-.069,0-.206,0-.206-.145s.138-.138.2-.145h13.17a.13.13,0,0,1,.107.054.138.138,0,0,1,0,.107l-1.17,6.669a.138.138,0,0,1-.138.115l-11.09-.046Z" transform="translate(-126.464 -166.231)" fill="#263238"/>
      <path id="Path_13805" data-name="Path 13805" d="M142.42,194.8a2.158,2.158,0,0,1-.061-.252,1.124,1.124,0,0,0-.4-.558,1.019,1.019,0,1,0,0,1.629,1.109,1.109,0,0,0,.4-.558c.046-.161.046-.26.061-.26a.765.765,0,0,1,0,.275,1.086,1.086,0,0,1-.39.627,1.17,1.17,0,1,1,.39-1.17.711.711,0,0,1,0,.268Z" transform="translate(-127.015 -169.496)" fill="#263238"/>
      <path id="Path_13806" data-name="Path 13806" d="M141.131,196.038a1.041,1.041,0,0,1-.245-.061,1.285,1.285,0,0,1-.857-1.2,1.3,1.3,0,0,1,.857-1.208,1.262,1.262,0,0,1,1.2.2,1.277,1.277,0,0,1,.444.711.887.887,0,0,1,0,.291.941.941,0,0,1,0,.3,1.239,1.239,0,0,1-1.4.971Zm.329-2.134a.879.879,0,0,0-.436.054.875.875,0,0,0,0,1.637.91.91,0,0,0,.834-.115.971.971,0,0,0,.344-.489.3.3,0,0,1,.046-.184v-.069l-.046-.184a.9.9,0,0,0-.344-.482.857.857,0,0,0-.4-.191Z" transform="translate(-126.996 -169.463)" fill="#263238"/>
      <path id="Path_13807" data-name="Path 13807" d="M151.5,194.8a.72.72,0,0,0-.069-.252,1.024,1.024,0,1,0-.39,1.071,1.109,1.109,0,0,0,.4-.558c.046-.161.046-.26.061-.26a.765.765,0,0,1,0,.268,1.048,1.048,0,0,1-.39.627,1.117,1.117,0,0,1-1.071.184,1.14,1.14,0,1,1,1.071-1.973,1.109,1.109,0,0,1,.39.627.712.712,0,0,1,0,.268Z" transform="translate(-129.168 -169.501)" fill="#263238"/>
      <path id="Path_13808" data-name="Path 13808" d="M150.193,196.028a1.635,1.635,0,0,1-.245-.061,1.277,1.277,0,0,1,0-2.409,1.247,1.247,0,0,1,1.2.2,1.2,1.2,0,0,1,.436.7.765.765,0,0,1,0,.3.948.948,0,0,1,0,.3,1.254,1.254,0,0,1-1.4.971Zm.359-2.149a.971.971,0,0,0-.436.046.88.88,0,1,0,.834,1.53.91.91,0,0,0,.344-.489,1.585,1.585,0,0,0,.046-.184v-.061a.333.333,0,0,0-.046-.184.91.91,0,0,0-.344-.489A.948.948,0,0,0,150.552,193.879Z" transform="translate(-129.128 -169.46)" fill="#263238"/>
      <path id="Path_13809" data-name="Path 13809" d="M158.11,180.22a3.61,3.61,0,1,1-3.61-3.61A3.61,3.61,0,0,1,158.11,180.22Z" transform="translate(-129.55 -165.492)" fill="#fd8a00"/>
      <path id="Path_13810" data-name="Path 13810" d="M152.91,180.943l.535-.543,1.048.925,2.042-1.966.5.535-2.623,2.47Z" transform="translate(-130.025 -166.139)" fill="#fff"/>
    </g>
  </g>
</svg>
