<svg xmlns="http://www.w3.org/2000/svg" width="348" height="340.646" viewBox="0 0 348 340.646">
  <g id="Online_wishes_list-cuate" data-name="Online wishes list-cuate" transform="translate(-37.92 -55.14)">
    <g id="freepik--background-complete--inject-131" transform="translate(40.306 55.663)">
      <path id="Path_13435" data-name="Path 13435" d="M77.656,344.92l-10.721.221-5.442.1c-1.822,0-3.653,0-5.475.041h-.36v-.36l-.049-9.144v-.417h.409l10.819.049c3.612,0,7.215.09,10.819.131h.229v.221c0,1.544-.074,3.089-.106,4.617Zm0,0-.114-4.625c0-1.52-.09-3.023-.106-4.519l.221.221c-3.6.041-7.207.131-10.819.131l-10.819.057.409-.409v9.144l-.368-.368c1.781,0,3.563,0,5.352.041l5.377.1Z" transform="translate(-43.541 -106.906)" fill="#ebebeb"/>
      <path id="Path_13436" data-name="Path 13436" d="M62.886,359.034l-10.721.221-5.442.1c-1.822,0-3.653,0-5.475.041h-.36v-.36l-.049-9.127v-.417h.409l10.819.049c3.6,0,7.215.09,10.819.131h.229v.237c0,1.544-.065,3.089-.106,4.617Zm0,0-.114-4.625c-.041-1.52-.09-3.023-.106-4.519l.221.221c-3.6.041-7.215.131-10.819.131l-10.819.049.409-.4-.041,9.144-.368-.368H46.6l5.377.1Z" transform="translate(-40.84 -109.49)" fill="#ebebeb"/>
      <path id="Path_13437" data-name="Path 13437" d="M165.846,200.352l-10.721.229-5.442.09c-1.822.041-3.653,0-5.475.049h-.36v-.368l-.049-9.144V190.8h.409l10.819.057c3.612,0,7.215.09,10.819.131h.229v.221c0,1.553-.074,3.1-.106,4.625Zm0,0-.114-4.617c0-1.52-.09-3.032-.106-4.527l.221.229c-3.6,0-7.207.123-10.819.131l-10.819.049.409-.409-.041,9.144-.368-.36h5.352l5.377.09Z" transform="translate(-59.668 -80.471)" fill="#ebebeb"/>
      <path id="Path_13438" data-name="Path 13438" d="M151.063,214.462l-10.721.229-5.442.09c-1.822,0-3.653,0-5.475.049h-.36v-.368L129,205.319v-.409h.409l10.819.057c3.6,0,7.215.09,10.819.131h.229v.221c0,1.553-.065,3.1-.106,4.625Zm0,0-.114-4.617c-.041-1.52-.09-3.032-.106-4.527l.221.229c-3.6.041-7.215.123-10.819.131l-10.819.049.409-.409-.016,9.144-.368-.36c1.781,0,3.563,0,5.352.041l5.377.09Z" transform="translate(-56.962 -83.051)" fill="#ebebeb"/>
      <path id="Path_13439" data-name="Path 13439" d="M136.366,200.352l-10.729.229-5.442.09c-1.814.041-3.644,0-5.467.049h-.368v-.368l-.041-9.144V190.8h.409l10.819.057c3.6,0,7.207.09,10.819.131h.221v.221c0,1.553-.065,3.1-.106,4.625Zm0,0-.114-4.617c0-1.52-.1-3.032-.106-4.527l.221.229c-3.612,0-7.215.123-10.819.131l-10.819.049.409-.409-.049,9.144-.36-.36h5.344l5.377.09Z" transform="translate(-54.277 -80.471)" fill="#ebebeb"/>
      <path id="Path_13440" data-name="Path 13440" d="M453.726,359.034,443,359.255l-5.442.1c-1.814,0-3.644,0-5.467.041h-.368v-.36l-.041-9.127v-.417h.409l10.819.049c3.6,0,7.215.09,10.819.131h.221v.237c0,1.544-.065,3.089-.106,4.617Zm0,0-.114-4.625c0-1.52-.1-3.023-.106-4.519l.221.221c-3.6.041-7.215.131-10.819.131l-10.819.049.409-.4-.049,9.144-.36-.368h5.344l5.377.1Z" transform="translate(-112.312 -109.49)" fill="#ebebeb"/>
      <path id="Path_13441" data-name="Path 13441" d="M438.973,65.349l-10.729.221-5.442.1c-1.814,0-3.644,0-5.467.041H417V55.78h.417l10.819.049c3.6,0,7.207.09,10.819.131h.221v.221c0,1.553-.074,3.089-.106,4.617Zm0,0-.114-4.625c-.041-1.52-.1-3.023-.114-4.519l.229.221c-3.612,0-7.215.131-10.819.131l-10.819.057.409-.409-.049,9.144-.359-.368c1.781,0,3.554,0,5.344.049l5.377.09Z" transform="translate(-109.628 -55.78)" fill="#ebebeb"/>
      <path id="Path_13442" data-name="Path 13442" d="M453.726,79.46,443,79.681l-5.442.1c-1.814,0-3.644,0-5.467.041h-.368v-.36l-.041-9.144V69.9h.409l10.819.049c3.6,0,7.215.09,10.819.131h.221V70.3c0,1.544-.065,3.089-.106,4.617Zm0,0-.114-4.625c0-1.52-.1-3.023-.106-4.519l.221.221c-3.6,0-7.215.131-10.819.131l-10.819.057.409-.409-.049,9.144-.36-.368c1.781,0,3.563,0,5.344.049l5.377.09Z" transform="translate(-112.312 -58.362)" fill="#ebebeb"/>
      <path id="Path_13443" data-name="Path 13443" d="M77.656,65.35l-10.721.221-5.442.1c-1.822,0-3.653,0-5.475.041h-.36v-.368l-.049-9.136V55.79h.409l10.819.049c3.612,0,7.215.09,10.819.131h.229v.221c0,1.553-.074,3.089-.106,4.617Zm0,0-.114-4.625c0-1.52-.09-3.023-.106-4.519l.221.221c-3.6,0-7.207.131-10.819.131l-10.819.057.409-.409V65.35l-.409-.4c1.781,0,3.563,0,5.352.049l5.377.09Z" transform="translate(-43.541 -55.782)" fill="#ebebeb"/>
      <rect id="Rectangle_611" data-name="Rectangle 611" width="60.37" height="60.37" transform="translate(265.315 47.271)" fill="#ebebeb"/>
      <path id="Path_13444" data-name="Path 13444" d="M400.742,125.49a2.035,2.035,0,0,1,2.059,2.051v1.046a17.348,17.348,0,0,1,7.4,2.631,2.549,2.549,0,0,1,1.43,2.288,2.623,2.623,0,0,1-2.672,2.623,2.754,2.754,0,0,1-1.422-.417,17.162,17.162,0,0,0-4.9-2.1v9.16c7.256,1.814,10.361,4.723,10.361,9.806,0,5.254-4.086,8.735-10.165,9.307v2.868a2.035,2.035,0,0,1-2.059,2.051,2.076,2.076,0,0,1-2.1-2.051V161.8a20.665,20.665,0,0,1-9.806-3.726,2.637,2.637,0,1,1,2.909-4.388,16.931,16.931,0,0,0,7.068,3.195v-9.389c-6.97-1.814-10.214-4.437-10.214-9.806,0-5.107,4.086-8.637,10.018-9.119v-1.021A2.075,2.075,0,0,1,400.742,125.49Zm-1.9,16.269v-8.441c-3.056.286-4.584,1.9-4.584,4S395.161,140.566,398.838,141.759Zm3.767,6.635v8.686c3.056-.327,4.723-1.855,4.723-4.151,0-2.1-1.046-3.391-4.7-4.535Z" transform="translate(-104.246 -68.528)" fill="#fff"/>
      <rect id="Rectangle_612" data-name="Rectangle 612" width="60.37" height="60.37" transform="translate(16.138 6.259)" fill="#ebebeb"/>
      <path id="Path_13445" data-name="Path 13445" d="M106.079,108.183H77.921L71,83.179h39.6l1.43-5.769h4.486v1.634H113.3Zm-26.908-1.634H104.8l5.426-21.777H73.182Z" transform="translate(-46.355 -59.735)" fill="#fff"/>
      <path id="Path_13446" data-name="Path 13446" d="M83.984,119.649l-1.5-.637L85,113.03h19.162l2.076,6.039-1.544.531-1.7-4.935H86.084Z" transform="translate(-48.455 -66.249)" fill="#fff"/>
      <rect id="Rectangle_613" data-name="Rectangle 613" width="35.954" height="1.634" transform="translate(27.521 29.123)" fill="#fff"/>
      <rect id="Rectangle_614" data-name="Rectangle 614" width="32.522" height="1.634" transform="translate(29.009 35.321) rotate(-0.25)" fill="#fff"/>
      <rect id="Rectangle_615" data-name="Rectangle 615" width="29.474" height="1.634" transform="translate(30.732 41.527)" fill="#fff"/>
      <rect id="Rectangle_616" data-name="Rectangle 616" width="1.634" height="23.264" transform="translate(45.032 24.367)" fill="#fff"/>
      <rect id="Rectangle_617" data-name="Rectangle 617" width="1.634" height="23.345" transform="translate(38.688 24.436) rotate(-4.58)" fill="#fff"/>
      <rect id="Rectangle_618" data-name="Rectangle 618" width="1.634" height="23.656" transform="translate(31.666 24.519) rotate(-10.42)" fill="#fff"/>
      <rect id="Rectangle_619" data-name="Rectangle 619" width="23.345" height="1.634" transform="matrix(0.08, -0.997, 0.997, 0.08, 49.415, 47.576)" fill="#fff"/>
      <rect id="Rectangle_620" data-name="Rectangle 620" width="23.656" height="1.634" transform="translate(54.035 47.483) rotate(-79.59)" fill="#fff"/>
      <path id="Path_13447" data-name="Path 13447" d="M82.612,123.474a3.522,3.522,0,1,1,3.522-3.522,3.522,3.522,0,0,1-3.522,3.522Zm0-5.409a1.888,1.888,0,1,0,1.888,1.888,1.888,1.888,0,0,0-1.888-1.888Z" transform="translate(-47.835 -66.871)" fill="#fff"/>
      <path id="Path_13448" data-name="Path 13448" d="M109.722,123.474a3.522,3.522,0,1,1,3.522-3.522A3.522,3.522,0,0,1,109.722,123.474Zm0-5.409a1.888,1.888,0,1,0,1.888,1.888A1.888,1.888,0,0,0,109.722,118.064Z" transform="translate(-52.792 -66.871)" fill="#fff"/>
    </g>
    <g id="freepik--Shadow--inject-131" transform="translate(222.575 382.238)">
      <ellipse id="Ellipse_288" data-name="Ellipse 288" cx="81.672" cy="6.774" rx="81.672" ry="6.774" fill="#ebebeb"/>
    </g>
    <g id="freepik--Plant--inject-131" transform="translate(37.92 190.906)">
      <path id="Path_13449" data-name="Path 13449" d="M77.908,265.121S58.738,262.433,63.2,239.3C63.216,239.3,84.633,244.1,77.908,265.121Z" transform="translate(-42.42 -224.583)" fill="#fd8a00"/>
      <path id="Path_13450" data-name="Path 13450" d="M77.908,265.121S58.738,262.433,63.2,239.3C63.216,239.3,84.633,244.1,77.908,265.121Z" transform="translate(-42.42 -224.583)" fill="#89c896"/>
      <path id="Path_13451" data-name="Path 13451" d="M77.841,261.381a36.473,36.473,0,0,0-1.307-3.448l-.049-.441-.074-.956c-.057-.686-.1-1.381-.139-2.067-.082-1.381-.172-2.77-.2-4.151a.057.057,0,0,0-.114,0v4.151c0,.695.074,1.389.114,2.076V257a40.963,40.963,0,0,0-3.841-6.537c-.662-.915-1.348-1.806-2.092-2.656s-1.577-1.708-2.345-2.574c-.049-.057-.139,0-.082.09a34.452,34.452,0,0,1,3.693,4.9c.58.882,1.128,1.781,1.634,2.7l-.172-.074-.686-.278-1.561-.588-3.089-1.144c-.057,0-.1.082,0,.106,1.021.4,2.026.817,3.032,1.267l1.487.637.752.311a1.871,1.871,0,0,0,.507.18c.384.695.768,1.389,1.119,2.1a49.773,49.773,0,0,1,2.345,5.524l.139.392a11.113,11.113,0,0,0-1.577-.752l-1.977-.907c-1.348-.613-2.68-1.242-3.971-1.969-.065-.041-.123.065-.057.1,1.316.727,2.607,1.487,3.93,2.206.662.36,1.324.7,1.994,1.03a6.3,6.3,0,0,0,1.806.727,22.439,22.439,0,0,1,1.25,5.434c.212,2.615.2,5.254.253,7.877,0,.041.065.041.074,0,.188-2.378.294-4.78.3-7.166A20.69,20.69,0,0,0,77.841,261.381Z" transform="translate(-43.325 -225.665)" fill="#263238"/>
      <path id="Path_13452" data-name="Path 13452" d="M76.5,248.33a22.659,22.659,0,0,0-.188,4.086h.057c.074-1.356.09-2.7.245-4.086C76.626,248.281,76.511,248.256,76.5,248.33Z" transform="translate(-44.937 -226.226)" fill="#263238"/>
      <path id="Path_13453" data-name="Path 13453" d="M69.272,249.477a14.311,14.311,0,0,1-2.451-1.209c-.065-.041-.123.065-.057.106a9.38,9.38,0,0,0,2.451,1.185.05.05,0,0,0,.057-.082Z" transform="translate(-43.189 -226.222)" fill="#263238"/>
      <path id="Path_13454" data-name="Path 13454" d="M81.708,304.905c0-2.125-.049-4.241-.074-6.357,0-7.035-.1-14.063-.229-21.1q-.147-8.376-.392-16.751a.073.073,0,0,0,0-.065v-4.576c0-.041-.049-.057-.1-.057s-.09,0-.09.057v4.584s-.049.041-.049.065c-.278,9.936-.531,19.873-.588,29.817v6.063Q80,306.311,80,316.026v3.089c0,5.932.057,11.857.057,17.789,0,.319.36.474.735.49s.842-.155.842-.5c0-6.537.049-13.074.049-19.611C81.724,313.142,81.74,309.024,81.708,304.905Z" transform="translate(-45.615 -227.637)" fill="#263238"/>
      <path id="Path_13455" data-name="Path 13455" d="M66.013,307.146s-9.217-6.831-17.977-2.214S37.92,327.337,37.92,327.337s12.845,1.839,20.935-5.867C66.659,314.026,66.013,307.146,66.013,307.146Z" transform="translate(-37.92 -236.292)" fill="#fd8a00"/>
      <path id="Path_13456" data-name="Path 13456" d="M66.013,307.146s-9.217-6.831-17.977-2.214S37.92,327.337,37.92,327.337s12.845,1.839,20.935-5.867C66.659,314.026,66.013,307.146,66.013,307.146Z" transform="translate(-37.92 -236.292)" fill="#93dba1"/>
      <path id="Path_13457" data-name="Path 13457" d="M69.86,308.148a10.957,10.957,0,0,0-5.336-.695,6.594,6.594,0,0,0-1.128-.114l-1.3-.1-2.688-.188c-1.822-.139-3.644-.245-5.458-.433a.057.057,0,0,0,0,.114c1.8.229,3.587.49,5.393.67.923.09,1.847.188,2.778.253l.678.065-.817.2a21.734,21.734,0,0,0-4.176,1.7c-.727.131-1.446.335-2.157.5-1.144.27-2.28.564-3.407.817-2.239.588-4.453,1.25-6.676,1.9a.057.057,0,1,0,0,.114c2.223-.547,4.453-1.046,6.676-1.577,1.079-.253,2.157-.507,3.269-.776l.817-.2a27.039,27.039,0,0,0-6.537,5.72,35.8,35.8,0,0,0-4.551,7.183c0,.065.057.131.1.065a35.137,35.137,0,0,1,5.507-7.232,1.274,1.274,0,0,1-.114.368l-.515,1.634c-.343,1.087-.686,2.174-1.013,3.269a.057.057,0,1,0,.114,0c.392-1.054.76-2.116,1.128-3.17.188-.523.368-1.038.547-1.561.1-.261.188-.531.278-.817,0-.082.065-.163.09-.245a34.039,34.039,0,0,1,3.269-2.786,24.82,24.82,0,0,1,4.9-2.8l-.1.474-.286,1.332q-.27,1.307-.515,2.623c-.351,1.781-.564,3.587-.9,5.377a.057.057,0,0,0,.114,0c.409-1.79.948-3.555,1.348-5.36.2-.9.4-1.8.588-2.7.082-.417.172-.817.253-1.267a6.655,6.655,0,0,0,.131-.7c.163-.065.327-.147.5-.2a14.523,14.523,0,0,1,7.673-1.054,7.534,7.534,0,0,1,5.548,4.445c.082.2.4.074.351-.131A7.109,7.109,0,0,0,69.86,308.148Z" transform="translate(-39.259 -236.894)" fill="#263238"/>
      <path id="Path_13458" data-name="Path 13458" d="M57.773,317.771c-.253,1.168-.515,2.337-.817,3.505a27.194,27.194,0,0,0-.646,3.407c0,.049.065.049.082,0a25.756,25.756,0,0,0,.776-3.432c.229-1.152.458-2.3.678-3.456C57.9,317.73,57.789,317.7,57.773,317.771Z" transform="translate(-41.283 -238.926)" fill="#263238"/>
      <path id="Path_13459" data-name="Path 13459" d="M46.391,321.419c-1.168.6-2.3,1.267-3.538,1.757-.074,0,0,.147.049.106a37.771,37.771,0,0,0,3.522-1.822S46.424,321.4,46.391,321.419Z" transform="translate(-38.816 -239.6)" fill="#263238"/>
      <path id="Path_13460" data-name="Path 13460" d="M70.205,287.081s-11.268.719-16.514-6.709-4.086-18.042-4.086-18.042,11.832,1.438,16.531,6.774S70.205,287.081,70.205,287.081Z" transform="translate(-40.037 -228.795)" fill="#93dba1"/>
      <path id="Path_13461" data-name="Path 13461" d="M76.478,299.141c-.392-1.209-.874-2.4-1.332-3.579s-.907-2.263-1.4-3.375a69.458,69.458,0,0,0-3.383-6.643c-.817-1.365-1.634-2.7-2.525-4a5.113,5.113,0,0,0-.082-.6c-.057-.343-.106-.695-.163-1.046-.106-.711-.237-1.422-.351-2.133-.261-1.561-.58-3.105-.817-4.658,0-.074-.131-.074-.123,0,.229,1.536.384,3.081.6,4.625.106.752.2,1.512.319,2.263a5.665,5.665,0,0,0,.131.817,80.538,80.538,0,0,0-5.581-7.183c-.27-.319-.547-.621-.817-.923a.854.854,0,0,0-.1-.262c-.033-.09-.172-.425-.245-.646-.172-.441-.327-.891-.49-1.34a25.946,25.946,0,0,1-.817-2.68.057.057,0,1,0-.106,0c.221.923.466,1.847.735,2.762.131.441.278.874.433,1.307l.074.221c-1.438-1.569-2.942-3.081-4.453-4.576-.057-.057-.139,0-.082.082a80.488,80.488,0,0,1,7.983,9.806,7.791,7.791,0,0,0-.817-.212c-.866-.172-1.749-.294-2.623-.4-1.83-.237-3.661-.466-5.491-.752-.074,0-.106.1,0,.106,1.749.351,3.481.744,5.213,1.136.817.188,1.634.351,2.451.515a14.792,14.792,0,0,1,1.977.564c.188.261.376.515.556.776.817,1.209,1.634,2.451,2.394,3.669l-1.152-.221c-.866-.172-1.74-.327-2.615-.474-1.716-.278-3.44-.58-5.14-.964a.057.057,0,0,0,0,.114c1.724.4,3.432.874,5.14,1.332.817.212,1.634.417,2.451.6l1.25.27a3.1,3.1,0,0,0,.507.082c1.634,2.672,3.195,5.4,4.617,8.171.629,1.226,1.234,2.451,1.822,3.71s1.119,2.59,1.634,3.89C76.159,299.525,76.568,299.418,76.478,299.141Z" transform="translate(-41.023 -229.733)" fill="#263238"/>
      <path id="Path_13462" data-name="Path 13462" d="M67.014,273.812c-.212-1.079-.441-2.149-.678-3.219,0-.074-.123,0-.106,0,.212,1.062.417,2.116.6,3.179a32.177,32.177,0,0,0,.637,3.154h0A21.436,21.436,0,0,0,67.014,273.812Z" transform="translate(-43.097 -230.3)" fill="#263238"/>
      <path id="Path_13463" data-name="Path 13463" d="M58.375,273.842a17.177,17.177,0,0,0-1.634-.686l-.817-.335-.441-.172a1.912,1.912,0,0,1-.474-.212c-.082-.057-.139.09-.057.1a1.943,1.943,0,0,1,.482.2l.433.188.817.368a15.318,15.318,0,0,0,1.634.654C58.4,273.973,58.44,273.867,58.375,273.842Z" transform="translate(-41.027 -230.641)" fill="#263238"/>
      <path id="Path_13464" data-name="Path 13464" d="M89,278.434s6.815-12.739,17.16-14.708,16.719,8.7,16.719,8.7-7.567,9.659-17.086,11.35S89,278.434,89,278.434Z" transform="translate(-47.261 -229.006)" fill="#93dba1"/>
      <path id="Path_13465" data-name="Path 13465" d="M111.513,269.913a28.012,28.012,0,0,0-8.171.1l.466-.253,2.3-1.185c1.634-.817,3.2-1.708,4.9-2.378.082,0,0-.139-.049-.106-1.634.76-3.269,1.389-4.9,2.141-.817.368-1.634.76-2.451,1.185-.507.27-1.079.523-1.577.817a28.673,28.673,0,0,0-6.594,2.19l1.3-1.414c.964-1.062,1.912-2.165,2.974-3.13a.058.058,0,1,0-.082-.082c-1.087.981-2.231,1.9-3.269,2.917-.515.5-1,1.013-1.479,1.544-.237.27-.474.539-.695.817A27.284,27.284,0,0,0,80.29,291.869c0,.074.09.114.106,0a31.419,31.419,0,0,1,7.624-12.9,30.046,30.046,0,0,1,13.891-8.041,30.571,30.571,0,0,1,9.585-.825.106.106,0,0,0,.016-.188Z" transform="translate(-45.668 -229.481)" fill="#263238"/>
      <path id="Path_13466" data-name="Path 13466" d="M123.005,274.12s-7.567,9.667-17.086,11.35c-7.264,1.283-13.238-2.5-15.656-4.363l-.523-.866s4.9-4.135,14.194-6.537S123.005,274.12,123.005,274.12Z" transform="translate(-47.396 -230.697)" fill="#89c896"/>
      <path id="Path_13467" data-name="Path 13467" d="M110.154,265.208a26.721,26.721,0,0,0-2.3,1.52,14.6,14.6,0,0,0-1.994,1.83.058.058,0,1,0,.082.082c.695-.6,1.381-1.193,2.1-1.757a21.751,21.751,0,0,1,2.182-1.577C110.285,265.265,110.22,265.167,110.154,265.208Z" transform="translate(-50.34 -229.319)" fill="#263238"/>
      <path id="Path_13468" data-name="Path 13468" d="M117.558,267.849c-.384.155-.817.294-1.16.458l-1.152.482a.065.065,0,0,0,0,.131l1.152-.466,1.152-.5C117.664,267.972,117.623,267.816,117.558,267.849Z" transform="translate(-52.048 -229.803)" fill="#263238"/>
      <path id="Path_13469" data-name="Path 13469" d="M87.28,300.883s1.822,12.633,11.325,17.054,21.082,0,21.082,0S115.136,290.6,87.28,300.883Z" transform="translate(-46.946 -235.422)" fill="#fd8a00"/>
      <path id="Path_13470" data-name="Path 13470" d="M87.28,300.883s1.822,12.633,11.325,17.054,21.082,0,21.082,0S115.136,290.6,87.28,300.883Z" transform="translate(-46.946 -235.422)" fill="#89c896"/>
      <path id="Path_13471" data-name="Path 13471" d="M111.9,310.062c-.874-.1-1.749-.253-2.615-.409l-1.275-.237-.67-.139c-.253-.237-.507-.482-.768-.711a38.1,38.1,0,0,0-5.81-4.208,31.8,31.8,0,0,0-3.514-1.822h.18l3.121.131c2.092.1,4.176.147,6.259.278.074,0,.065-.114,0-.114-2.092-.139-4.167-.376-6.259-.556l-3.04-.27-1.561-.131-.4-.049c-.547-.2-1.087-.392-1.634-.564a14.9,14.9,0,0,0-8.049-.441c-2.386.613-4.772,2.182-5.393,4.7a.083.083,0,1,0,.155.057c.891-2.108,3.228-3.162,5.336-3.6a12.65,12.65,0,0,1,4.3-.082,10.566,10.566,0,0,0,.482,1.912c.261.882.523,1.773.817,2.664.539,1.773,1.128,3.53,1.634,5.311a.057.057,0,1,0,.106,0c-.441-1.773-.817-3.563-1.234-5.344-.212-.866-.433-1.741-.646-2.615a15.344,15.344,0,0,0-.482-1.79,23.023,23.023,0,0,1,2.451.58,35.41,35.41,0,0,1,4.306,1.577c.139.9.335,1.79.547,2.68.253,1.111.547,2.223.9,3.309a.057.057,0,0,0,.106,0v-.2h0c-.212-1.038-.441-2.067-.662-3.1-.18-.817-.335-1.634-.515-2.5,1.177.531,2.337,1.111,3.456,1.757a5.552,5.552,0,0,0,.123.752c.074.433.147.866.229,1.3.18.972.376,1.945.6,2.909a45.581,45.581,0,0,0,1.634,5.491.082.082,0,0,0,0,.074l.057.065c0,.049.106,0,.1-.057-.441-1.879-.94-3.734-1.356-5.614-.2-.94-.409-1.871-.6-2.819-.1-.466-.18-.94-.27-1.414a3.988,3.988,0,0,0-.065-.417,36.774,36.774,0,0,1,3.693,2.451,39.936,39.936,0,0,1,5.663,5.164.09.09,0,0,0,.139-.114,34.4,34.4,0,0,0-2.263-2.762c-.474-.507-.972-1.005-1.479-1.487h.163l1.332.2c.883.114,1.765.2,2.648.3C111.953,310.185,111.953,310.07,111.9,310.062Z" transform="translate(-45.7 -235.768)" fill="#263238"/>
      <path id="Path_13472" data-name="Path 13472" d="M110.583,316.707h0a.662.662,0,0,0-.057-.327,1.494,1.494,0,0,1-.114-.409h0c-.2-.817-.36-1.691-.515-2.549,0-.057-.106-.041-.106,0a10.45,10.45,0,0,0,.727,3.269h.065Z" transform="translate(-51.063 -238.131)" fill="#263238"/>
      <path id="Path_13473" data-name="Path 13473" d="M100.629,315.632a.057.057,0,0,0-.057-.049c-.27-1.119-.523-2.239-.752-3.367-.123-.588-.245-1.185-.36-1.773-.065-.327-.123-.646-.18-.964a2.729,2.729,0,0,0-.2-.817.057.057,0,0,0-.106,0,5.459,5.459,0,0,0,.237,1.691c.114.621.237,1.234.376,1.847.27,1.242.588,2.451.94,3.718a.065.065,0,0,0,.123,0A1.68,1.68,0,0,1,100.629,315.632Z" transform="translate(-49.084 -237.261)" fill="#263238"/>
      <path id="Path_13474" data-name="Path 13474" d="M116.69,307.6c-1.732-.237-3.473-.49-5.205-.7-.074,0-.106.106,0,.114,1.732.253,3.473.474,5.213.7C116.739,307.725,116.8,307.611,116.69,307.6Z" transform="translate(-51.36 -236.945)" fill="#263238"/>
      <path id="Path_13475" data-name="Path 13475" d="M81.214,257.121S75.4,231.61,102.8,221.29C102.8,221.29,110.361,254.866,81.214,257.121Z" transform="translate(-45.743 -221.29)" fill="#93dba1"/>
      <path id="Path_13476" data-name="Path 13476" d="M87.14,244.678l.294-.18c.515-.278,1.03-.572,1.544-.866l3.179-1.757c2.092-1.168,4.159-2.386,6.259-3.53a.057.057,0,1,0-.057-.1c-2.108,1.144-4.257,2.214-6.382,3.342l-3.138,1.634-1.283.678c.915-1.732,1.888-3.432,2.966-5.074,1.43-2.182,3-4.265,4.633-6.3a.1.1,0,0,0-.139-.131,43.592,43.592,0,0,0-6.333,7.771v-.262c0-.637.049-1.275.057-1.912,0-1.242-.041-2.451,0-3.734,0-.074-.114-.065-.114,0-.049,1.226-.2,2.451-.27,3.669,0,.613-.057,1.226-.074,1.83a7.8,7.8,0,0,0,0,1.07c-.564.9-1.1,1.814-1.634,2.737A46.96,46.96,0,0,0,84.2,248.7c0-.629-.065-1.267-.1-1.9-.09-1.4-.253-2.786-.319-4.184a.057.057,0,1,0-.114,0V246.8a16.354,16.354,0,0,0,.09,2.092l.049.776a45.564,45.564,0,0,0-2.035,7.036,74.053,74.053,0,0,0-1.021,7.7h0a42.05,42.05,0,0,1,1.454-6.864c.343-1.209.695-2.4,1.087-3.6,1.136-.531,2.231-1.2,3.334-1.814s2.288-1.25,3.432-1.879c2.288-1.258,4.568-2.533,6.929-3.636.074,0,0-.131-.057-.106-2.394,1.087-4.8,2.116-7.142,3.269q-1.757.883-3.456,1.855c-.956.539-1.928,1.07-2.844,1.691.27-.817.547-1.585.817-2.37q1.26-3.207,2.835-6.276Z" transform="translate(-45.752 -223.318)" fill="#263238"/>
      <path id="Path_13477" data-name="Path 13477" d="M85.714,240.288c0-.074-.123-.074-.114,0,.1,1.454.147,2.909.3,4.363a.065.065,0,1,0,.123,0C85.976,243.188,85.821,241.742,85.714,240.288Z" transform="translate(-46.639 -224.754)" fill="#263238"/>
      <path id="Path_13478" data-name="Path 13478" d="M100.661,246.259c-1.716.686-3.448,1.348-5.156,2.059-.049,0,0,.1,0,.082,1.732-.654,3.44-1.356,5.164-2.035C100.759,246.34,100.727,246.226,100.661,246.259Z" transform="translate(-48.447 -225.855)" fill="#263238"/>
      <path id="Path_13479" data-name="Path 13479" d="M103.9,231.859a45.71,45.71,0,0,0-4.9,2.615c-.082.049,0,.172.082.123,1.585-.923,3.2-1.814,4.854-2.639C104.026,231.924,103.969,231.826,103.9,231.859Z" transform="translate(-49.082 -223.221)" fill="#263238"/>
      <rect id="Rectangle_621" data-name="Rectangle 621" width="39.516" height="41.657" transform="translate(14.888 90.979)" fill="#455a64"/>
      <rect id="Rectangle_622" data-name="Rectangle 622" width="2.018" height="71.352" transform="translate(12.167 105.721)" fill="#263238"/>
      <rect id="Rectangle_623" data-name="Rectangle 623" width="2.018" height="71.352" transform="translate(54.887 105.721)" fill="#263238"/>
      <rect id="Rectangle_624" data-name="Rectangle 624" width="2.018" height="71.352" transform="translate(34.606 105.721)" fill="#263238"/>
      <rect id="Rectangle_625" data-name="Rectangle 625" width="42.728" height="5.769" transform="translate(13.172 129.965)" fill="#263238"/>
    </g>
    <g id="freepik--Floor--inject-131" transform="translate(37.928 367.628)">
      <path id="Path_13480" data-name="Path 13480" d="M37.93,437.969l43.316-.2,43.324-.074,86.649-.139,86.649.139,43.324.074,43.316.2-43.316.2-43.324.065-86.649.139-86.649-.139-43.324-.065Z" transform="translate(-37.93 -437.56)" fill="#263238"/>
    </g>
    <g id="freepik--Device--inject-131" transform="translate(128.163 55.14)">
      <path id="Path_13481" data-name="Path 13481" d="M300.477,55.14H162.333A14.1,14.1,0,0,0,148.36,69.374V353.736a14.112,14.112,0,0,0,13.973,14.251H300.477a14.128,14.128,0,0,0,13.989-14.234V69.391A14.12,14.12,0,0,0,300.477,55.14Zm5.246,289.812c0,7.485-5.605,13.54-12.518,13.54H169.622c-6.929,0-12.535-6.055-12.535-13.54V80.152c0-15.248,5.606-15.991,12.535-15.991h24.759c1.438,0,2.615,1.634,2.615,3.661V68.7c0,4.748,2.6,4.764,5.785,4.764h57.232c3.219,0,5.8,0,5.8-4.764v-.874c0-2.026,1.16-3.661,2.623-3.661h24.751c6.913,0,12.518,2.026,12.518,15.991Z" transform="translate(-148.359 -55.14)" fill="#263238"/>
      <path id="Path_13482" data-name="Path 13482" d="M307.676,82.171v264.8c0,7.485-5.605,13.54-12.518,13.54H171.575c-6.929,0-12.535-6.055-12.535-13.54V82.171c0-15.248,5.606-15.991,12.535-15.991h24.759c1.438,0,2.615,1.634,2.615,3.661v.874c0,4.748,2.6,4.764,5.785,4.764h57.232c3.22,0,5.8,0,5.8-4.764v-.874c0-2.026,1.16-3.661,2.623-3.661h24.751C302.071,66.18,307.676,68.206,307.676,82.171Z" transform="translate(-150.312 -57.159)" fill="#fff"/>
      <path id="Path_13483" data-name="Path 13483" d="M307.669,82.171V108.72H159V82.171c0-15.248,5.606-15.991,12.535-15.991h24.759c1.438,0,2.615,1.634,2.615,3.661v.874c0,4.748,2.6,4.764,5.785,4.764h57.265c3.22,0,5.8,0,5.8-4.764v-.874c0-2.026,1.16-3.661,2.623-3.661h24.751C302.063,66.18,307.669,68.206,307.669,82.171Z" transform="translate(-150.305 -57.159)" fill="#fd8a00"/>
      <g id="freepik--u5Zjqx--inject-131" transform="translate(36.396 13.875)">
        <path id="Path_13484" data-name="Path 13484" d="M198.252,73.215l-.237.237-.139.131a3.269,3.269,0,0,0-4.609,0l-.131-.139-.237-.237h0l.3-.27a3.644,3.644,0,0,1,.7-.441,3.417,3.417,0,0,1,.923-.31,4.557,4.557,0,0,1,.466-.065h.719a3.684,3.684,0,0,1,.817.2,3.743,3.743,0,0,1,.58.27,3.661,3.661,0,0,1,.547.384l.253.229Z" transform="translate(-192.9 -72.12)" fill="#fff"/>
        <path id="Path_13485" data-name="Path 13485" d="M194.186,74.567l-.376-.376a2.7,2.7,0,0,1,1.536-.768,2.664,2.664,0,0,1,2.312.768l-.376.376a2.133,2.133,0,0,0-1.544-.637,2.165,2.165,0,0,0-1.553.637Z" transform="translate(-193.066 -72.352)" fill="#fff"/>
        <path id="Path_13486" data-name="Path 13486" d="M197.066,75.175l-.376.376a1.1,1.1,0,0,0-.817-.327,1.079,1.079,0,0,0-.817.335l-.376-.376a1.634,1.634,0,0,1,2.386-.008Z" transform="translate(-193.226 -72.585)" fill="#fff"/>
        <path id="Path_13487" data-name="Path 13487" d="M196.428,76.095a.335.335,0,0,1-.335.343.343.343,0,0,1-.343-.343.339.339,0,0,1,.678,0Z" transform="translate(-193.421 -72.786)" fill="#fff"/>
      </g>
      <path id="Path_13488" data-name="Path 13488" d="M170.9,74.119a.989.989,0,1,1,.989.989.989.989,0,0,1-.989-.989Z" transform="translate(-152.481 -58.43)" fill="#fff"/>
      <path id="Path_13489" data-name="Path 13489" d="M174.7,74.119a.989.989,0,1,1,.989.989A.989.989,0,0,1,174.7,74.119Z" transform="translate(-153.176 -58.43)" fill="#fff"/>
      <path id="Path_13490" data-name="Path 13490" d="M178.5,74.119a.989.989,0,1,1,.981.989A.989.989,0,0,1,178.5,74.119Z" transform="translate(-153.871 -58.43)" fill="#fff"/>
      <path id="Path_13491" data-name="Path 13491" d="M182.3,74.119a.989.989,0,1,1,.981.989.989.989,0,0,1-.981-.989Z" transform="translate(-154.566 -58.43)" fill="#fff"/>
      <path id="Path_13492" data-name="Path 13492" d="M186.09,74.119a.989.989,0,1,1,.989.989A.989.989,0,0,1,186.09,74.119Z" transform="translate(-155.259 -58.43)" fill="#fff"/>
      <path id="Path_13493" data-name="Path 13493" d="M325.5,76.164H317.48V72.43H325.5Zm-7.616-.409H325.1V72.839H317.9Z" transform="translate(-179.286 -58.302)" fill="#fff"/>
      <rect id="Rectangle_626" data-name="Rectangle 626" width="5.172" height="2.451" transform="translate(138.864 14.757)" fill="#fff"/>
      <rect id="Rectangle_627" data-name="Rectangle 627" width="0.711" height="1.986" transform="translate(146.218 14.986)" fill="#fff"/>
      <rect id="Rectangle_628" data-name="Rectangle 628" width="6.709" height="0.776" transform="translate(140.343 39.378)" fill="#fff"/>
      <rect id="Rectangle_629" data-name="Rectangle 629" width="6.709" height="0.776" transform="translate(140.343 41.952)" fill="#fff"/>
      <rect id="Rectangle_630" data-name="Rectangle 630" width="6.709" height="0.776" transform="translate(140.343 44.526)" fill="#fff"/>
      <circle id="Ellipse_289" data-name="Ellipse 289" cx="1.16" cy="1.16" r="1.16" transform="translate(140.727 38.601)" fill="#fff"/>
      <path id="Path_13494" data-name="Path 13494" d="M327.057,106.739a1.169,1.169,0,1,1-1.169-1.169,1.169,1.169,0,0,1,1.169,1.169Z" transform="translate(-180.61 -64.362)" fill="#fff"/>
      <circle id="Ellipse_290" data-name="Ellipse 290" cx="1.16" cy="1.16" r="1.16" transform="translate(141.798 43.757)" fill="#fff"/>
      <path id="Path_13495" data-name="Path 13495" d="M236.917,104.736l-1.634,3.906v.057h0a.083.083,0,0,1,0,.041h0a.074.074,0,0,0-.041,0h-.327a.172.172,0,0,1-.057,0h-.049V108.7h0v-.057l-.874-2.076-.883,2.076a.09.09,0,0,1,0,.057h0v.041h0a.057.057,0,0,0-.041,0h-.433a.082.082,0,0,1,0-.041h0v-.057l-1.634-3.906a.368.368,0,0,1,.2-.474.36.36,0,0,1,.482.188l1.307,3.105.866-2.059a.384.384,0,0,1,.351-.229.4.4,0,0,1,.351.229l.858,2.059,1.307-3.105a.368.368,0,0,1,.49-.188.36.36,0,0,1-.237.474Z" transform="translate(-163.456 -64.117)" fill="#fff"/>
      <path id="Path_13496" data-name="Path 13496" d="M239.39,104.538a.36.36,0,0,1,.368-.368.368.368,0,0,1,.376.368v3.955a.376.376,0,0,1-.376.368.368.368,0,0,1-.368-.368Z" transform="translate(-165.006 -64.106)" fill="#fff"/>
      <path id="Path_13497" data-name="Path 13497" d="M241.63,107.661a.36.36,0,0,1,.49-.049,2.222,2.222,0,0,0,1.283.523,1.471,1.471,0,0,0,.817-.253.6.6,0,0,0,.286-.482.384.384,0,0,0-.065-.212.638.638,0,0,0-.2-.2,2.8,2.8,0,0,0-.923-.31h0a3.71,3.71,0,0,1-.866-.261,1.438,1.438,0,0,1-.621-.523.988.988,0,0,1-.155-.547,1.234,1.234,0,0,1,.539-.981,1.953,1.953,0,0,1,1.152-.36,2.631,2.631,0,0,1,1.463.539.351.351,0,0,1-.384.58,1.92,1.92,0,0,0-1.079-.433,1.275,1.275,0,0,0-.744.229.515.515,0,0,0-.261.425.36.36,0,0,0,.049.188.727.727,0,0,0,.18.172,2.263,2.263,0,0,0,.817.294h0a4.16,4.16,0,0,1,.932.278,1.635,1.635,0,0,1,.67.564,1.079,1.079,0,0,1,.155.564,1.275,1.275,0,0,1-.572,1.038,2.076,2.076,0,0,1-1.242.384,2.893,2.893,0,0,1-1.716-.67A.368.368,0,0,1,241.63,107.661Z" transform="translate(-165.399 -64.075)" fill="#fff"/>
      <path id="Path_13498" data-name="Path 13498" d="M247.31,108.493v-3.955a.36.36,0,0,1,.368-.368.368.368,0,0,1,.376.368v1.634h1.732v-1.634a.376.376,0,0,1,.744,0v3.955a.376.376,0,0,1-.744,0v-1.634h-1.732v1.634a.376.376,0,0,1-.376.368A.368.368,0,0,1,247.31,108.493Z" transform="translate(-166.454 -64.106)" fill="#fff"/>
      <path id="Path_13499" data-name="Path 13499" d="M253.13,108.493v-3.955a.36.36,0,0,1,.368-.368.376.376,0,0,1,.376.368v3.579h1.814a.372.372,0,0,1,0,.744H253.5A.368.368,0,0,1,253.13,108.493Z" transform="translate(-167.518 -64.106)" fill="#fff"/>
      <path id="Path_13500" data-name="Path 13500" d="M257.85,104.538a.36.36,0,0,1,.368-.368.376.376,0,0,1,.376.368v3.955a.376.376,0,0,1-.376.368.36.36,0,0,1-.368-.368Z" transform="translate(-168.382 -64.106)" fill="#fff"/>
      <path id="Path_13501" data-name="Path 13501" d="M260.091,107.661a.359.359,0,0,1,.49-.049,2.2,2.2,0,0,0,1.283.523,1.422,1.422,0,0,0,.817-.253.6.6,0,0,0,.294-.482.384.384,0,0,0-.065-.212.744.744,0,0,0-.2-.2,2.8,2.8,0,0,0-.923-.311h0a3.768,3.768,0,0,1-.858-.261,1.463,1.463,0,0,1-.629-.523,1.054,1.054,0,0,1-.147-.547,1.226,1.226,0,0,1,.531-.981,1.994,1.994,0,0,1,1.16-.36,2.631,2.631,0,0,1,1.463.539.343.343,0,0,1,.09.474.335.335,0,0,1-.474.106,1.945,1.945,0,0,0-1.079-.433,1.307,1.307,0,0,0-.752.229.523.523,0,0,0-.253.425.359.359,0,0,0,.049.188.606.606,0,0,0,.18.172,2.214,2.214,0,0,0,.817.294h0a4.086,4.086,0,0,1,.923.278,1.569,1.569,0,0,1,.67.564,1.013,1.013,0,0,1,.163.564,1.283,1.283,0,0,1-.58,1.038,2.051,2.051,0,0,1-1.234.384,2.868,2.868,0,0,1-1.716-.67A.36.36,0,0,1,260.091,107.661Z" transform="translate(-168.776 -64.075)" fill="#fff"/>
      <path id="Path_13502" data-name="Path 13502" d="M268.428,104.914h-1.062v3.579a.368.368,0,0,1-.735,0v-3.579h-1.062a.376.376,0,0,1-.368-.376.359.359,0,0,1,.368-.368h2.86a.36.36,0,0,1,.368.368.376.376,0,0,1-.368.376Z" transform="translate(-169.726 -64.106)" fill="#fff"/>
      <path id="Path_13503" data-name="Path 13503" d="M176.119,106.614a8.9,8.9,0,0,1-2.451,2.451,8.9,8.9,0,0,1-2.411-2.451c-.817-1.471-.36-2.974.817-2.974,1.283,0,1.634,1.634,1.634,1.634s.335-1.634,1.634-1.634C176.479,103.64,176.92,105.144,176.119,106.614Z" transform="translate(-152.471 -64.009)" fill="#fff"/>
      <path id="Path_13504" data-name="Path 13504" d="M255.84,69.868H240.224a.964.964,0,0,1-.964-.964h0a.964.964,0,0,1,.964-.964H255.84a.964.964,0,0,1,.964.964h0A.964.964,0,0,1,255.84,69.868Z" transform="translate(-164.982 -57.481)" fill="#fff"/>
      <rect id="Rectangle_631" data-name="Rectangle 631" width="129.891" height="49.771" transform="translate(18.108 63.083)" fill="#ebebeb"/>
      <rect id="Rectangle_632" data-name="Rectangle 632" width="38.381" height="38.381" transform="translate(23.158 68.778)" fill="#fff"/>
      <path id="Path_13505" data-name="Path 13505" d="M235.589,182.613a8.817,8.817,0,0,1-2.411,2.451,8.7,8.7,0,0,1-2.411-2.451c-.817-1.471-.36-2.983.817-2.983,1.283,0,1.634,1.634,1.634,1.634s.335-1.634,1.634-1.634C235.948,179.63,236.389,181.142,235.589,182.613Z" transform="translate(-163.353 -77.905)" fill="#fd8a00"/>
      <path id="Path_13506" data-name="Path 13506" d="M320.5,179.433a4.715,4.715,0,1,1-1.381-3.342,4.723,4.723,0,0,1,1.381,3.342Z" transform="translate(-178.11 -77.006)" fill="#fff"/>
      <path id="Path_13507" data-name="Path 13507" d="M316.974,182.735H313.73l.311-4.715h4.478l.2,2.656-.449.033-.172-2.231h-3.628l-.253,3.808h2.762Z" transform="translate(-178.6 -77.611)" fill="#fd8a00"/>
      <path id="Path_13508" data-name="Path 13508" d="M317.679,178.167H315.62v-.817a1.03,1.03,0,1,1,2.059,0Zm-1.634-.458H317.2v-.368a.576.576,0,0,0-1.152,0Z" transform="translate(-178.946 -77.3)" fill="#fd8a00"/>
      <rect id="Rectangle_633" data-name="Rectangle 633" width="0.449" height="1.855" transform="translate(139.657 103.694)" fill="#fd8a00"/>
      <rect id="Rectangle_634" data-name="Rectangle 634" width="1.855" height="0.449" transform="translate(138.954 104.397)" fill="#fd8a00"/>
      <rect id="Rectangle_635" data-name="Rectangle 635" width="28.216" height="2.214" transform="translate(67.006 69.219)" fill="#dbdbdb"/>
      <rect id="Rectangle_636" data-name="Rectangle 636" width="17.094" height="2.214" transform="translate(67.006 89.411)" fill="#c7c7c7"/>
      <rect id="Rectangle_637" data-name="Rectangle 637" width="49.469" height="2.214" transform="translate(67.006 76.484)" fill="#dbdbdb"/>
      <rect id="Rectangle_638" data-name="Rectangle 638" width="40.399" height="2.214" transform="translate(67.006 80.283)" fill="#dbdbdb"/>
      <path id="Path_13813" data-name="Path 13813" d="M208.1,171.669H187.67l.065-.817.041-.621.057-.735v-.629l.057-.735V167.5l.057-.735.049-.621,1.258-17.315h3.35a5.189,5.189,0,0,0,10.369,0h3.35l1.365,17.3.049.621.057.735v.629l.057.735.041.629.057.735.049.621Z" transform="translate(-155.176 -14.387)" fill="#c7c7c7"/>
      <path id="Path_13812" data-name="Path 13812" d="M188.341,148.8l-6.251,7.746,5.36,4.47Z" transform="translate(-154.156 -14.382)" fill="#263238"/>
      <g id="Group_1829" data-name="Group 1829">
        <path id="Path_13509" data-name="Path 13509" d="M208.1,171.669H187.67l.065-.817.041-.621.057-.735v-.629l.057-.735V167.5l.057-.735.049-.621,1.258-17.315h3.35a5.189,5.189,0,0,0,10.369,0h3.35l1.365,17.3.049.621.057.735v.629l.057.735.041.629.057.735.049.621Z" transform="translate(-155.548 -72.273)" fill="#c7c7c7"/>
        <path id="Path_13510" data-name="Path 13510" d="M188.341,148.8l-6.251,7.746,5.36,4.47Z" transform="translate(-154.527 -72.267)" fill="#263238"/>
        <path id="Path_13511" data-name="Path 13511" d="M210.63,148.8l6.251,7.746-5.36,4.47Z" transform="translate(-159.746 -72.267)" fill="#263238"/>
      </g>
      <path id="Path_13811" data-name="Path 13811" d="M210.63,148.8l6.251,7.746-5.36,4.47Z" transform="translate(-159.375 -14.382)" fill="#263238"/>
      <rect id="Rectangle_639" data-name="Rectangle 639" width="142.303" height="54.527" transform="translate(11.906 117.332)" fill="#fd8a00"/>
      <rect id="Rectangle_640" data-name="Rectangle 640" width="142.303" height="54.527" transform="translate(11.906 117.332)" fill="#fff" opacity="0.7"/>
      <rect id="Rectangle_641" data-name="Rectangle 641" width="42.041" height="42.041" transform="translate(17.438 123.575)" fill="#fff"/>
      <path id="Path_13512" data-name="Path 13512" d="M234.217,253.809a9.805,9.805,0,0,1-2.647,2.68,9.692,9.692,0,0,1-2.639-2.68c-.874-1.634-.392-3.269.866-3.269,1.414,0,1.773,1.757,1.773,1.757s.368-1.757,1.773-1.757C234.626,250.548,235.092,252.2,234.217,253.809Z" transform="translate(-163.012 -90.872)" fill="#fd8a00"/>
      <circle id="Ellipse_291" data-name="Ellipse 291" cx="5.172" cy="5.172" r="5.172" transform="translate(137.712 155.271)" fill="#fff"/>
      <path id="Path_13513" data-name="Path 13513" d="M323.375,253.952H319.82l.335-5.172h4.911l.213,2.909-.49.033-.188-2.443h-3.979l-.278,4.176h3.032Z" transform="translate(-179.714 -90.551)" fill="#fd8a00"/>
      <path id="Path_13514" data-name="Path 13514" d="M324.145,248.936H321.89v-.9a1.128,1.128,0,0,1,2.255,0Zm-1.757-.5h1.226v-.4a.629.629,0,0,0-1.258,0Z" transform="translate(-180.092 -90.209)" fill="#fd8a00"/>
      <rect id="Rectangle_642" data-name="Rectangle 642" width="0.498" height="2.035" transform="translate(145.058 161.825)" fill="#fd8a00"/>
      <rect id="Rectangle_643" data-name="Rectangle 643" width="2.035" height="0.498" transform="translate(144.29 162.601)" fill="#fd8a00"/>
      <rect id="Rectangle_644" data-name="Rectangle 644" width="30.912" height="2.427" transform="translate(65.477 124.065)" fill="#fd8a00"/>
      <rect id="Rectangle_645" data-name="Rectangle 645" width="18.729" height="2.427" transform="translate(65.477 146.177)" fill="#263238"/>
      <rect id="Rectangle_646" data-name="Rectangle 646" width="54.2" height="2.427" transform="translate(65.477 132.016)" fill="#fd8a00"/>
      <rect id="Rectangle_647" data-name="Rectangle 647" width="44.256" height="2.427" transform="translate(65.477 136.183)" fill="#fd8a00"/>
      <circle id="Ellipse_292" data-name="Ellipse 292" cx="0.695" cy="0.695" r="0.695" transform="translate(29.254 152.019)" fill="#fd8a00"/>
      <circle id="Ellipse_293" data-name="Ellipse 293" cx="0.695" cy="0.695" r="0.695" transform="translate(33.511 152.019)" fill="#fd8a00"/>
      <circle id="Ellipse_294" data-name="Ellipse 294" cx="0.695" cy="0.695" r="0.695" transform="translate(35.636 155.173)" fill="#fd8a00"/>
      <circle id="Ellipse_295" data-name="Ellipse 295" cx="0.695" cy="0.695" r="0.695" transform="translate(37.769 158.352)" fill="#fd8a00"/>
      <circle id="Ellipse_296" data-name="Ellipse 296" cx="0.695" cy="0.695" r="0.695" transform="translate(37.769 152.019)" fill="#fd8a00"/>
      <circle id="Ellipse_297" data-name="Ellipse 297" cx="0.695" cy="0.695" r="0.695" transform="translate(39.893 155.173)" fill="#fd8a00"/>
      <circle id="Ellipse_298" data-name="Ellipse 298" cx="0.695" cy="0.695" r="0.695" transform="translate(42.026 152.019)" fill="#fd8a00"/>
      <path id="Path_13517" data-name="Path 13517" d="M206.379,241.845a.695.695,0,1,1-.686-.695A.694.694,0,0,1,206.379,241.845Z" transform="translate(-158.715 -89.155)" fill="#fd8a00"/>
      <path id="Path_13518" data-name="Path 13518" d="M185.549,241.845a.695.695,0,1,1-.695-.695A.695.695,0,0,1,185.549,241.845Zm3.563-.695a.682.682,0,1,1,0,.025Zm4.257,0a.682.682,0,1,1,0,.025Zm4.257,0a.682.682,0,1,1,0,.025Zm4.257,0a.681.681,0,1,1,0,.025Zm-8.515,6.333a.682.682,0,1,1,0,.025Zm-2.133-3.187a.695.695,0,1,0,.695.695A.695.695,0,0,0,191.236,244.3Zm4.257,0a.724.724,0,1,1-.025,0Z" transform="translate(-154.906 -89.155)" fill="#fff"/>
      <path id="Path_13519" data-name="Path 13519" d="M185.183,218.713a.7.7,0,0,1-.695.695.645.645,0,0,1-.425-.155,5.957,5.957,0,0,0,.458-1.005.312.312,0,0,1,.065-.221.7.7,0,0,1,.6.686Zm16.3-.466a.659.659,0,0,0-.074-.212.67.67,0,0,0-.588.678.7.7,0,0,0,.695.695.637.637,0,0,0,.417-.155,5.94,5.94,0,0,1-.449-1.013Zm-14.872-3.407a.695.695,0,1,0,.695.695A.695.695,0,0,0,186.613,214.84Zm12.772,0a.695.695,0,1,0,.695.695A.695.695,0,0,0,199.385,214.84Zm-14.9,9.5a.695.695,0,1,0,.695.695.695.695,0,0,0-.695-.695Zm4.257,0a.688.688,0,1,0,.008,0Zm8.515,0a.688.688,0,1,0,.008,0Zm4.257,0a.68.68,0,1,0,.008,0Zm-18.663-2.925c-.155.327-.335.7-.523,1.136a.7.7,0,0,0,.695-.686A.686.686,0,0,0,182.846,221.418Zm3.734-.245a.678.678,0,1,0,.033,0Zm12.772,0a.678.678,0,1,0,.033,0Zm3.734.245a.686.686,0,0,0-.172.449.7.7,0,0,0,.695.686,12.072,12.072,0,0,0-.49-1.136ZM182.323,227.5a.524.524,0,0,0-.163,0,5.608,5.608,0,0,0,.646,1.168.687.687,0,0,0,.212-.5.7.7,0,0,0-.662-.67Zm4.257,0a.678.678,0,1,0,.033,0Zm4.257,0a.678.678,0,1,0,.033,0Zm4.257,0a.691.691,0,1,0,.008,0Zm4.257,0a.678.678,0,1,0,.033,0Zm4.257,0a.7.7,0,0,0-.695.695.686.686,0,0,0,.212.5,4.788,4.788,0,0,0,.646-1.168.521.521,0,0,0-.131-.025Z" transform="translate(-154.54 -84.344)" fill="#fff"/>
      <rect id="Rectangle_648" data-name="Rectangle 648" width="129.891" height="49.771" transform="translate(18.108 176.885)" fill="#ebebeb"/>
      <rect id="Rectangle_649" data-name="Rectangle 649" width="38.381" height="38.381" transform="translate(23.158 182.58)" fill="#fff"/>
      <path id="Path_13520" data-name="Path 13520" d="M235.589,321.884a8.769,8.769,0,0,1-2.41,2.451,8.662,8.662,0,0,1-2.411-2.451c-.817-1.471-.36-2.974.817-2.974,1.283,0,1.634,1.634,1.634,1.634s.335-1.634,1.634-1.634C235.948,318.91,236.389,320.414,235.589,321.884Z" transform="translate(-163.353 -103.375)" fill="#fd8a00"/>
      <path id="Path_13521" data-name="Path 13521" d="M320.5,318.713a4.723,4.723,0,1,1-4.723-4.723A4.723,4.723,0,0,1,320.5,318.713Z" transform="translate(-178.11 -102.475)" fill="#fff"/>
      <path id="Path_13522" data-name="Path 13522" d="M316.974,322.015H313.73l.311-4.715h4.478l.2,2.648-.449.033-.172-2.231h-3.628l-.253,3.808h2.762Z" transform="translate(-178.6 -103.081)" fill="#fd8a00"/>
      <path id="Path_13523" data-name="Path 13523" d="M317.679,317.437H315.62v-.817a1.03,1.03,0,1,1,2.059,0Zm-1.634-.449H317.2v-.368a.572.572,0,0,0-.572-.58.58.58,0,0,0-.58.58Z" transform="translate(-178.946 -102.768)" fill="#fd8a00"/>
      <rect id="Rectangle_650" data-name="Rectangle 650" width="0.449" height="1.855" transform="translate(139.657 217.504)" fill="#fd8a00"/>
      <rect id="Rectangle_651" data-name="Rectangle 651" width="1.855" height="0.449" transform="translate(138.954 218.199)" fill="#fd8a00"/>
      <rect id="Rectangle_652" data-name="Rectangle 652" width="28.216" height="2.214" transform="translate(67.006 183.029)" fill="#dbdbdb"/>
      <rect id="Rectangle_653" data-name="Rectangle 653" width="17.094" height="2.214" transform="translate(67.006 203.212)" fill="#c7c7c7"/>
      <rect id="Rectangle_654" data-name="Rectangle 654" width="49.469" height="2.214" transform="translate(67.006 190.285)" fill="#dbdbdb"/>
      <rect id="Rectangle_655" data-name="Rectangle 655" width="40.399" height="2.214" transform="translate(67.006 194.093)" fill="#dbdbdb"/>
      <path id="Path_13524" data-name="Path 13524" d="M206.036,282.82v1.757H190.96V282.82Z" transform="translate(-156.149 -96.775)" fill="#455a64"/>
      <path id="Path_13525" data-name="Path 13525" d="M206.73,286.28h2.19v2.451C206.771,288.642,206.73,286.28,206.73,286.28Z" transform="translate(-159.033 -97.408)" fill="#455a64"/>
      <path id="Path_13526" data-name="Path 13526" d="M206.043,289.982v24.931h-5.826l-1.708-23.068-1.716,23.068H191V289.982a3.653,3.653,0,0,0,3.269-3.7h3.62c0,1.937-.057,3.653.621,3.661h0c.678,0,.629-1.724.629-3.661h3.612a3.653,3.653,0,0,0,3.293,3.7Z" transform="translate(-156.157 -97.408)" fill="#455a64"/>
      <path id="Path_13527" data-name="Path 13527" d="M191,288.761V286.31h2.19S193.116,288.647,191,288.761Z" transform="translate(-156.157 -97.414)" fill="#455a64"/>
      <rect id="Rectangle_656" data-name="Rectangle 656" width="129.891" height="49.771" transform="translate(18.108 231.338)" fill="#ebebeb"/>
      <rect id="Rectangle_657" data-name="Rectangle 657" width="38.381" height="38.381" transform="translate(23.158 237.034)" fill="#fff"/>
      <path id="Path_13528" data-name="Path 13528" d="M235.589,388.524a8.9,8.9,0,0,1-2.411,2.451,8.786,8.786,0,0,1-2.411-2.451c-.817-1.471-.36-2.974.817-2.974,1.283,0,1.634,1.634,1.634,1.634s.335-1.634,1.634-1.634C235.948,385.55,236.389,387.054,235.589,388.524Z" transform="translate(-163.353 -115.561)" fill="#fd8a00"/>
      <circle id="Ellipse_299" data-name="Ellipse 299" cx="4.723" cy="4.723" r="4.723" transform="translate(132.94 265.968)" fill="#fff"/>
      <path id="Path_13529" data-name="Path 13529" d="M316.974,388.655H313.73l.311-4.715h4.478l.2,2.648-.449.033-.172-2.231h-3.628l-.253,3.808h2.762Z" transform="translate(-178.6 -115.267)" fill="#fd8a00"/>
      <path id="Path_13530" data-name="Path 13530" d="M317.679,384.077H315.62v-.817a1.03,1.03,0,1,1,2.059,0Zm-1.634-.449H317.2v-.376a.576.576,0,0,0-1.152,0Z" transform="translate(-178.946 -114.954)" fill="#fd8a00"/>
      <rect id="Rectangle_658" data-name="Rectangle 658" width="0.449" height="1.855" transform="translate(139.657 271.95)" fill="#fd8a00"/>
      <rect id="Rectangle_659" data-name="Rectangle 659" width="1.855" height="0.449" transform="translate(138.954 272.652)" fill="#fd8a00"/>
      <rect id="Rectangle_660" data-name="Rectangle 660" width="28.216" height="2.214" transform="translate(67.006 237.475)" fill="#dbdbdb"/>
      <rect id="Rectangle_661" data-name="Rectangle 661" width="17.094" height="2.214" transform="translate(67.006 257.666)" fill="#c7c7c7"/>
      <rect id="Rectangle_662" data-name="Rectangle 662" width="49.469" height="2.214" transform="translate(67.006 244.739)" fill="#dbdbdb"/>
      <rect id="Rectangle_663" data-name="Rectangle 663" width="40.399" height="2.214" transform="translate(67.006 248.539)" fill="#dbdbdb"/>
      <path id="Path_13531" data-name="Path 13531" d="M210.007,375.608c-.817.27-24.514.335-25.421-.237-.343-.221-.662-13.834-.311-17.871l15.272.131s.1,9.765.286,9.855c1.52.719,8.555,4.086,9.372,4.723S210.841,375.33,210.007,375.608Z" transform="translate(-154.899 -110.432)" fill="#fd8a00"/>
      <path id="Path_13532" data-name="Path 13532" d="M210.036,378.453c-3.963-.123-19.987-.253-23.926-.082h0c3.93.212,19.954.221,23.926.123C210.125,378.519,210.125,378.461,210.036,378.453Z" transform="translate(-155.263 -114.234)" fill="#263238"/>
      <path id="Path_13533" data-name="Path 13533" d="M212.265,374.449a3.17,3.17,0,0,0-2.386.948,3.08,3.08,0,0,0-.9,2.116h.049A3.677,3.677,0,0,1,212.3,374.5Z" transform="translate(-159.445 -113.531)" fill="#263238"/>
      <path id="Path_13534" data-name="Path 13534" d="M188.123,357.54c.172,2.656.18,5.311.2,7.967s0,5.32-.2,7.975c-.163-2.656-.18-5.32-.2-7.975S187.984,360.2,188.123,357.54Z" transform="translate(-155.593 -110.439)" fill="#263238"/>
      <path id="Path_13535" data-name="Path 13535" d="M237.009,410.891a3.219,3.219,0,1,1-3.211-3.211A3.219,3.219,0,0,1,237.009,410.891Z" transform="translate(-163.393 -119.608)" fill="#fd8a00"/>
      <circle id="Ellipse_300" data-name="Ellipse 300" cx="2.067" cy="2.067" r="2.067" transform="translate(80.987 289.216)" fill="#dbdbdb"/>
      <path id="Path_13536" data-name="Path 13536" d="M267.071,411.147A2.075,2.075,0,1,1,265,409.08a2.075,2.075,0,0,1,2.076,2.067Z" transform="translate(-169.309 -119.864)" fill="#dbdbdb"/>
      <g id="Group_1830" data-name="Group 1830" transform="translate(-2.754 54.707)">
        <path id="Path_13509-2" data-name="Path 13509" d="M208.1,171.669H187.67l.065-.817.041-.621.057-.735v-.629l.057-.735V167.5l.057-.735.049-.621,1.258-17.315h3.35a5.189,5.189,0,0,0,10.369,0h3.35l1.365,17.3.049.621.057.735v.629l.057.735.041.629.057.735.049.621Z" transform="translate(-155.548 -72.273)" fill="#fd8a00"/>
        <path id="Path_13510-2" data-name="Path 13510" d="M188.341,148.8l-6.251,7.746,5.36,4.47Z" transform="translate(-154.527 -72.267)" fill="#fd8a00"/>
        <path id="Path_13511-2" data-name="Path 13511" d="M210.63,148.8l6.251,7.746-5.36,4.47Z" transform="translate(-159.746 -72.267)" fill="#fd8a00"/>
      </g>
    </g>
    <g id="freepik--shopping-bag--inject-131" transform="translate(93.215 280.147)">
      <path id="Path_13537" data-name="Path 13537" d="M175.349,422.081H105.59l10.181-71.041h49.4Z" transform="translate(-105.59 -334.258)" fill="#fdaa00"/>
      <path id="Path_13538" data-name="Path 13538" d="M176.775,351.03l-7.755,71.058h17.928Z" transform="translate(-117.189 -334.256)" opacity="0.1"/>
      <path id="Path_13539" data-name="Path 13539" d="M134.869,352.252l-2.909-.613c0-.057,1.275-6.03,2.631-12.061,1.5-6.725,8.114-9.806,13.638-8.931s8.662,5.148,8.09,10.86c-.719,7.158-1.267,10.541-1.283,10.68l-2.933-.474s.547-3.448,1.258-10.5c.613-6.137-4.135-7.4-5.606-7.632-4.167-.678-9.144,1.634-10.271,6.651C136.144,346.238,134.877,352.2,134.869,352.252Z" transform="translate(-110.412 -330.502)" fill="#455a64"/>
      <g id="Group_1824" data-name="Group 1824" transform="translate(52.591 27.578)" opacity="0.1">
        <path id="Path_13540" data-name="Path 13540" d="M170.326,436.364l-.376-.637,9.315-5.377,7.321,5.385-.441.6-6.929-5.1Z" transform="translate(-169.95 -376.339)"/>
        <rect id="Rectangle_664" data-name="Rectangle 664" width="0.744" height="54.462" transform="translate(7.086 0.025) rotate(-1.95)"/>
      </g>
      <path id="Path_13541" data-name="Path 13541" d="M136.036,356.086a2.958,2.958,0,1,1-.863-2.1A2.958,2.958,0,0,1,136.036,356.086Z" transform="translate(-110.076 -334.638)" fill="#455a64"/>
      <path id="Path_13542" data-name="Path 13542" d="M160.422,356.086a2.966,2.966,0,1,1-2.966-2.966A2.966,2.966,0,0,1,160.422,356.086Z" transform="translate(-114.532 -334.638)" fill="#455a64"/>
    </g>
    <g id="freepik--Character--inject-131" transform="translate(239.418 111.218)">
      <path id="Path_13543" data-name="Path 13543" d="M388.935,163.053c12.747,8.09,35.48,31.868,33.413,38.07-4.176,12.478-20.91,29.131-25.331,32.342-2.549,1.871-21.36-15.027-18.925-17.38,2.844-2.746,20.363-17.519,20.485-19.056.09-1.177-8.833-14.21-15.346-25.249C375.705,158.976,382.88,159.2,388.935,163.053Z" transform="translate(-301.585 -130.529)" fill="#d3766a"/>
      <path id="Path_13544" data-name="Path 13544" d="M374.763,226.57s-8.351,4.8-13.671,8.171c-2.966,1.888-7.755,5.589-9.3,7.975-2.3,3.571-9.675,19.979-5.72,21.85,3.563,1.691,8.106-13.2,8.106-13.2s-5.908,14.627-1.242,15.877,7.559-16.261,7.559-16.261-5.72,15.166-.719,15.7c3.8.4,7.305-15.321,7.305-15.321s-4.837,13.074-.956,13.654c4.29.637,8.449-13.671,8.449-13.671,10.116-.188,16.343-3.89,18.443-8.988C393.435,241.385,374.763,226.57,374.763,226.57Z" transform="translate(-295.56 -142.567)" fill="#d3766a"/>
      <path id="Path_13545" data-name="Path 13545" d="M357.276,250.575c-.76,1.691-1.536,3.4-2.141,5.156s-1.144,3.53-1.585,5.336a31.159,31.159,0,0,0-1.03,7.174,67.53,67.53,0,0,1,3.105-12.363c.6-1.74,1.111-3.53,1.716-5.287C357.357,250.55,357.292,250.534,357.276,250.575Z" transform="translate(-296.948 -146.952)" fill="#263238"/>
      <path id="Path_13546" data-name="Path 13546" d="M365.126,253.1c-.874,2.206-1.822,4.363-2.6,6.6s-1.307,4.421-1.92,6.7c-.049.172.057.139.114,0,.711-2.255,1.536-4.282,2.263-6.537s1.381-4.519,2.19-6.733C365.191,253.08,365.134,253.064,365.126,253.1Z" transform="translate(-298.425 -147.415)" fill="#263238"/>
      <path id="Path_13547" data-name="Path 13547" d="M372.5,254.064a53.657,53.657,0,0,0-3.2,10.394c0,.18.1.123.155-.057,1-3.473,1.749-6.21,3.154-10.288C372.644,254.048,372.538,254.007,372.5,254.064Z" transform="translate(-300.019 -147.59)" fill="#263238"/>
      <path id="Path_13548" data-name="Path 13548" d="M416.285,433.692c3.089-1.634,7.272-2.451,10.533-.915.123.057.041.237-.082.237a48.61,48.61,0,0,0-10.3,1.087.221.221,0,0,1-.147-.409Z" transform="translate(-308.589 -180.126)" fill="#263238"/>
      <path id="Path_13549" data-name="Path 13549" d="M413.975,436.372c3.089-1.634,7.273-2.451,10.533-.915.123.057.041.237-.082.237a48.557,48.557,0,0,0-10.3,1.087.221.221,0,0,1-.147-.409Z" transform="translate(-308.167 -180.617)" fill="#263238"/>
      <path id="Path_13550" data-name="Path 13550" d="M411.606,439.052c3.089-1.634,7.264-2.451,10.533-.915.123.057,0,.237-.082.237a49.22,49.22,0,0,0-10.312,1.087.221.221,0,0,1-.139-.409Z" transform="translate(-307.734 -181.107)" fill="#263238"/>
      <path id="Path_13551" data-name="Path 13551" d="M409.247,441.732c3.1-1.634,7.272-2.451,10.533-.915.131.057.041.237-.074.237a48.7,48.7,0,0,0-10.312,1.095.221.221,0,0,1-.147-.417Z" transform="translate(-307.295 -181.597)" fill="#263238"/>
      <path id="Path_13552" data-name="Path 13552" d="M408.841,430.947c2.9,1.062,6.161.817,9.2.964a.425.425,0,0,0,.384-.572.1.1,0,0,0,.041-.147,18.425,18.425,0,0,0-7.477-5.9c-1.741-.719-4.4-.744-5.123,1.446S407.141,430.326,408.841,430.947Zm-1.683-2.37c-1.741-3.424,2.737-2.77,4-2.2a21.324,21.324,0,0,1,2.345,1.324c1.577,1.005,2.983,2.206,4.437,3.35-1.487-.155-2.974-.18-4.461-.286C411.668,430.645,408.113,430.457,407.157,428.577Z" transform="translate(-306.676 -178.827)" fill="#263238"/>
      <path id="Path_13553" data-name="Path 13553" d="M430.493,421.96c-1.455-1.8-3.93-.817-5.311.458a18.443,18.443,0,0,0-4.9,8.171.09.09,0,0,0,.082.123.419.419,0,0,0,.564.4c2.795-1.2,5.924-2.141,8.261-4.167C430.566,425.768,431.866,423.66,430.493,421.96Zm-5.72,6.464c-1.356.629-2.737,1.185-4.086,1.855.956-1.594,1.847-3.211,2.958-4.707a20.109,20.109,0,0,1,1.724-2.067c.981-.989,4.9-3.187,4.527.621-.188,2.108-3.481,3.555-5.1,4.3Z" transform="translate(-309.338 -178.118)" fill="#263238"/>
      <path id="Path_13554" data-name="Path 13554" d="M446.845,421.1c.2,1.193.392,2.362.572,3.489,1.185,7.256,1.879,12.862,1.34,13.376-1.634,1.585-51.79,11.644-53.661,11.44s-1.324-5.581.311-7.526c1-1.177,7.836-6.235,13.074-10.01h0c3.358-2.451,6.03-4.331,6.03-4.331l-10.051-32.5,33.421-6.235S446.518,419.2,446.845,421.1Z" transform="translate(-304.519 -172.236)" fill="#d3766a"/>
      <path id="Path_13555" data-name="Path 13555" d="M395.1,454.356c1.879.221,51.986-9.805,53.661-11.44.539-.523-.155-6.12-1.34-13.376-.18-1.128-.368-2.3-.572-3.489-.114-.67-1.226-4.9-2.6-10.051l-32.783,6.578,3.056,9.863s-2.68,1.9-6.039,4.331h0c-5.213,3.783-12.061,8.841-13.074,10.018C393.773,448.775,393.234,454.119,395.1,454.356Z" transform="translate(-304.52 -177.208)" fill="#ebebeb"/>
      <path id="Path_13556" data-name="Path 13556" d="M394.577,455.4c1.242.139,22.978-4.175,38.724-7.714,3.644-.817,6.97-1.593,9.642-2.255,3.693-.932,6.145-1.634,6.5-1.977.613-.588-3.228-21.131-3.9-23.517l-33.315,6.9L414.18,433s-17.65,12.706-19.325,14.708S392.673,455.126,394.577,455.4Z" transform="translate(-304.416 -177.928)" fill="#fdaa00"/>
      <path id="Path_13557" data-name="Path 13557" d="M395.792,458.183c8.547-1.969,43.2-9.144,51.806-10.443.065,0,.073,0,0,.049-8.433,2.149-43.145,9.037-51.79,10.541C395.637,458.363,395.612,458.232,395.792,458.183Z" transform="translate(-304.839 -183.012)" fill="#263238"/>
      <path id="Path_13558" data-name="Path 13558" d="M405.557,385.574c-.36-.18-15.436-40.946-19.889-58.016-6.431-24.661-12.649-64.864-14.529-73.24a123.055,123.055,0,0,1-7.779-30.038h40.505s10.623,20.33,5.148,34.687c-.5,1.316,7.076,52.084,10.99,60.3,3.391,7.109,17.773,58.882,17.773,58.882Z" transform="translate(-298.931 -142.148)" fill="#d3766a"/>
      <path id="Path_13559" data-name="Path 13559" d="M403.865,224.24l-21.507,89.3h0c-5.14-23.7-9.667-52.3-11.211-59.242a122.855,122.855,0,0,1-7.787-30.038h40.513Z" transform="translate(-298.931 -142.141)" fill="#263238"/>
      <path id="Path_13560" data-name="Path 13560" d="M343.172,441.769c3.448-.67,7.673-.163,10.329,2.28.1.09,0,.237-.147.2a48.343,48.343,0,0,0-10.165-2.051.221.221,0,0,1-.016-.433Z" transform="translate(-295.208 -181.871)" fill="#263238"/>
      <path id="Path_13561" data-name="Path 13561" d="M340.132,443.62c3.448-.662,7.665-.155,10.32,2.28.106.1,0,.245-.147.213a48.267,48.267,0,0,0-10.157-2.051.221.221,0,1,1-.016-.441Z" transform="translate(-294.644 -182.21)" fill="#263238"/>
      <path id="Path_13562" data-name="Path 13562" d="M337.1,445.48c3.448-.662,7.673-.163,10.32,2.28.106.1,0,.237-.139.2a48.975,48.975,0,0,0-10.165-2.051.221.221,0,0,1-.016-.433Z" transform="translate(-294.098 -182.55)" fill="#263238"/>
      <path id="Path_13563" data-name="Path 13563" d="M334.062,447.339c3.448-.67,7.673-.163,10.329,2.28.1.09,0,.237-.147.2a48.342,48.342,0,0,0-10.165-2.051.221.221,0,0,1-.016-.433Z" transform="translate(-293.542 -182.889)" fill="#263238"/>
      <path id="Path_13564" data-name="Path 13564" d="M336.809,436.764c2.451,1.888,5.638,2.639,8.49,3.677a.425.425,0,0,0,.539-.433.09.09,0,0,0,.082-.123,18.41,18.41,0,0,0-5.36-7.877c-1.446-1.2-3.979-2.026-5.328-.147S335.379,435.67,336.809,436.764Zm-.891-2.77c-.637-3.783,3.44-1.822,4.478-.891a19.853,19.853,0,0,1,1.839,1.961c1.2,1.43,2.182,3,3.268,4.535-1.373-.6-2.786-1.07-4.176-1.634C339.636,437.337,336.262,436.078,335.918,433.994Z" transform="translate(-293.691 -179.905)" fill="#263238"/>
      <path id="Path_13565" data-name="Path 13565" d="M359.73,435.017c-.817-2.141-3.505-1.961-5.2-1.144a18.353,18.353,0,0,0-7.117,6.333.09.09,0,0,0,.049.139.425.425,0,0,0,.417.548c3.023-.311,6.292-.27,9.127-1.5C358.668,438.678,360.531,437.052,359.73,435.017Zm-7.354,4.47c-1.487.188-2.966.3-4.445.547a52.518,52.518,0,0,1,4.241-3.6,18.794,18.794,0,0,1,2.263-1.463c1.226-.646,5.655-1.561,4.127,1.953-.866,1.945-4.429,2.337-6.194,2.566Z" transform="translate(-296.012 -180.372)" fill="#263238"/>
      <path id="Path_13566" data-name="Path 13566" d="M372.728,430.887c0,2.043-.883,22.52-1.52,22.921-1.945,1.234-53.056,1.381-54.854.817s-.212-5.72,1.765-7.354c1.2-.956,8.9-4.592,14.749-7.3h0c3.759-1.732,6.75-3.089,6.75-3.089l-.163-6L339,403.57h33.764S372.949,417.6,372.728,430.887Z" transform="translate(-290.191 -174.935)" fill="#d3766a"/>
      <path id="Path_13567" data-name="Path 13567" d="M316.357,459.783c1.8.588,52.909.433,54.854-.817.629-.4,1.487-20.87,1.52-22.88,0-1.356.041-2.713.049-4.086H339.408l.074,4.086.172,5.99s-3.007,1.356-6.758,3.089h0c-5.842,2.7-13.54,6.341-14.749,7.305C316.144,454.063,314.584,459.178,316.357,459.783Z" transform="translate(-290.194 -180.134)" fill="#ebebeb"/>
      <path id="Path_13568" data-name="Path 13568" d="M314.87,460.933c1.185.384,23.345.392,39.484,0,3.734-.1,7.15-.212,9.9-.335,3.791-.188,6.341-.409,6.749-.67.719-.466,1.732-21.36,1.536-23.828l-33.772.18-.123,6.431s-19.971,9.086-22.005,10.721S313.047,460.328,314.87,460.933Z" transform="translate(-289.916 -180.883)" fill="#fdaa00"/>
      <path id="Path_13569" data-name="Path 13569" d="M316.518,463.845c8.768-.27,44.125-.531,52.844-.131.074,0,.074.057,0,.057-8.686.458-44.076.433-52.844.221C316.331,463.984,316.331,463.853,316.518,463.845Z" transform="translate(-290.339 -185.896)" fill="#263238"/>
      <path id="Path_13570" data-name="Path 13570" d="M383.981,260.5s-5.769,56.635-5.859,57.967c-.041.523-.049,69.734-.049,69.734h-33.5s-.76-64.848-.18-72.847c.073-.932,2.533-58.507,13.646-91.1h42.376s-.368,19.154-9.078,33A71.9,71.9,0,0,0,383.981,260.5Z" transform="translate(-295.422 -142.143)" fill="#d3766a"/>
      <path id="Path_13571" data-name="Path 13571" d="M358,224.25h42.409s11.693,16.416,7.305,35.047l6.071,39.222s-25.4,4.388-35.325,4.388-34.32-4.388-34.32-4.388S348.528,254.378,358,224.25Z" transform="translate(-295.416 -142.143)" fill="#37474f"/>
      <path id="Path_13572" data-name="Path 13572" d="M393.61,292.24c.392-2.582.883-5.148,1.438-7.7s1.16-5.091,1.888-7.608q.531-1.888,1.209-3.742a17.3,17.3,0,0,1,.817-1.839l.106-.221a.915.915,0,0,1,.3-.311,3.062,3.062,0,0,1,.507-.237c.319-.131.621-.237.931-.343A45.531,45.531,0,0,0,408,267.26a28.878,28.878,0,0,1-6.937,3.653c-.3.123-.613.237-.891.368a2.009,2.009,0,0,0-.376.188h-.041l-.1.212a18.567,18.567,0,0,0-.744,1.757c-.425,1.217-.817,2.451-1.2,3.693-.735,2.492-1.405,5-2.092,7.518Z" transform="translate(-304.462 -150.008)" opacity="0.1"/>
      <path id="Path_13573" data-name="Path 13573" d="M377.658,168.5c2.639.147,4.846-4.3,5.556-7.444.057-.245-.654-2.451-1.422-5.164-.466-1.634-.94-3.505-1.242-5.221l-10.32,4.568a27.97,27.97,0,0,1,2.231,6.414,3.668,3.668,0,0,1,.049.719.7.7,0,0,0,0,.123C372.542,163.875,375.108,168.361,377.658,168.5Z" transform="translate(-300.187 -128.687)" fill="#d3766a"/>
      <path id="Path_13574" data-name="Path 13574" d="M372.488,162.433v.114a6.405,6.405,0,0,0,1.111-.147c5.842-1.185,6.382-8.6,6.365-11.44l-9.765,4.323a27.708,27.708,0,0,1,2.223,6.414,3.737,3.737,0,0,1,.065.735Z" transform="translate(-300.182 -128.74)" fill="#263238"/>
      <path id="Path_13575" data-name="Path 13575" d="M376.71,129.392c2.737,4,4.4,15.624,2.141,19.448-3.268,5.557-10.623,8.286-15.811,3.914-5.066-4.241-6.97-18.974-4.274-22.659C362.713,124.669,372.625,123.492,376.71,129.392Z" transform="translate(-297.867 -124.079)" fill="#d3766a"/>
      <path id="Path_13576" data-name="Path 13576" d="M357.4,137.167s.662,2.729,2.648,2.966c.163,0,10.059,10.966,19.031,6.815,0,0,4.314-10.3.065-16.931-2.746-4.282-6.39-4.527-6.39-4.527s-8.58-3.677-15.231,1.806S354.436,137.788,357.4,137.167Z" transform="translate(-297.173 -123.862)" fill="#263238"/>
      <path id="Path_13577" data-name="Path 13577" d="M360.739,198.292l-.335,14.226h42.409s-6.537-35.79-17.977-48.211c-5.72-6.218-11.538-4.829-15.82-.482-1.087,1.1-10.149,16.253-11.513,22.782C356.285,192.368,360.739,198.292,360.739,198.292Z" transform="translate(-297.821 -130.411)" fill="#fd8a00"/>
      <path id="Path_13578" data-name="Path 13578" d="M372.185,168.336a1.316,1.316,0,1,1-1.307-1.307A1.316,1.316,0,0,1,372.185,168.336Zm10.508-1.307A1.316,1.316,0,1,0,384,168.336a1.316,1.316,0,0,0-1.307-1.307Zm-6.39-6.913a1.34,1.34,0,0,0,.964,0,6.332,6.332,0,0,0-.964,0Zm-17.25,26.05a1.316,1.316,0,1,0,1.307,1.307A1.316,1.316,0,0,0,359.054,186.166Zm11.824,0a1.316,1.316,0,1,0,1.307,1.307A1.316,1.316,0,0,0,370.878,186.166Zm11.816,0A1.316,1.316,0,1,0,384,187.473,1.315,1.315,0,0,0,382.693,186.166Zm11.824,0a1.316,1.316,0,1,0,1.307,1.307A1.316,1.316,0,0,0,394.517,186.166Zm-29.556-9.438a1.307,1.307,0,1,0,1.307,1.307A1.307,1.307,0,0,0,364.962,176.728Zm11.824,0a1.3,1.3,0,1,0,.927.381A1.307,1.307,0,0,0,376.786,176.728Zm11.816,0a1.307,1.307,0,1,0,.93.38A1.307,1.307,0,0,0,388.6,176.728Zm-17.724,28.6a.544.544,0,1,0,0-.025Zm11.816,0a.544.544,0,1,0,0-.025Zm11.824,0a.544.544,0,1,0,0-.025Zm-29.556-9.438a.544.544,0,1,0,0-.025Zm11.824,0a.544.544,0,1,0,0-.025Zm11.816,0a.545.545,0,1,0,0-.025Zm10.623.817a1.275,1.275,0,0,0,.392,1.471q-.212-.719-.409-1.471Z" transform="translate(-297.901 -130.411)" fill="#fff"/>
      <path id="Path_13579" data-name="Path 13579" d="M374.643,162.34c5.344.123,4,21.67-3.791,22.626S367.853,162.185,374.643,162.34Z" transform="translate(-299.566 -130.821)" fill="#d3766a"/>
      <path id="Path_13580" data-name="Path 13580" d="M359.946,166.4c-9.291,11.26-18.6,26.107-20.052,26.483a79.074,79.074,0,0,1-14.855-.262c-4.944-.678-6.733,24.007-3.407,24.841,7.068,1.757,21.123-.074,27.243-4.02,4.461-2.876,14.087-29.654,17.16-39.606C370.1,160.568,365.543,159.6,359.946,166.4Z" transform="translate(-290.99 -130.806)" fill="#d3766a"/>
      <path id="Path_13581" data-name="Path 13581" d="M327.05,204.364a70.879,70.879,0,0,0-8.49-5.556c-4.568-2.7-17.912-5.638-31.239,3.121-4.772,3.138-3.089,8.572,2.223,5.72a50.038,50.038,0,0,1,9.405-3.89s-2.59,5.957-.646,9.168a69.92,69.92,0,0,0,5.72,8.057,15.172,15.172,0,0,0,1.634-.932s5.72,4.323,10.958,3.456Z" transform="translate(-284.512 -136.99)" fill="#d3766a"/>
      <path id="Path_13582" data-name="Path 13582" d="M315.6,198c-2.729.507-8.5,1.683-12.878,4.29-4.9,2.893-13.474,9.806-11.3,13.352,1.593,2.615,5.107.278,5.107.278s-2.958,3.6-1,5.646c1.781,1.871,4.388-.106,4.388-.106s-1.414,2.492.646,3.963c2.451,1.765,5.05-3.742,9.111-4.086C310.625,221.247,315.6,198,315.6,198Z" transform="translate(-285.712 -137.342)" fill="#d3766a"/>
      <path id="Path_13583" data-name="Path 13583" d="M307.852,209a22.569,22.569,0,0,0-10.116,8.874c-.049.106,0,.2.065.123a55.271,55.271,0,0,1,10.075-9Z" transform="translate(-286.926 -139.354)" fill="#263238"/>
      <path id="Path_13584" data-name="Path 13584" d="M311.366,215.08a25.351,25.351,0,0,0-9.56,9.462c-.049.106,0,.2.074.114a59.257,59.257,0,0,1,9.52-9.528S311.4,215.072,311.366,215.08Z" transform="translate(-287.671 -140.466)" fill="#263238"/>
      <path id="Path_13585" data-name="Path 13585" d="M371.75,187.668a44.814,44.814,0,0,1,1.634-5.311,43.782,43.782,0,0,1,2.182-5.107,42.354,42.354,0,0,1-1.634,5.311,44.407,44.407,0,0,1-2.182,5.107Z" transform="translate(-300.465 -133.548)" fill="#263238"/>
      <path id="Path_13586" data-name="Path 13586" d="M376.069,180.14a4.4,4.4,0,0,1-.915,1.9,4.715,4.715,0,0,1-1.634,1.356l1.3-1.634c.221-.262.417-.539.621-.817S375.849,180.426,376.069,180.14Z" transform="translate(-300.789 -134.076)" fill="#263238"/>
      <path id="Path_13587" data-name="Path 13587" d="M364.57,125.355s6.447-3.571,12.192,0,8.465,12.363,7.477,19.742,5.034,12.257,5.72,17.732-2.95,8.016-4.159,10.892c-1.381,3.269,4.159,14.994-9.944,17.707-17.634,3.4-24.375-7.444-22.577-16.416.882-4.388,3.35-7.509,3.269-11.064s-2.558-6.39-1.242-10.892,3.048-3.9,3.759-10.966S358.319,126.556,364.57,125.355Z" transform="translate(-297.035 -123.768)" fill="#263238"/>
      <path id="Path_13588" data-name="Path 13588" d="M380.573,125.5a21.825,21.825,0,0,1,8.343,10.034,20.051,20.051,0,0,1,1.487,6.414c.188,2.884-.253,5.581.817,8.384,1.716,4.478,5.156,8.22,4.993,13.213a12.3,12.3,0,0,1-2.125,6.537c-1.52,2.255-3.693,4.037-4.968,6.447-.049.1-.2,0-.155-.082,1.062-2.149,2.786-3.792,4.216-5.72a12.543,12.543,0,0,0,2.607-7.844c-.131-4.748-3.522-8.392-5.107-12.723a15.027,15.027,0,0,1-.695-5.9,21.6,21.6,0,0,0-.9-7.158,23.141,23.141,0,0,0-8.547-11.546S380.54,125.474,380.573,125.5Z" transform="translate(-302.072 -124.084)" fill="#263238"/>
      <path id="Path_13589" data-name="Path 13589" d="M389.658,191.45Z" transform="translate(-303.739 -136.145)" fill="#263238"/>
      <path id="Path_13590" data-name="Path 13590" d="M353.3,176.38c.441-2.125,1.553-4.086,1.994-6.161.531-2.549-.114-5.083-.6-7.583a16.081,16.081,0,0,1,.956-10.288,58.338,58.338,0,0,0,3.015-6.488,26.875,26.875,0,0,0,1.348-7.657.049.049,0,0,1,.09,0,24.425,24.425,0,0,1-2.362,10.933,33.346,33.346,0,0,0-2.7,6.047,17.838,17.838,0,0,0,.049,7.722,29.418,29.418,0,0,1,.654,5.27,14.815,14.815,0,0,1-1.25,5.2,18.255,18.255,0,0,0,.082,13.45c0,.074-.106.131-.139.057a17.315,17.315,0,0,1-1.136-10.5Z" transform="translate(-297.027 -126.402)" fill="#263238"/>
      <path id="Path_13591" data-name="Path 13591" d="M397.354,166.75c-.155-3.914-2.884-6.537-4.535-9.953a13.91,13.91,0,0,1-1.683-8.114.049.049,0,0,1,.09,0c-.213,4.086,1.5,7.787,3.759,11.2,1.5,2.272,2.746,4.462,2.762,7.2a12.21,12.21,0,0,1-2.59,7.15,15.167,15.167,0,0,0-2.615,4.9,19.611,19.611,0,0,0-.262,5.72c0,.1-.155.1-.172,0-.253-2.925-.294-5.769,1.177-8.441C395.091,173.14,397.542,170.713,397.354,166.75Z" transform="translate(-303.991 -128.319)" fill="#263238"/>
      <path id="Path_13592" data-name="Path 13592" d="M352.286,179.2a23.694,23.694,0,0,1,2.247-3.783,7.738,7.738,0,0,0,1.242-6.586c0-.065.082-.09.1,0,.719,2.149.891,3.939-.384,5.916-1.781,2.762-3.522,5.279-3.89,8.58-.646,5.851,2.656,11.309,8.016,14.275.082.041,0,.147-.065.106a14.6,14.6,0,0,1-8.31-10.95,13.948,13.948,0,0,1,1.046-7.558Z" transform="translate(-296.69 -131.997)" fill="#263238"/>
    </g>
    <g id="freepik--speech-bubble--inject-131" transform="translate(322.388 78.415)">
      <path id="Path_13593" data-name="Path 13593" d="M427.21,104.394a18.631,18.631,0,0,1-31.125,11.783l-9.315,1.365,4.666-8.057a18.444,18.444,0,0,1-1.283-8.988,18.631,18.631,0,0,1,37.057,3.9Z" transform="translate(-386.182 -83.658)" fill="#fff"/>
      <path id="Path_13594" data-name="Path 13594" d="M427.078,104.359a18.7,18.7,0,0,1-3.759,9.446,16.849,16.849,0,0,1-3.653,3.6,18.214,18.214,0,0,1-4.494,2.5,18.9,18.9,0,0,1-5.017,1.2,19.455,19.455,0,0,1-2.582.049,17.079,17.079,0,0,1-2.582-.27,18.859,18.859,0,0,1-9.176-4.56l.221.065-9.307,1.43-.678.106.343-.6,4.633-8.073v.319a18.794,18.794,0,0,1,1.144-16.6,18.726,18.726,0,0,1,29.359-4.012,18.794,18.794,0,0,1,5.548,15.395Zm0,0A18.426,18.426,0,0,0,405.955,84.2a18.157,18.157,0,0,0-7.689,3,19.186,19.186,0,0,0-5.581,6.079,18.344,18.344,0,0,0-1.046,15.991l.065.172-.09.147-4.69,8.041-.335-.49,9.332-1.307h.123l.1.09a18.3,18.3,0,0,0,8.915,4.592,16.505,16.505,0,0,0,2.533.311,17.7,17.7,0,0,0,2.549,0,18.214,18.214,0,0,0,4.968-1.095,17.3,17.3,0,0,0,4.494-2.451,19.971,19.971,0,0,0,1.969-1.634,21.01,21.01,0,0,0,1.691-1.928A18.631,18.631,0,0,0,427.078,104.359Z" transform="translate(-386.05 -83.624)" fill="#263238"/>
      <path id="Path_13595" data-name="Path 13595" d="M419.328,108.5a24.416,24.416,0,0,1-7.82,6.79,24.513,24.513,0,0,1-7.828-6.79c-2.754-3.653-2.615-9.356,1.324-10.623,4.363-1.365,6.537,5.189,6.537,5.189s2.174-6.594,6.537-5.189C421.934,99.183,422.09,104.846,419.328,108.5Z" transform="translate(-388.931 -86.194)" fill="#fd8a00"/>
    </g>
  </g>
</svg>
