<svg xmlns="http://www.w3.org/2000/svg" width="357.21" height="295.18" viewBox="0 0 357.21 295.18">
  <g id="Online_shopping-cuate" data-name="Online shopping-cuate" transform="translate(-22.12 -82.26)">
    <g id="freepik--background-complete--inject-126" transform="translate(35.433 86.929)">
      <rect id="Rectangle_585" data-name="Rectangle 585" width="58.268" height="58.268" transform="translate(256.551 14.196)" fill="#ebebeb"/>
      <path id="Path_13283" data-name="Path 13283" d="M399.041,118a1.964,1.964,0,0,1,1.98,1.98V121a16.633,16.633,0,0,1,7.145,2.532,2.461,2.461,0,0,1,1.38,2.208,2.539,2.539,0,0,1-2.579,2.54,2.666,2.666,0,0,1-1.38-.418,16.752,16.752,0,0,0-4.732-2.027v8.841c7,1.751,10,4.566,10,9.464,0,5.063-3.943,8.431-9.819,8.983v2.76a1.964,1.964,0,0,1-1.98,1.98,2,2,0,0,1-2.027-1.98v-2.855a19.867,19.867,0,0,1-9.464-3.6,2.544,2.544,0,1,1,2.808-4.235,16.239,16.239,0,0,0,6.822,3.084v-8.983c-6.727-1.751-9.859-4.29-9.859-9.464,0-4.929,3.943-8.336,9.669-8.794v-.97A2,2,0,0,1,399.041,118ZM397.2,133.774v-8.187c-2.95.276-4.424,1.846-4.424,3.872S393.655,132.591,397.2,133.774Zm3.636,6.4v8.384c2.95-.323,4.559-1.8,4.559-4.007,0-2.058-1.009-3.3-4.559-4.409Z" transform="translate(-112.394 -94.481)" fill="#fff"/>
      <rect id="Rectangle_586" data-name="Rectangle 586" width="58.268" height="58.268" transform="translate(21.208)" fill="#ebebeb"/>
      <path id="Path_13284" data-name="Path 13284" d="M110.155,131.86H82.984L76.32,107.718h38.212l1.38-5.568h4.322v1.577h-3.092Zm-25.971-1.577h24.741l5.213-21.018H78.386Z" transform="translate(-46.886 -91.132)" fill="#fff"/>
      <path id="Path_13285" data-name="Path 13285" d="M89.221,144.168l-1.451-.615L90.2,137.78h18.495l2,5.82-1.491.513-1.633-4.756H91.248Z" transform="translate(-49.306 -98.661)" fill="#fff"/>
      <rect id="Rectangle_587" data-name="Rectangle 587" width="34.702" height="1.577" transform="translate(32.186 22.075)" fill="#fff"/>
      <rect id="Rectangle_588" data-name="Rectangle 588" width="31.397" height="1.577" transform="translate(33.628 28.064) rotate(-0.25)" fill="#fff"/>
      <rect id="Rectangle_589" data-name="Rectangle 589" width="28.448" height="1.577" transform="translate(35.286 34.047)" fill="#fff"/>
      <rect id="Rectangle_590" data-name="Rectangle 590" width="1.577" height="22.454" transform="translate(49.096 17.477)" fill="#fff"/>
      <rect id="Rectangle_591" data-name="Rectangle 591" width="1.577" height="22.533" transform="translate(42.964 17.55) rotate(-4.58)" fill="#fff"/>
      <rect id="Rectangle_592" data-name="Rectangle 592" width="1.577" height="22.832" transform="translate(36.193 17.619) rotate(-10.42)" fill="#fff"/>
      <rect id="Rectangle_593" data-name="Rectangle 593" width="22.533" height="1.577" transform="matrix(0.08, -0.997, 0.997, 0.08, 53.317, 39.87)" fill="#fff"/>
      <rect id="Rectangle_594" data-name="Rectangle 594" width="22.832" height="1.577" transform="translate(57.784 39.796) rotate(-79.59)" fill="#fff"/>
      <path id="Path_13286" data-name="Path 13286" d="M87.779,147.978a3.4,3.4,0,1,1,3.4-3.4A3.4,3.4,0,0,1,87.779,147.978Zm0-5.221a1.822,1.822,0,1,0,1.822,1.822,1.822,1.822,0,0,0-1.822-1.822Z" transform="translate(-48.59 -99.38)" fill="#fff"/>
      <path id="Path_13287" data-name="Path 13287" d="M114.889,147.978a3.4,3.4,0,1,1,3.4-3.4A3.4,3.4,0,0,1,114.889,147.978Zm0-5.221a1.822,1.822,0,1,0,1.822,1.822,1.822,1.822,0,0,0-1.822-1.822Z" transform="translate(-54.318 -99.38)" fill="#fff"/>
      <path id="Path_13288" data-name="Path 13288" d="M90.91,301.366s9.054-32.533,16.294-43.575,20.719-23.172,20.719-23.172S127.607,284.764,90.91,301.366Z" transform="translate(-49.969 -119.125)" fill="#ebebeb"/>
      <path id="Path_13289" data-name="Path 13289" d="M91.71,304.36a156.572,156.572,0,0,0,8.257-15.774,109.975,109.975,0,0,1,4.5-17.1.087.087,0,1,1,.166.055c-1.207,5.142-2.6,10.253-3.872,15.356,3.659-7.887,7.1-15.931,11.491-23.408a49.688,49.688,0,0,1,4.2-10.411c.047-.095.205-.039.158.063a66.8,66.8,0,0,0-2.823,7.8,77.19,77.19,0,0,1,6.885-9.464c.158-.189.473,0,.315.213-5.82,7.437-9.843,15.892-13.668,24.449a130.333,130.333,0,0,0,11.365-14.2.048.048,0,0,1,.079.055,117.411,117.411,0,0,1-12.169,15.774c-2.792,6.27-5.521,12.572-8.857,18.534,6.641-5.615,11.751-12.879,16.807-19.891a.153.153,0,1,1,.252.174c-5.055,7.69-10.253,14.938-17.572,20.632a80,80,0,0,1-4.866,7.6.393.393,0,1,1-.639-.457Z" transform="translate(-50.123 -122.671)" fill="#fff"/>
      <path id="Path_13290" data-name="Path 13290" d="M84.629,296.6s16.286-29.97,11.554-59.08S86.4,198.09,86.4,198.09,60.787,243.321,84.629,296.6Z" transform="translate(-46.496 -111.406)" fill="#ebebeb"/>
      <path id="Path_13291" data-name="Path 13291" d="M78.844,253.272a142.379,142.379,0,0,0,6.309,24.213c.047-10.671.252-21.342.536-32a82.574,82.574,0,0,1-3.076-19.867c0-.2.292-.189.308,0A113.492,113.492,0,0,0,85.768,242.7q.379-13.2.86-26.4a.118.118,0,0,1,.229,0c0,13.747,0,27.493-.087,41.24A110.679,110.679,0,0,0,91.5,241.213c0-.047.095-.039.095,0A64.048,64.048,0,0,1,86.786,259.8c-.063,8.786-.158,17.572-.355,26.358,2.76-9.346,5.7-18.392,6.5-28.259a.1.1,0,1,1,.205,0c-.213,10.892-3.021,21.941-6.609,32.178a.694.694,0,0,1-.181.252c-.087,3.218-.174,6.428-.284,9.638a.363.363,0,0,1-.718,0c-.126-6.57-.166-13.139-.158-19.717a88.2,88.2,0,0,1-6.42-26.989C78.694,253.209,78.836,253.193,78.844,253.272Z" transform="translate(-47.399 -115.237)" fill="#fff"/>
      <path id="Path_13292" data-name="Path 13292" d="M80.192,257.284a57.328,57.328,0,0,1,1.136,7.887.079.079,0,0,1-.158,0,56.827,56.827,0,0,1-1.341-7.887C79.806,257.126,80.153,257.087,80.192,257.284Z" transform="translate(-47.628 -123.886)" fill="#fff"/>
      <path id="Path_13293" data-name="Path 13293" d="M92.13,229.516c0-.087.15-.055.15,0a20.324,20.324,0,0,1-.789,5.466.118.118,0,0,1-.221-.063C91.6,233.136,91.846,231.322,92.13,229.516Z" transform="translate(-50.046 -118.035)" fill="#fff"/>
      <path id="Path_13294" data-name="Path 13294" d="M71.194,307.033s.662-31.3-8.321-46.856S39,236.69,39,236.69,45.01,291.858,71.194,307.033Z" transform="translate(-39 -119.563)" fill="#ebebeb"/>
      <path id="Path_13295" data-name="Path 13295" d="M57.145,283.281a116.494,116.494,0,0,0,12.154,15.4q-2.7-9.606-6.215-18.881c-5.04-4.409-10.024-8.983-13.116-14.985a.087.087,0,0,1,.15-.087c3.312,5.347,7.753,9.63,12.43,13.747a242.55,242.55,0,0,0-12.5-27.217.2.2,0,1,1,.347-.2,149.278,149.278,0,0,1,7.832,14.283c-.836-3.344-1.514-6.767-2.366-10.087a.074.074,0,1,1,.142-.039,58.721,58.721,0,0,1,3.691,13.274,160.173,160.173,0,0,1,7.887,21.413c-.237-4.685-.528-9.362-1.01-14.039a.079.079,0,0,1,.158,0,76.11,76.11,0,0,1,1.357,15.774c1.293,4.661,2.366,9.385,3.257,14.141,0,.126-.166.181-.2.055-.489-2-1.017-3.943-1.577-5.947a.15.15,0,0,1-.1-.039c-4.787-4.89-9.362-10.395-12.374-16.523C57.089,283.273,57.089,283.249,57.145,283.281Z" transform="translate(-41.316 -122.579)" fill="#fff"/>
      <path id="Path_13296" data-name="Path 13296" d="M45.838,259.642c1,1.081,1.917,2.216,2.887,3.328a26.15,26.15,0,0,1,2.587,3.021c0,.039,0,.095-.071.071a15.127,15.127,0,0,1-2.989-2.95,25.664,25.664,0,0,1-2.555-3.36C45.641,259.666,45.767,259.564,45.838,259.642Z" transform="translate(-40.412 -124.407)" fill="#fff"/>
      <path id="Path_13297" data-name="Path 13297" d="M103.237,321,102.1,335.827,98.694,380.64H68.953l-3.415-44.813L64.41,321Z" transform="translate(-44.37 -137.379)" fill="#dbdbdb"/>
      <path id="Path_13298" data-name="Path 13298" d="M103.237,321,102.1,335.827H65.538L64.41,321Z" transform="translate(-44.37 -137.379)" fill="#c7c7c7"/>
      <rect id="Rectangle_595" data-name="Rectangle 595" width="44.111" height="11.365" transform="translate(61.502 187.73) rotate(180)" fill="#dbdbdb"/>
    </g>
    <g id="freepik--Shadows--inject-126" transform="translate(22.12 331.87)">
      <ellipse id="Ellipse_285" data-name="Ellipse 285" cx="83.419" cy="13.274" rx="83.419" ry="13.274" transform="translate(0 19.023)" fill="#ebebeb"/>
      <ellipse id="Ellipse_286" data-name="Ellipse 286" cx="83.419" cy="13.274" rx="83.419" ry="13.274" transform="translate(190.372 9.993)" fill="#ebebeb"/>
      <ellipse id="Ellipse_287" data-name="Ellipse 287" cx="83.947" cy="9.512" rx="83.947" ry="9.512" transform="translate(95.778)" fill="#ebebeb"/>
    </g>
    <g id="freepik--Floor--inject-126" transform="translate(24.431 329.907)">
      <path id="Path_13299" data-name="Path 13299" d="M25.05,396.654l44.348-.2,44.356-.063,88.711-.134,88.711.134,44.348.063,44.356.2-44.356.189-44.348.071-88.711.134-88.711-.134L69.4,396.844Z" transform="translate(-25.05 -396.26)" fill="#263238"/>
    </g>
    <g id="freepik--credit-card--inject-126" transform="translate(245.494 174.818)">
      <path id="Path_13300" data-name="Path 13300" d="M425.583,218.2l-7.422,63.055a6.436,6.436,0,0,1-7.1,5.639L311.019,275.128a6.436,6.436,0,0,1-5.631-7.138L312.81,204.9a5.986,5.986,0,0,1,6.641-5.237l100.888,11.83a5.986,5.986,0,0,1,5.245,6.712Z" transform="translate(-305.344 -199.618)" fill="#263238"/>
      <path id="Path_13301" data-name="Path 13301" d="M425.951,287.671a5.915,5.915,0,1,1-5.182-6.562,5.915,5.915,0,0,1,5.182,6.562Z" transform="translate(-328.339 -216.829)" fill="#455a64"/>
      <path id="Path_13302" data-name="Path 13302" d="M435.111,288.751a5.915,5.915,0,1,1-5.182-6.562A5.915,5.915,0,0,1,435.111,288.751Z" transform="translate(-330.274 -217.058)" fill="#fd8a00"/>
      <rect id="Rectangle_596" data-name="Rectangle 596" width="21.318" height="14.733" rx="4.2" transform="matrix(0.993, 0.117, -0.117, 0.993, 16.368, 11.309)" fill="#fd8a00"/>
      <path id="Path_13303" data-name="Path 13303" d="M435.818,235.149l-9.575-1.128a4.046,4.046,0,0,1-3.541-4.488h0a4.038,4.038,0,0,1,4.48-3.541l9.582,1.128a4.046,4.046,0,0,1,3.541,4.488h0a4.046,4.046,0,0,1-4.488,3.541Z" transform="translate(-330.138 -205.185)" fill="#455a64"/>
      <path id="Path_13304" data-name="Path 13304" d="M321.537,249.123l-.615,5.174a.489.489,0,0,1-.544.426.481.481,0,0,1-.426-.544l.5-4.314-.371.158a.426.426,0,0,1-.252.047.473.473,0,0,1-.386-.3.465.465,0,0,1,.237-.639l1.151-.513h.331a.055.055,0,0,1,.047,0h.055v.079h0a.087.087,0,0,1,0,.047.055.055,0,0,0,0,.039.278.278,0,0,0,0,.047v.063Z" transform="translate(-308.314 -209.971)" fill="#f8f8f8"/>
      <path id="Path_13305" data-name="Path 13305" d="M326.677,255a.481.481,0,0,1-.536.426l-3.107-.371h0a.473.473,0,0,1-.339-.2.489.489,0,0,1,.1-.686l2.871-2.043a1.1,1.1,0,0,0,.473-.789,1.136,1.136,0,0,0-1-1.27,1.175,1.175,0,0,0-.789.2l-.3.221a.489.489,0,0,1-.568-.789l.3-.213a2.074,2.074,0,0,1,1.483-.379,2.1,2.1,0,0,1,1.475.875,2.05,2.05,0,0,1,.379,1.475,2.13,2.13,0,0,1-.875,1.483l-1.838,1.3,1.869.221A.489.489,0,0,1,326.677,255Z" transform="translate(-308.99 -210.072)" fill="#f8f8f8"/>
      <path id="Path_13306" data-name="Path 13306" d="M333.05,252.414a2.137,2.137,0,0,1,.457,1.577,2.193,2.193,0,0,1-3.9,1.1.5.5,0,0,1,.789-.615,1.175,1.175,0,0,0,.789.434,1.215,1.215,0,0,0,.883-.237,1.23,1.23,0,0,0,.45-.789,1.2,1.2,0,0,0-.252-.875,1.23,1.23,0,0,0-.789-.45.45.45,0,0,1-.339-.2h0a.5.5,0,0,1,.063-.71l1-.789-1.42-.166a.5.5,0,1,1,.118-.994l2.587.308a.489.489,0,0,1,.442.544.568.568,0,0,1-.087.237.676.676,0,0,1-.1.11l-1.238,1.01a2.012,2.012,0,0,1,.544.5Z" transform="translate(-310.45 -210.202)" fill="#f8f8f8"/>
      <path id="Path_13307" data-name="Path 13307" d="M340.928,255.6a.5.5,0,0,1-.552.426h-.087l-.079.67a.485.485,0,0,1-.962-.118l.071-.663-2.745-.323h0a.465.465,0,0,1-.284-.142.473.473,0,0,1,0-.686l3.723-3.652h0a.079.079,0,0,0,.047,0h.039a.063.063,0,0,1,.055,0h.276a.047.047,0,0,0,.039,0h.055l.039.039h.039a.119.119,0,0,1,0,.047h0v.047a.063.063,0,0,0,0,.039s0,0,0,.055h0v.095h0l-.418,3.541h.087a.5.5,0,0,1,.655.623Zm-1.238-2.831-2,1.956,1.743.205Z" transform="translate(-311.852 -210.497)" fill="#f8f8f8"/>
      <path id="Path_13308" data-name="Path 13308" d="M353.788,254.888a2.2,2.2,0,0,1,.457,1.625,2.177,2.177,0,0,1-.789,1.459,2.137,2.137,0,0,1-1.577.457h0a2.114,2.114,0,0,1-1.451-.789.481.481,0,0,1,.079-.7.5.5,0,0,1,.7.087,1.159,1.159,0,0,0,.789.45,1.195,1.195,0,0,0,.276-2.374,1.183,1.183,0,0,0-.883.245.5.5,0,0,1-.7-.079,1.1,1.1,0,0,1-.079-.126h0a.111.111,0,0,0,0-.047.173.173,0,0,0,0-.063h0a.874.874,0,0,1,0-.15l.536-2.24a.513.513,0,0,1,.26-.323h0a.576.576,0,0,1,.237,0l2.587.308a.5.5,0,1,1-.118.986l-2.153-.252-.213.86a2.541,2.541,0,0,1,.6,0A2.208,2.208,0,0,1,353.788,254.888Z" transform="translate(-314.846 -210.751)" fill="#f8f8f8"/>
      <path id="Path_13309" data-name="Path 13309" d="M361.365,257.429a2.145,2.145,0,0,1-4.275-.276h0a2.148,2.148,0,0,1,.039-.5,5.34,5.34,0,0,1,.521-1.767,3.155,3.155,0,0,1,1.309-1.364,2.524,2.524,0,0,1,1.364-.26.5.5,0,0,1,.457.528.528.528,0,0,1-.536.457,1.633,1.633,0,0,0-.852.142,1.8,1.8,0,0,0-.623.552,1.254,1.254,0,0,0-.142.213,2.082,2.082,0,0,1,.86-.079,2.153,2.153,0,0,1,1.877,2.358Zm-.978-.11a1.159,1.159,0,1,0-1.286,1.017,1.159,1.159,0,0,0,1.286-1.017Z" transform="translate(-316.279 -210.95)" fill="#f8f8f8"/>
      <path id="Path_13310" data-name="Path 13310" d="M368.391,254.772l-2.8,4.929a.465.465,0,0,1-.481.237.591.591,0,0,1-.181-.055.5.5,0,0,1-.189-.663l2.421-4.283-2.256-.26a.5.5,0,0,1-.426-.552.489.489,0,0,1,.536-.426l3.013.355h.087l.174.095h0v.039h0v.039a.2.2,0,0,0,0,.055v.087a.845.845,0,0,1,0,.2Z" transform="translate(-317.84 -211.045)" fill="#f8f8f8"/>
      <path id="Path_13311" data-name="Path 13311" d="M374.446,259a2.106,2.106,0,1,1-3.044-2.129,1.428,1.428,0,0,1-.189-.907,1.459,1.459,0,0,1,2.894.347,1.412,1.412,0,0,1-.394.789A2.122,2.122,0,0,1,374.446,259Zm-.954-.118a1.025,1.025,0,1,0,0,.008Zm-1.325-2.8a.513.513,0,0,0,.442.56.5.5,0,0,0,.544-.45.5.5,0,0,0-.986-.11Z" transform="translate(-319.06 -211.266)" fill="#f8f8f8"/>
      <path id="Path_13312" data-name="Path 13312" d="M384.337,258.185a2.145,2.145,0,0,1,4.275.276h0a2.114,2.114,0,0,1-.039.5,4.946,4.946,0,0,1-.521,1.767,3.06,3.06,0,0,1-1.3,1.364,2.54,2.54,0,0,1-1.364.26.5.5,0,0,1-.457-.528.513.513,0,0,1,.536-.45,1.633,1.633,0,0,0,.852-.15,1.869,1.869,0,0,0,.623-.552,1.431,1.431,0,0,0,.142-.213,2.09,2.09,0,0,1-.86.079,2.153,2.153,0,0,1-1.885-2.35Zm.97.11a1.175,1.175,0,0,0,1.025,1.293,1.159,1.159,0,1,0-1.025-1.293Z" transform="translate(-322.034 -211.595)" fill="#f8f8f8"/>
      <path id="Path_13313" data-name="Path 13313" d="M391.312,259.974a3.825,3.825,0,0,1,.844-2.027,1.98,1.98,0,0,1,1.751-.789,2,2,0,0,1,1.506,1.159,3.825,3.825,0,0,1,.339,2.169,3.77,3.77,0,0,1-.836,2.027,1.853,1.853,0,0,1-3.249-.386A3.809,3.809,0,0,1,391.312,259.974Zm3.47.4a3,3,0,0,0-.237-1.577,1.041,1.041,0,0,0-.789-.631,1.057,1.057,0,0,0-.891.442,2.871,2.871,0,0,0-.607,1.506,2.816,2.816,0,0,0,.237,1.577,1.081,1.081,0,0,0,.789.647,1.041,1.041,0,0,0,.875-.45,2.871,2.871,0,0,0,.623-1.514Z" transform="translate(-323.504 -211.775)" fill="#f8f8f8"/>
      <path id="Path_13314" data-name="Path 13314" d="M401.287,258.5l-.607,5.174a.489.489,0,0,1-.552.426.481.481,0,0,1-.426-.536l.513-4.322-.379.166a.508.508,0,0,1-.4-.931l1.175-.481h.465a.08.08,0,0,1,0,.039h0v.039h0v.205Z" transform="translate(-325.166 -211.955)" fill="#f8f8f8"/>
      <path id="Path_13315" data-name="Path 13315" d="M406.436,264.4a.481.481,0,0,1-.544.426l-3.107-.426h0a.45.45,0,0,1-.339-.2.489.489,0,0,1,.1-.678l2.879-2.051a1.128,1.128,0,0,0,.465-.789,1.151,1.151,0,0,0-.2-.789,1.1,1.1,0,0,0-.789-.465,1.175,1.175,0,0,0-.789.2l-.3.213a.473.473,0,0,1-.678-.118.481.481,0,0,1,.118-.678l.3-.213a2.09,2.09,0,0,1,1.475-.379,2.161,2.161,0,0,1,1.483.875,2.114,2.114,0,0,1,.379,1.483,2.137,2.137,0,0,1-.883,1.475l-1.869,1.325,1.869.221a.489.489,0,0,1,.426.568Z" transform="translate(-325.843 -212.048)" fill="#f8f8f8"/>
      <path id="Path_13316" data-name="Path 13316" d="M419.479,262.595a2.193,2.193,0,0,1-3.447,2.713.5.5,0,0,1,.087-.7.5.5,0,0,1,.7.087,1.144,1.144,0,0,0,.789.434,1.2,1.2,0,0,0,.883-.237,1.167,1.167,0,0,0,.45-.789,1.128,1.128,0,0,0-.252-.875,1.207,1.207,0,0,0-.789-.45.465.465,0,0,1-.347-.2h0a.5.5,0,0,1,.071-.7l1-.789-1.42-.166a.5.5,0,0,1-.434-.56.489.489,0,0,1,.544-.434l2.587.308a.5.5,0,0,1,.45.544.576.576,0,0,1-.095.237.679.679,0,0,1-.1.11l-1.238,1.01A2.161,2.161,0,0,1,419.479,262.595Z" transform="translate(-328.712 -212.362)" fill="#f8f8f8"/>
      <path id="Path_13317" data-name="Path 13317" d="M427.351,265.8a.489.489,0,0,1-.552.418h-.087l-.079.67a.485.485,0,1,1-.962-.118l.079-.662-2.745-.323h0a.465.465,0,0,1-.284-.142.481.481,0,0,1,0-.686l3.723-3.652h.41a.055.055,0,0,0,.047,0h.047l.039.047h.039v.087a.087.087,0,0,0,0,.039.244.244,0,0,1,0,.055s0,0,0,.039a.047.047,0,0,1,0,.047s0,0,0,.047h0l-.418,3.549h.087a.5.5,0,0,1,.655.584Zm-1.23-2.831-2,1.956,1.743.205Z" transform="translate(-330.118 -212.652)" fill="#f8f8f8"/>
      <path id="Path_13318" data-name="Path 13318" d="M433.542,264.273a2.153,2.153,0,0,1,.465,1.577,2.24,2.24,0,0,1-.789,1.459,2.161,2.161,0,0,1-1.577.465h0a2.13,2.13,0,0,1-1.451-.789.481.481,0,0,1,.079-.694.513.513,0,0,1,.71.079,1.183,1.183,0,0,0,1.672.2,1.246,1.246,0,0,0,.45-.789,1.2,1.2,0,0,0-1.924-1.08.521.521,0,0,1-.71-.087,1.109,1.109,0,0,0-.079-.126h0a.047.047,0,0,0,0-.047s0-.047,0-.063h0a.307.307,0,0,1,0-.15l.418-2.319a.584.584,0,0,1,.26-.331h0a.441.441,0,0,1,.229,0l2.587.308a.5.5,0,0,1,.442.56.5.5,0,0,1-.552.434l-2.161-.252-.205.852a2.2,2.2,0,0,1,2.051.789Z" transform="translate(-331.702 -212.707)" fill="#f8f8f8"/>
      <path id="Path_13319" data-name="Path 13319" d="M441.115,266.819a2.138,2.138,0,0,1-4.267-.284h0a2.181,2.181,0,0,1,.039-.5,5.118,5.118,0,0,1,.52-1.759,3.036,3.036,0,0,1,1.309-1.364,2.508,2.508,0,0,1,1.364-.26.489.489,0,0,1,.45.521.513.513,0,0,1-.529.457,1.577,1.577,0,0,0-.86.15,1.758,1.758,0,0,0-.623.544,2.113,2.113,0,0,0-.142.221,2,2,0,0,1,.867-.079,2.129,2.129,0,0,1,1.869,2.358Zm-.97-.118a1.163,1.163,0,1,0-1.289,1.021,1.163,1.163,0,0,0,1.289-1.021Z" transform="translate(-333.132 -212.935)" fill="#f8f8f8"/>
      <rect id="Rectangle_597" data-name="Rectangle 597" width="53.922" height="2.65" transform="matrix(0.993, 0.117, -0.117, 0.993, 11.195, 55.327)" fill="#f8f8f8"/>
      <rect id="Rectangle_598" data-name="Rectangle 598" width="38.172" height="2.65" transform="matrix(0.993, 0.117, -0.117, 0.993, 10.505, 61.182)" fill="#f8f8f8"/>
      <rect id="Rectangle_599" data-name="Rectangle 599" width="26.894" height="2.65" transform="matrix(0.993, 0.117, -0.117, 0.993, 62.649, 16.756)" fill="#f8f8f8"/>
    </g>
    <g id="freepik--Device--inject-126" transform="translate(129.436 82.26)">
      <path id="Path_13320" data-name="Path 13320" d="M303.008,94.674V327.533a12.319,12.319,0,0,1-12.193,12.422H170.375A12.311,12.311,0,0,1,158.19,327.54V94.674A12.3,12.3,0,0,1,170.375,82.26h120.44a12.3,12.3,0,0,1,12.193,12.414Z" transform="translate(-158.189 -82.26)" fill="#455a64"/>
      <path id="Path_13321" data-name="Path 13321" d="M297.429,108.5V321.982c0,6.522-4.882,11.83-10.907,11.83H178.763c-6.033,0-10.923-5.284-10.923-11.83V108.5c0-13.3,4.89-16.231,10.923-16.231H200.35c1.254,0,2.279,1.42,2.279,3.155v.789c0,4.141,2.264,4.156,5.048,4.156h49.916c2.808,0,5.055,0,5.055-4.156v-.789c0-1.759,1.01-3.155,2.279-3.155h21.594C292.578,92.27,297.429,96.324,297.429,108.5Z" transform="translate(-160.229 -84.375)" fill="#fff"/>
      <path id="Path_13322" data-name="Path 13322" d="M254.757,95.548H241.144a.844.844,0,0,1-.844-.844h0a.844.844,0,0,1,.844-.844h13.613a.844.844,0,0,1,.844.844h0A.844.844,0,0,1,254.757,95.548Z" transform="translate(-175.541 -84.711)" fill="#fff"/>
      <rect id="Rectangle_600" data-name="Rectangle 600" width="99.902" height="117.309" transform="translate(22.454 47.826)" fill="#ebebeb"/>
      <path id="Path_13323" data-name="Path 13323" d="M310.013,308.348a15.279,15.279,0,0,1-4.18,4.243,15.185,15.185,0,0,1-4.172-4.243c-1.388-2.547-.623-5.158,1.372-5.158,2.224,0,2.8,2.776,2.8,2.776s.584-2.776,2.8-2.776C310.628,303.19,311.4,305.8,310.013,308.348Z" transform="translate(-188.358 -128.946)" fill="#fd8a00"/>
      <rect id="Rectangle_601" data-name="Rectangle 601" width="11.428" height="1.877" transform="translate(22.454 26.287)" fill="#dbdbdb"/>
      <rect id="Rectangle_602" data-name="Rectangle 602" width="11.428" height="1.877" transform="translate(22.454 30.049)" fill="#dbdbdb"/>
      <rect id="Rectangle_603" data-name="Rectangle 603" width="11.428" height="1.877" transform="translate(22.454 33.803)" fill="#dbdbdb"/>
      <rect id="Rectangle_604" data-name="Rectangle 604" width="1.577" height="6.365" transform="translate(87.861 30.593) rotate(-37.15)" fill="#dbdbdb"/>
      <path id="Path_13324" data-name="Path 13324" d="M271.285,116.782a3.423,3.423,0,1,1-4.8-.631,3.423,3.423,0,0,1,4.8.631Z" transform="translate(-180.791 -89.272)" fill="#dbdbdb"/>
      <path id="Path_13325" data-name="Path 13325" d="M270.565,117.986a2.051,2.051,0,1,1-2.871-.379,2.051,2.051,0,0,1,2.871.379Z" transform="translate(-181.159 -89.64)" fill="#fff"/>
      <path id="Path_13326" data-name="Path 13326" d="M292.443,120.748a15.279,15.279,0,0,1-4.18,4.243,15.185,15.185,0,0,1-4.172-4.243c-1.388-2.547-.623-5.158,1.372-5.158,2.224,0,2.8,2.776,2.8,2.776s.584-2.776,2.8-2.776C293.058,115.59,293.831,118.2,292.443,120.748Z" transform="translate(-184.645 -89.303)" fill="#fd8a00"/>
      <path id="Path_13327" data-name="Path 13327" d="M303.939,118.45h6.451l.789,7.145H303.15Z" transform="translate(-188.822 -89.908)" fill="#dbdbdb"/>
      <path id="Path_13328" data-name="Path 13328" d="M305.683,118.644a4.014,4.014,0,0,1,.6-2.721,1.711,1.711,0,0,1,1.349-.584,1.8,1.8,0,0,1,1.364.576,4.148,4.148,0,0,1,.741,2.713l-.789-.055a3.352,3.352,0,0,0-.528-2.122,1.088,1.088,0,0,0-1.577,0,3.155,3.155,0,0,0-.41,2.106Z" transform="translate(-189.351 -89.25)" fill="#dbdbdb"/>
      <rect id="Rectangle_605" data-name="Rectangle 605" width="62.803" height="1.775" transform="translate(22.454 176.105)" fill="#dbdbdb"/>
      <rect id="Rectangle_606" data-name="Rectangle 606" width="54.009" height="1.775" transform="translate(22.454 179.425)" fill="#dbdbdb"/>
      <path id="Path_13329" data-name="Path 13329" d="M177.984,219.01l-2.524-2.366,2.524-2.374.41.434-2.074,1.94,2.074,1.932Z" transform="translate(-161.839 -110.156)" fill="#c7c7c7"/>
      <path id="Path_13330" data-name="Path 13330" d="M176.865,220.365a4.227,4.227,0,1,1,4.219-4.219A4.227,4.227,0,0,1,176.865,220.365Zm0-7.658a3.439,3.439,0,1,0,3.431,3.439,3.439,3.439,0,0,0-3.431-3.439Z" transform="translate(-161.241 -109.657)" fill="#c7c7c7"/>
      <path id="Path_13331" data-name="Path 13331" d="M321.23,219.01l-.41-.434,2.066-1.932-2.066-1.94.41-.434,2.524,2.374Z" transform="translate(-192.556 -110.156)" fill="#c7c7c7"/>
      <path id="Path_13332" data-name="Path 13332" d="M320.867,220.365a4.227,4.227,0,1,1,4.227-4.219,4.227,4.227,0,0,1-4.227,4.219Zm0-7.658a3.439,3.439,0,1,0,3.439,3.439A3.439,3.439,0,0,0,320.867,212.707Z" transform="translate(-191.673 -109.657)" fill="#c7c7c7"/>
      <path id="Path_13333" data-name="Path 13333" d="M191.181,321.37a.4.4,0,0,1,.4.41v.205a3.58,3.58,0,0,1,1.467.521.513.513,0,0,1,.284.457.521.521,0,0,1-.528.521.568.568,0,0,1-.284-.087,3.58,3.58,0,0,0-.978-.418V324.8c1.443.355,2.058.931,2.058,1.948s-.789,1.727-2.019,1.846v.568a.4.4,0,0,1-.4.4.41.41,0,0,1-.418-.4v-.591a4.078,4.078,0,0,1-1.94-.733.536.536,0,0,1-.252-.457.513.513,0,0,1,.521-.521.536.536,0,0,1,.308.1,3.383,3.383,0,0,0,1.4.639v-1.869c-1.38-.355-2.027-.875-2.027-1.948a1.9,1.9,0,0,1,1.987-1.806v-.2a.41.41,0,0,1,.418-.41ZM190.8,324.6v-1.672c-.607.055-.907.379-.907.789s.174.647.907.883Zm.741,1.317v1.719c.607-.063.939-.363.939-.789s-.205-.7-.939-.931Z" transform="translate(-164.609 -132.788)" fill="#263238"/>
      <path id="Path_13334" data-name="Path 13334" d="M200.434,328.23a.513.513,0,0,1-.521.521h-3.368a.521.521,0,0,1-.386-.173.528.528,0,0,1,0-.741l2.8-2.532a1.183,1.183,0,0,0,.4-.907,1.222,1.222,0,0,0-2.043-.907l-.292.26a.528.528,0,1,1-.7-.789l.292-.268a2.248,2.248,0,0,1,1.522-.584,2.266,2.266,0,0,1,1.522,3.951l-1.79,1.617h2.074a.521.521,0,0,1,.489.552Z" transform="translate(-166.181 -132.944)" fill="#263238"/>
      <path id="Path_13335" data-name="Path 13335" d="M203.28,325.443a4.086,4.086,0,0,1,.639-2.264,2,2,0,0,1,3.51,0,4.314,4.314,0,0,1,0,4.519,1.987,1.987,0,0,1-3.51,0A4.077,4.077,0,0,1,203.28,325.443Zm3.738,0a3.155,3.155,0,0,0-.457-1.688,1.1,1.1,0,0,0-.883-.576,1.151,1.151,0,0,0-.9.576,3.363,3.363,0,0,0,0,3.36,1.144,1.144,0,0,0,.9.584,1.1,1.1,0,0,0,.883-.584,3.06,3.06,0,0,0,.442-1.672Z" transform="translate(-167.718 -132.949)" fill="#263238"/>
      <path id="Path_13336" data-name="Path 13336" d="M212.48,328.819a.71.71,0,1,1-.635.706.71.71,0,0,1,.635-.706Z" transform="translate(-169.528 -134.361)" fill="#263238"/>
      <path id="Path_13337" data-name="Path 13337" d="M214.08,325.443a4.085,4.085,0,0,1,.639-2.264,2,2,0,0,1,3.51,0,4.314,4.314,0,0,1,0,4.519,1.987,1.987,0,0,1-3.51,0A4.078,4.078,0,0,1,214.08,325.443Zm3.738,0a3.155,3.155,0,0,0-.457-1.688,1.1,1.1,0,0,0-.883-.576,1.152,1.152,0,0,0-.9.576,3.363,3.363,0,0,0,0,3.36,1.144,1.144,0,0,0,.9.584,1.1,1.1,0,0,0,.883-.584,3.06,3.06,0,0,0,.457-1.672Z" transform="translate(-170 -132.949)" fill="#263238"/>
      <path id="Path_13338" data-name="Path 13338" d="M222.6,325.443a4.086,4.086,0,0,1,.639-2.264,2,2,0,0,1,3.51,0,4.314,4.314,0,0,1,0,4.519,1.987,1.987,0,0,1-3.51,0,4.078,4.078,0,0,1-.639-2.256Zm3.738,0a3.155,3.155,0,0,0-.457-1.688,1.1,1.1,0,0,0-.883-.576,1.152,1.152,0,0,0-.9.576,3.363,3.363,0,0,0,0,3.36,1.144,1.144,0,0,0,.9.584,1.1,1.1,0,0,0,.883-.584,3.06,3.06,0,0,0,.457-1.672Z" transform="translate(-171.8 -132.949)" fill="#263238"/>
      <rect id="Rectangle_607" data-name="Rectangle 607" width="80.446" height="17.659" transform="translate(31.043 203.559)" fill="#263238"/>
      <path id="Path_13339" data-name="Path 13339" d="M212.558,352.864h-2.3l-.457,1.23a.536.536,0,0,1-.5.331.733.733,0,0,1-.181,0,.536.536,0,0,1-.308-.678l2.09-5.576a.544.544,0,0,1,1,0l2.09,5.576a.536.536,0,0,1-.315.678.566.566,0,0,1-.174,0,.5.5,0,0,1-.481-.331Zm-.386-1.041-.789-2.035-.789,2.035Z" transform="translate(-168.88 -138.382)" fill="#fff"/>
      <path id="Path_13340" data-name="Path 13340" d="M217,353.894V348.31a.513.513,0,0,1,.521-.521h1.112a3.312,3.312,0,1,1,0,6.625h-1.081a.52.52,0,0,1-.552-.521Zm1.049-.536h.584a2.264,2.264,0,0,0,0-4.519h-.584Z" transform="translate(-170.617 -138.371)" fill="#fff"/>
      <path id="Path_13341" data-name="Path 13341" d="M225.31,353.894V348.31a.513.513,0,0,1,.521-.521h1.112a3.312,3.312,0,1,1,0,6.625h-1.088a.513.513,0,0,1-.544-.521Zm1.049-.536h.584a2.264,2.264,0,0,0,0-4.519h-.584Z" transform="translate(-172.373 -138.371)" fill="#fff"/>
      <path id="Path_13342" data-name="Path 13342" d="M241.449,348.839h-1.506v5.055a.521.521,0,0,1-1.041,0v-5.055h-1.491a.521.521,0,0,1-.521-.528.513.513,0,0,1,.521-.521h4.038a.521.521,0,0,1,.521.521.528.528,0,0,1-.521.528Z" transform="translate(-174.82 -138.371)" fill="#fff"/>
      <path id="Path_13343" data-name="Path 13343" d="M249.793,348.559a3.5,3.5,0,0,1,.954,2.366,3.454,3.454,0,0,1-.954,2.366,3.1,3.1,0,0,1-2.264,1.017,3.155,3.155,0,0,1-2.311-1.017,3.407,3.407,0,0,1-.939-2.366,3.454,3.454,0,0,1,.939-2.366,3.155,3.155,0,0,1,2.311-1.009,3.068,3.068,0,0,1,2.264,1.009Zm-.126,2.366a2.453,2.453,0,0,0-.639-1.656,2.043,2.043,0,0,0-3.029,0,2.453,2.453,0,0,0,0,3.3,2.027,2.027,0,0,0,3.029,0,2.429,2.429,0,0,0,.639-1.617Z" transform="translate(-176.382 -138.32)" fill="#fff"/>
      <path id="Path_13344" data-name="Path 13344" d="M258.08,350.957a3.47,3.47,0,0,1,3.47-3.407,3.525,3.525,0,0,1,2.185.741.544.544,0,0,1-.662.86,2.366,2.366,0,0,0-1.522-.521,2.484,2.484,0,0,0-1.7.678,2.327,2.327,0,0,0,0,3.3,2.524,2.524,0,0,0,1.7.678,2.366,2.366,0,0,0,1.522-.521.576.576,0,0,1,.789.1.552.552,0,0,1-.095.789,3.526,3.526,0,0,1-2.185.741,3.462,3.462,0,0,1-3.5-3.439Z" transform="translate(-179.298 -138.32)" fill="#fff"/>
      <path id="Path_13345" data-name="Path 13345" d="M270.788,352.864h-2.3l-.465,1.23a.536.536,0,0,1-.489.331.621.621,0,0,1-.181,0,.536.536,0,0,1-.315-.678l2.09-5.576a.544.544,0,0,1,.5-.331.528.528,0,0,1,.5.331l2.09,5.576a.536.536,0,0,1-.315.678.577.577,0,0,1-.181,0,.52.52,0,0,1-.481-.331Zm-.386-1.041-.789-2.035-.789,2.035Z" transform="translate(-181.185 -138.381)" fill="#fff"/>
      <path id="Path_13346" data-name="Path 13346" d="M279.623,353.618a.528.528,0,0,1-.331.662.937.937,0,0,1-.213,0h0a.694.694,0,0,1-.371-.11.939.939,0,0,1-.3-.331,2.507,2.507,0,0,1-.2-1.136.733.733,0,0,0-.118-.4.867.867,0,0,0-.284-.276,1.869,1.869,0,0,0-.528-.229h-1.112v2.058a.528.528,0,0,1-.528.521.513.513,0,0,1-.521-.521V348.27a.513.513,0,0,1,.521-.521h1.688a2.027,2.027,0,0,1,1.286,3.589,1.4,1.4,0,0,1,.331.347,1.79,1.79,0,0,1,.315,1.017,2.208,2.208,0,0,0,.039.56.536.536,0,0,1,.323.355Zm-1.325-3.8a.978.978,0,0,0-.978-.986h-1.159v1.948h1.159A.97.97,0,0,0,278.3,349.816Z" transform="translate(-182.899 -138.362)" fill="#fff"/>
      <path id="Path_13347" data-name="Path 13347" d="M286.449,348.839h-1.506v5.055a.521.521,0,0,1-1.041,0v-5.055H282.41a.521.521,0,0,1-.521-.528.513.513,0,0,1,.521-.521h4.038a.521.521,0,0,1,.521.521.528.528,0,0,1-.521.528Z" transform="translate(-184.329 -138.371)" fill="#fff"/>
      <path id="Path_13348" data-name="Path 13348" d="M272.861,246.851c-.071.56-4.89,6.089-9.5,6.073-9.243,0-13.755,4.188-21.712,4.188s-12.469-4.212-21.72-4.188c-4.606,0-9.464-5.521-9.464-6.073s13.613-58.363,13.613-58.363a3.865,3.865,0,0,1-1.183-2.65c-.134-1.814,3.107-18.5,3.155-20.6s-1.782-14.662-1.577-15.64,5.371-1.577,5.521-1.12,1.246,12.848,1.877,14.031,6.428,2.122,9.78,2.122,9.149-.907,9.78-2.1,1.743-13.542,1.877-14.031,5.308.142,5.521,1.12-1.64,13.542-1.577,15.64,3.32,18.786,3.155,20.6a3.9,3.9,0,0,1-1.191,2.65S272.932,246.291,272.861,246.851Z" transform="translate(-169.235 -96.22)" fill="#fdaa00"/>
      <path id="Path_13349" data-name="Path 13349" d="M231.589,174.2a.875.875,0,1,1,.624-.254A.875.875,0,0,1,231.589,174.2Zm0-1.577a.666.666,0,1,1,0,.024Zm-1.041,15.214a.368.368,0,1,1,0,.024Zm0-1.577a.659.659,0,1,1,0,.039Zm-6.42.276a.366.366,0,1,1,0,.039Zm0-1.577a.659.659,0,1,1,0,.055Zm7.2,9.843a.875.875,0,1,1,.624-.254A.875.875,0,0,1,231.329,194.8Zm0-1.577a.659.659,0,1,1,0,.039Zm-7.6,2.626a.369.369,0,1,1,0,.039Zm0-1.577a.651.651,0,1,1,0,.055Zm8.676-13.707a.806.806,0,1,1-.039.039Zm0-1.577a.28.28,0,1,1-.039.039Zm2.942,11.949a.528.528,0,1,1-.039.071Zm0-1.577a.686.686,0,1,0,.678.678.678.678,0,0,0-.718-.591Zm6.057,11.27a.48.48,0,1,1-.039.087Zm0-1.577a.51.51,0,1,1-.039.1Zm12.785,5.213a.875.875,0,1,1,.875-.875.875.875,0,0,1-.875.875Zm0-1.577a.678.678,0,1,0,.678.678A.678.678,0,0,0,254.193,202.685ZM238,205.288a.883.883,0,1,1,.875-.875A.883.883,0,0,1,238,205.288Zm0-1.577a.686.686,0,1,0,.678.686.678.678,0,0,0-.678-.67ZM228.64,212.5a.338.338,0,1,1,.008.016Zm0-1.577a.678.678,0,1,0,.678.678.686.686,0,0,0-.67-.639Zm-7.989,8.786a.883.883,0,1,1,.875-.883A.883.883,0,0,1,220.65,219.705Zm0-1.577a.67.67,0,1,1,0,.016Zm12.895,4.732a1.634,1.634,0,1,1-.024.016Zm0-1.577a.686.686,0,1,0,.678.678.678.678,0,0,0-.7-.647Zm-2.973-59.814a.634.634,0,1,1-.024.032Zm0-1.577a.5.5,0,1,1-.024.047Zm3.754,9.22a.5.5,0,1,1-.024.047Zm0-1.577a.519.519,0,1,1-.024.071ZM244,176.856a.442.442,0,1,1-.024.071Zm0-1.577a.678.678,0,1,0,.686.678.686.686,0,0,0-.71-.584Zm-3.9,6.112a.875.875,0,1,1,.624-.254.883.883,0,0,1-.624.254Zm0-1.577a.686.686,0,1,0,.686.686A.686.686,0,0,0,240.1,179.814Zm6.223,10.852a.367.367,0,1,1,0,.024Zm0-1.577a.659.659,0,1,1,0,.039ZM254,197.165a.883.883,0,1,1,.883-.883A.883.883,0,0,1,254,197.165Zm0-1.577a.686.686,0,1,0,.686.678.686.686,0,0,0-.686-.678Zm7.508,8.187a.364.364,0,1,1,0,.008Zm0-1.577a.674.674,0,1,1,0,.024Zm-26.429-17.469a.883.883,0,1,1,.875-.875A.883.883,0,0,1,235.083,184.727Zm0-1.577a.678.678,0,1,1,0,.016Zm5.521,10.379a.51.51,0,1,1-.008.016Zm0-1.577a.555.555,0,1,1-.008.032Zm-7.887,10.734a.864.864,0,1,1,.024,0Zm0-1.577a1.438,1.438,0,1,1,.024.047Zm-4.322,5.26a.345.345,0,1,1,.024.047Zm0-1.577a.993.993,0,1,1,.024.071Zm-7.508,8.352a.346.346,0,1,1,.024.071Zm0-1.577a.9.9,0,1,1,.024.087Zm3.21-1.987a.354.354,0,1,1,.024.087Zm0-1.577a.82.82,0,1,1,.024.1Zm.386-5.521a.35.35,0,1,1,.024.079Zm0-1.577a.863.863,0,1,1,.024.095Zm9.015,14.67a.353.353,0,1,1,.024.095Zm0-1.577a.686.686,0,1,0,.678.686.678.678,0,0,0-.655-.576Zm-8.62,2.366a.351.351,0,1,1,.024.087Zm0-1.577a.686.686,0,1,0,.678.686.678.678,0,0,0-.655-.584Zm-7.382,8.328a.883.883,0,1,1,.875-.883.883.883,0,0,1-.875.883Zm0-1.577a.67.67,0,1,1,0,.016Zm6.988,1.577a.87.87,0,1,1,.024,0Zm0-1.577a2.464,2.464,0,1,0,.024.016Zm-8.1,8.47a.631.631,0,1,1,.024.016Zm0-1.577a.686.686,0,1,0,.678.678.678.678,0,0,0-.655-.647Zm8.1,1.577a.634.634,0,1,1,.024.016Zm0-1.577a3.146,3.146,0,1,1,.024.032Zm-8.549,8.47a.351.351,0,1,1,.024.032Zm0-1.577a.686.686,0,1,0,.678.686.678.678,0,0,0-.655-.639Zm5.434-29.3a.346.346,0,1,1,.024.047Zm0-1.577a1.078,1.078,0,1,1,.024.063Zm6.806-5.2a.346.346,0,1,1,.024.063Zm0-1.577a.936.936,0,1,1,.024.079Zm-1.806-6.562a.348.348,0,1,1,.024.079Zm0-1.577a.865.865,0,1,1,.024.095Zm1.3-11.136a.353.353,0,1,1,.024.095Zm0-1.577a.686.686,0,1,0,.678.686.678.678,0,0,0-.655-.576Zm17.848-6.988a.358.358,0,1,1,.024.11Zm0-1.577a.686.686,0,1,0,.678.686.678.678,0,0,0-.655-.56Zm8.676,2.705a.378.378,0,1,1,0,.126Zm0-1.577a.6.6,0,1,1,0,.181Zm-3.518,17.351a.374.374,0,1,1,0,.1Zm0-1.577a.629.629,0,1,1,0,.118Zm-5.134,12.012a.875.875,0,1,1,.622-.259A.883.883,0,0,1,245.541,197.165Zm0-1.577a.686.686,0,1,0,.678.678A.678.678,0,0,0,245.541,195.587Zm-12.39,13.053a.363.363,0,1,1,0,.008Zm0-1.577a.678.678,0,1,0,.678.678.67.67,0,0,0-.678-.647Zm4.409,4.945a.366.366,0,1,1,0,.032Zm0-1.577a.678.678,0,1,0,.678.678.67.67,0,0,0-.678-.623Zm17,1.341a.353.353,0,1,1,.008.055Zm0-1.577a.678.678,0,1,0,.678.678.67.67,0,0,0-.67-.6Zm9.1,6.8a.371.371,0,1,1,0,.079Zm0-1.577a.629.629,0,1,1,0,.1Zm-2.476,12.146a.376.376,0,1,1,0,.1Zm0-1.577a.63.63,0,1,1,0,.118Zm1.577,7.887a.4.4,0,1,1-.016.087Zm0-1.577a.562.562,0,1,1-.016.11Zm6.546,11.523a.4.4,0,1,1-.016.11Zm0-1.577a.562.562,0,1,1-.016.126Zm-5.276-.907a.875.875,0,1,1,.875-.875.875.875,0,0,1-.875.875Zm0-1.577a.678.678,0,1,0,.678.678.678.678,0,0,0-.678-.678Zm2.366-10.2a.872.872,0,1,0,0-.008Zm0-1.577a.677.677,0,1,1,0,.008Zm-17.43,11.775a.883.883,0,1,1,.875-.883.883.883,0,0,1-.875.883Zm0-1.577a.686.686,0,1,0,.678.678.686.686,0,0,0-.678-.678Zm-9.724,8.415a.363.363,0,1,1,0,.008Zm0-1.577a.678.678,0,1,0,.678.678.686.686,0,0,0-.678-.647Zm5.071,4.992a.875.875,0,1,1,.624-.254A.883.883,0,0,1,244.311,250.006Zm0-1.577a.686.686,0,1,0,.686.686A.686.686,0,0,0,244.311,248.429Zm.134,8.628a1.359,1.359,0,1,0,.008-.024Zm0-1.577a.482.482,0,1,0,.008-.008Zm-5.213-15.371a137.658,137.658,0,1,1,.008-.008Zm0-1.577a164.184,164.184,0,1,0,.008.008Zm6.775-26.5a.619.619,0,1,1,.008.008Zm0-1.577a.905.905,0,1,1,.008.032Zm.789,8.9a.368.368,0,1,1,0,.032Zm0-1.577a.655.655,0,1,1,0,.047Zm.308,8.281a.367.367,0,1,1,0,.047Zm0-1.577a.655.655,0,1,1,0,.063Zm-1.577-20.033a.348.348,0,1,1,.016.063Zm0-1.577a.686.686,0,1,0,.678.686.678.678,0,0,0-.662-.607Zm-3.391,5.4a.356.356,0,1,1,.016.079Zm0-1.577a.758.758,0,1,1,.016.095Zm-.189,9.267a.883.883,0,1,1,.875-.875A.883.883,0,0,1,241.945,215.959Zm0-1.577a.679.679,0,1,1,0,.016ZM229.2,219.689a.367.367,0,1,1,0,.016Zm0-1.577a.663.663,0,1,1,0,.032Zm4.732,11.878a.368.368,0,1,1,0,.032Zm0-1.577a.686.686,0,1,0,.678.678.678.678,0,0,0-.678-.631Zm-9.811,8.3a.883.883,0,1,1,.883-.883A.883.883,0,0,1,224.12,236.709Zm0-1.577a.671.671,0,1,1,0,.016Zm14.338-1.388a.366.366,0,1,1,0,.016Zm0-1.577a.663.663,0,1,1,0,.032Zm4.827,4.732a.366.366,0,1,1,0,.032Zm0-1.577a.686.686,0,1,0,.678.686.678.678,0,0,0-.678-.639Zm-9.764,7.776a.369.369,0,1,1,0,.047Zm0-1.577a.686.686,0,1,0,.678.678.678.678,0,0,0-.678-.615Zm0,8.384a.374.374,0,1,1,0,.1Zm0-1.577a.686.686,0,1,0,.678.686.678.678,0,0,0-.678-.584Zm5.718,5.473a.373.373,0,1,1,0,.079Zm0-1.577a.633.633,0,1,1,0,.095Zm-18.589-25.34a.883.883,0,1,1,.875-.875.883.883,0,0,1-.875.875Zm0-1.577a.678.678,0,1,1,0,.016Zm-.5,7.95a.875.875,0,1,1,.875-.875A.875.875,0,0,1,220.153,233.255Zm0-1.577a.489.489,0,1,1-.024.039Zm22.375-8.841a.555.555,0,1,1-.024.039Zm0-1.577a.507.507,0,1,1-.024.055ZM238.79,226.5a.875.875,0,1,1,.875-.875A.875.875,0,0,1,238.79,226.5Zm0-1.577a.667.667,0,1,1,0,.024ZM233.8,236.906a.366.366,0,1,1,0,.024Zm0-1.577a.667.667,0,1,1,0,.039Zm-9.094,7.776a.37.37,0,1,1,0,.039Zm0-1.577a.652.652,0,1,1,0,.055Zm-.2,8.928a.369.369,0,1,1,0,.055Zm0-1.577a.641.641,0,1,1,0,.079Zm4.314-2.7a.371.371,0,1,1,0,.079Zm0-1.577a.64.64,0,1,1,0,.095Zm.931,9.551a.375.375,0,1,1,0,.095Zm0-1.577a.633.633,0,1,1,0,.11Zm-16.4-12.619a.384.384,0,1,1,0,.142Zm0-1.577a.606.606,0,1,1,0,.158Zm34.836-4.977a.829.829,0,1,1,0,.158Zm0-1.577a.6.6,0,1,1,0,.174Zm5.229,3.943a.386.386,0,1,1,0,.158Zm0-1.577a.6.6,0,1,1,0,.174Zm-8.179,9.007a.387.387,0,1,1,0,.174Zm0-1.577a.686.686,0,1,0,.678.686.678.678,0,0,0-.678-.5Zm10.332,7.548a.392.392,0,1,1,0,.189Zm0-1.577a.585.585,0,1,1,0,.205Zm-.789-5.205a.391.391,0,1,1,.008.205Zm0-1.577a.593.593,0,1,1,.008.229Zm-.592-85.966a.4.4,0,1,1,.008.237Zm0-1.577a.587.587,0,1,1,.008.252Zm-14.685,13a.759.759,0,1,1,.008.252Zm0-1.577a.573.573,0,1,1,.008.268Zm10.395,15.127a.875.875,0,1,1,.875-.875A.875.875,0,0,1,249.895,179.814Zm0-1.577a.655.655,0,1,1,0,.047Zm-9.3,9.622a.883.883,0,1,1,.875-.883.883.883,0,0,1-.875.883Zm0-1.577a.67.67,0,1,1,0,.016Zm13.841-3.943a.369.369,0,1,1,0,.039Zm0-1.577a.651.651,0,1,1,0,.055Zm1.128,9.874a.371.371,0,1,1,0,.055Zm0-1.577a.644.644,0,1,1,0,.071Zm-19.141,8.9a.883.883,0,1,1,.883-.883.883.883,0,0,1-.883.883Zm0-1.577a.686.686,0,1,0,.686.678A.686.686,0,0,0,236.424,196.376Zm22.627-1.27a.864.864,0,1,1,.024,0Zm0-1.577a2.378,2.378,0,1,0,.024.016Zm-22.627-16.6a.875.875,0,1,1,.624-.254A.875.875,0,0,1,236.424,176.927Zm0-1.577a.678.678,0,1,0,.686.678.686.686,0,0,0-.686-.655Zm-8.754,8.573a.619.619,0,1,1,.024.024Zm0-1.577a.678.678,0,1,0,.678.678.67.67,0,0,0-.655-.631Zm27.281-20.111a.342.342,0,1,1,.024.047Zm0-1.577a1.105,1.105,0,1,1,.024.063Zm-5.332,13.479a.345.345,0,1,1,.024.063Zm0-1.577a.678.678,0,1,0,.678.678.67.67,0,0,0-.655-.591ZM226.8,156.311a.351.351,0,1,1,.024.087Zm0-1.577a.686.686,0,1,0,.678.686.678.678,0,0,0-.655-.584Zm12.99,18.14a.357.357,0,1,1,.024.1Zm0-1.577a.776.776,0,1,1,.024.118Zm4.945,12.272a.361.361,0,1,1,.024.118Zm0-1.577a.686.686,0,1,0,.678.678.678.678,0,0,0-.655-.544Zm5.134,11.909a.357.357,0,1,1,.024.11Zm0-1.577a.7.7,0,1,1,.024.158ZM258,200.209a.374.374,0,1,1,.024.166Zm0-1.577a.683.683,0,1,1,.024.181Zm5.237,12.627a.875.875,0,1,1,.875-.875A.875.875,0,0,1,263.239,211.258Zm0-1.577a.667.667,0,1,1,0,.024Zm-13.6-8.549a.365.365,0,1,1,0,.024Zm0-1.577a.686.686,0,1,0,.678.686.678.678,0,0,0-.678-.647Zm.789,8.754a.408.408,0,1,1-.008.039Zm0-1.577a.579.579,0,1,1-.008.055Zm7.887,1.08a.475.475,0,1,1-.024.055Zm0-1.577a.524.524,0,1,1-.024.079ZM250.7,215.1a.433.433,0,1,1-.024.079Zm0-1.577a.535.535,0,1,1-.024.1ZM237.583,219.6a.419.419,0,1,1-.024.1Zm0-1.577a.686.686,0,1,0,.678.678.678.678,0,0,0-.7-.56ZM229,226.764a.41.41,0,1,1-.024.118Zm0-1.577a.547.547,0,1,1-.024.134Zm0,8.336a.41.41,0,1,1-.024.134Zm0-1.577a.543.543,0,1,1-.024.15Zm-.331,7.65a.408.408,0,1,1-.024.158Zm0-1.577a.543.543,0,1,1-.024.158ZM216.2,243.452a.405.405,0,1,1-.024.166Zm0-1.577a.548.548,0,1,1-.024.181Zm.56,8.455a.44.44,0,1,1-.055.181Zm0-1.577a.5.5,0,1,1-.055.205Zm3.1-9a.883.883,0,1,1,.875-.883.883.883,0,0,1-.875.883Zm0-1.577a.686.686,0,1,0,.678.678A.686.686,0,0,0,219.861,238.176Zm-7.1,9.5a.364.364,0,1,1,0,.008Zm0-1.577a.674.674,0,1,1,0,.024Zm7.974.323a.339.339,0,1,1,.008.024Zm0-1.577a.686.686,0,1,0,.678.686.678.678,0,0,0-.67-.647Zm34.82-26.744a.347.347,0,1,1,.008.039Zm0-1.577a.773.773,0,1,1,.008.055Zm9.646,6.822a.356.356,0,1,1,.008.055Zm0-1.577a.723.723,0,1,1,.008.071Zm-8.865,3.478a.358.358,0,1,1,.008.071Zm0-1.577a.678.678,0,1,0,.678.678.67.67,0,0,0-.67-.584Zm-4.361-1.144a.366.366,0,1,1,.008.095Zm0-1.577a.671.671,0,1,1,.008.11Zm-8.676,8.959a.4.4,0,1,1-.016.11Zm0-1.577a.686.686,0,1,0,.678.678.678.678,0,0,0-.694-.552Zm16.144-13.723a.4.4,0,1,1-.016.126Zm0-1.577a.686.686,0,1,0,.678.678.678.678,0,0,0-.694-.536Zm.978,8.139a.4.4,0,1,1-.016.142Zm0-1.577a.566.566,0,1,1-.016.158ZM252,229.059a.4.4,0,1,1-.016.181Zm0-1.577a.56.56,0,1,1-.016.2Zm6.664,10.584a.875.875,0,1,1,.875-.875A.875.875,0,0,1,258.665,238.066Zm0-1.577a.55.55,0,1,1-.016.221ZM249.91,246.7a.407.407,0,1,1-.016.221Zm0-1.577a.547.547,0,1,1-.016.237Zm11.286,6.956a.41.41,0,1,1-.016.237Zm0-1.577a.541.541,0,1,1-.016.292Zm-11.436,2.855a.413.413,0,1,1-.016.252Zm0-1.577a.539.539,0,1,1-.016.268Zm7.579-20.356a.415.415,0,1,1-.016.268Zm0-1.577a.678.678,0,1,0,.678.678.686.686,0,0,0-.694-.387Zm10.631,6.862a.883.883,0,1,1,.883-.883.883.883,0,0,1-.883.883Zm0-1.577a.671.671,0,1,1,0,.016Zm-7.721,10.332a26.948,26.948,0,1,1-.039.016Zm0-1.577a.277.277,0,1,1-.039.039Zm5.387,4.551a4.472,4.472,0,1,1-.032.039Zm0-1.577a.678.678,0,1,0,.678.678.67.67,0,0,0-.71-.615Zm-6.522-61.415a.557.557,0,1,1-.039.063Zm0-1.577a.5.5,0,1,1-.039.079ZM249.65,166.13a.387.387,0,1,1-.008.079Zm0-1.577a.686.686,0,1,0,.678.686.678.678,0,0,0-.686-.591ZM256,177.242a.387.387,0,1,1-.008.095Zm0-1.577a.6.6,0,1,1-.008.11Zm1.522-24.244a.883.883,0,1,1,.875-.883A.883.883,0,0,1,257.521,151.421Zm0-1.577a.686.686,0,1,0,.678.678A.678.678,0,0,0,257.521,149.844Zm-28.874,17.43a.367.367,0,1,1,0,.024Zm0-1.577a.659.659,0,1,1,0,.039Zm-2.256,6.909a.369.369,0,1,1,0,.039Zm0-1.577a.651.651,0,1,1,0,.055Zm2.863-20.017a.368.368,0,1,1,0,.055Zm0-1.577a.64.64,0,1,1,0,.079Z" transform="translate(-169.535 -96.418)" fill="#fff"/>
      <path id="Path_13350" data-name="Path 13350" d="M248.865,200.115c-3.707.095-7.319,1.08-11.042,1.254a24.143,24.143,0,0,1-4.89-.205,17.1,17.1,0,0,1-4.732-1.506c-.063,0,0-.134.055-.1,2.973,1.522,6.6,1.483,9.843,1.175a81.234,81.234,0,0,1,10.71-.718.058.058,0,0,1,.055.1Zm12.619-.875c-3.036,1.372-6.5,1.475-9.78,1.577-1.767.055-3.541.039-5.308.158a48.164,48.164,0,0,0-5.205.67c-.071,0,0,.126,0,.11a23.211,23.211,0,0,1,5.631-.363c1.782,0,3.565.134,5.355.1a19.473,19.473,0,0,0,9.362-2.208s0-.063,0-.047ZM231.6,233.445c-.678,3.943-1.625,7.887-2.366,11.83s-1.443,7.95-2.019,11.941c-.323,2.256-.686,4.511-.986,6.767,0,.063.079.087.087,0,1.735-7.84,3.155-15.774,4.361-23.708.331-2.264.607-4.551,1.01-6.806a.055.055,0,0,0-.063-.024Zm.931,10.915c-.126,1.775-.371,3.525-.544,5.284s-.347,3.4-.5,5.1-.276,3.368-.379,5.055-.063,3.462,0,5.2c0,.071.11.063.11,0,.118-1.735.355-3.462.5-5.205s.276-3.368.386-5.055.189-3.391.284-5.095.118-3.518.268-5.276c.016-.079-.1-.079-.1-.008Zm29.8,14.535c-.252-1.577-.584-3.155-.9-4.732-.631-3.155-1.349-6.309-2.074-9.4-.41-1.743-.789-3.5-1.12-5.261,0-.071-.126-.039-.11,0,1.262,6.231,2.082,12.54,3.447,18.747.189.883.41,1.767.631,2.642s.386,1.775.655,2.642c0,.087.181.071.174,0A45.993,45.993,0,0,0,262.328,258.9Z" transform="translate(-172.567 -106.979)" fill="#fff"/>
    </g>
    <g id="freepik--Box--inject-126" transform="translate(237.533 300.291)">
      <rect id="Rectangle_608" data-name="Rectangle 608" width="70.784" height="50.255" transform="translate(7.761)" fill="#37474f"/>
      <rect id="Rectangle_609" data-name="Rectangle 609" width="24.102" height="50.255" transform="translate(31.863 50.255) rotate(180)" fill="#383826"/>
      <path id="Path_13351" data-name="Path 13351" d="M307.2,406.39q2.689-5.363,5.308-10.75l5.229-10.813,5.158-10.86q2.579-5.434,5.087-10.908-2.674,5.355-5.308,10.758l-5.229,10.8-5.158,10.86Q309.724,400.948,307.2,406.39Z" transform="translate(-297.775 -359.629)" fill="#37474f"/>
      <path id="Path_13352" data-name="Path 13352" d="M307.2,363.1q2.516,5.466,5.087,10.907l5.158,10.86,5.229,10.813q2.626,5.395,5.308,10.75-2.516-5.466-5.087-10.908l-5.158-10.86-5.229-10.8Q309.882,368.455,307.2,363.1Z" transform="translate(-297.775 -359.638)" fill="#37474f"/>
      <path id="Path_13353" data-name="Path 13353" d="M390.1,369.925H343.429L335.66,358.71h46.674Z" transform="translate(-303.789 -358.71)" fill="#455a64"/>
      <path id="Path_13354" data-name="Path 13354" d="M319.344,369.925H295.25l7.769-11.215h24.1Z" transform="translate(-295.25 -358.71)" fill="#455a64"/>
    </g>
    <g id="freepik--Bag--inject-126" transform="translate(289.484 264.082)">
      <path id="Path_13355" data-name="Path 13355" d="M361.12,410.835h74.065l-10.8-75.445H371.917Z" transform="translate(-361.12 -317.573)" fill="#fdaa00"/>
      <path id="Path_13356" data-name="Path 13356" d="M371.917,335.39l8.234,75.453H361.12Z" transform="translate(-361.12 -317.573)" fill="#263238" opacity="0.1"/>
      <path id="Path_13357" data-name="Path 13357" d="M415.978,335.9c0-.063-1.349-6.388-2.784-12.769-1.191-5.324-6.483-7.776-10.9-7.059-1.577.252-6.609,1.577-5.955,8.1.789,7.492,1.333,11.113,1.341,11.152l-3.155.5c0-.15-.6-3.738-1.364-11.341-.607-6.065,2.768-10.584,8.589-11.531s12.887,2.366,14.488,9.464c1.435,6.4,2.776,12.737,2.784,12.8Z" transform="translate(-367.876 -312.799)" fill="#263238"/>
      <path id="Path_13358" data-name="Path 13358" d="M379.383,428.737c-1.68-.789-3.32-1.7-4.961-2.579l-2.429-1.364c-.789-.465-1.633-.907-2.429-1.388h.315c-1.278.907-2.524,1.845-3.825,2.729s-2.579,1.775-3.9,2.611c1.191-1.017,2.421-2,3.652-2.958s2.492-1.893,3.738-2.847l.142-.11.173.095c.789.45,1.577.939,2.413,1.4l2.366,1.428C376.228,426.718,377.805,427.7,379.383,428.737Z" transform="translate(-361.338 -336.051)" fill="#fff"/>
      <path id="Path_13359" data-name="Path 13359" d="M371.71,407.763l.1-7.232.166-7.224.426-14.457.56-14.449.323-7.216.394-7.224-.1,7.232-.166,7.224L373,378.873l-.56,14.449-.331,7.216Z" transform="translate(-363.358 -320.652)" fill="#fff"/>
      <path id="Path_13360" data-name="Path 13360" d="M420.08,340.835a3.155,3.155,0,1,0,3.155-3.155A3.155,3.155,0,0,0,420.08,340.835Z" transform="translate(-373.579 -318.057)" fill="#263238"/>
      <path id="Path_13361" data-name="Path 13361" d="M393.25,340.835a3.155,3.155,0,1,0,3.155-3.155A3.155,3.155,0,0,0,393.25,340.835Z" transform="translate(-367.91 -318.057)" fill="#263238"/>
    </g>
    <g id="freepik--Chair--inject-126" transform="translate(107.613 280.811)">
      <rect id="Rectangle_610" data-name="Rectangle 610" width="46.398" height="14.378" transform="translate(3.052)" fill="#37474f"/>
      <path id="Path_13362" data-name="Path 13362" d="M145.45,352.24l-1.459,9.283-10.024,59.766H130.52l5.268-59.766.812-9.283Z" transform="translate(-130.52 -337.862)" fill="#37474f"/>
      <path id="Path_13363" data-name="Path 13363" d="M138.012,352.24h8.849l-1.459,9.283h-8.2Z" transform="translate(-131.932 -337.862)" fill="#263238"/>
      <path id="Path_13364" data-name="Path 13364" d="M193.09,421.289h-3.447l-10.024-59.766-1.459-9.283h8.849l.812,9.283Z" transform="translate(-140.587 -337.862)" fill="#37474f"/>
      <path id="Path_13365" data-name="Path 13365" d="M187.821,361.523h-8.2l-1.459-9.283h8.849Z" transform="translate(-140.587 -337.862)" fill="#263238"/>
    </g>
    <g id="freepik--Character--inject-126" transform="translate(23.159 181.893)">
      <path id="Path_13366" data-name="Path 13366" d="M96.586,430.618c1.577.536,48.283.552,50.018-.544.205-.126.189-5.8.331-10.127.205-6.609-8.676-36.027-8.676-36.027l-28.976,1.412,8.076,29.647s-6.672,2.958-12.177,5.521h0a66.251,66.251,0,0,0-7.019,3.573C96.42,425.515,95,430.082,96.586,430.618Z" transform="translate(-38.749 -245.639)" fill="#ad6359"/>
      <path id="Path_13367" data-name="Path 13367" d="M96.586,440.271c1.577.536,48.283.552,50.018-.544.205-.126.3-4.346.331-10.127-11.578,2.366-42.384,6.081-43.251,3.644-.339-.962.41-2.058,1.522-3.052a66.251,66.251,0,0,0-7.019,3.573C96.42,435.168,95,439.735,96.586,440.271Z" transform="translate(-38.75 -255.292)" fill="#263238"/>
      <path id="Path_13368" data-name="Path 13368" d="M166.944,317.832c-5.718,5.686-13.684,9.275-20.458,12.769-5.828,3-10.766,5.923-12.619,10.032-1.64,3.628,10.766,39.127,10.766,39.127l-31.815,7.619s-14.378-39.237-10.781-56.107c.584-2.768,3.352-6.357,7.319-10.253,14.125-13.952,43.378-32.068,43.378-32.068h17.99S178.2,306.64,166.944,317.832Z" transform="translate(-39.924 -225.57)" fill="#fd8a00"/>
      <path id="Path_13369" data-name="Path 13369" d="M176.464,293.212c-.071-.789-.15-1.633-.237-2.445a.063.063,0,1,0-.118,0c.741,6.546,1.357,13.731-1.727,19.82-2.973,5.852-8.928,9.37-14.2,12.871l-9.638,6.365-4.819,3.155a46.46,46.46,0,0,0-3.833,2.7,11.145,11.145,0,0,0-2.792,3.155,7.958,7.958,0,0,0-.923,4.511c.789,10.537,10.142,34.939,10.387,35.846.063.221.426.11.347-.11-2.264-7.027-7.3-19.165-10.032-33.267a11.341,11.341,0,0,1-.039-5.521,8.628,8.628,0,0,1,2.508-3.7,26.9,26.9,0,0,1,3.573-2.682l4.906-3.241,9.551-6.309c5.221-3.447,11.1-6.8,14.5-12.256C177.386,306.462,177.047,299.608,176.464,293.212Z" transform="translate(-47.677 -225.936)" fill="#455a64"/>
      <path id="Path_13370" data-name="Path 13370" d="M169.06,317.827c-5.718,5.686-13.684,9.275-20.458,12.769-11.988-3.155-27.115-7.1-37.131-9.6,14.125-13.952,43.378-32.068,43.378-32.068h17.99S180.314,306.636,169.06,317.827Z" transform="translate(-42.04 -225.566)" fill="#263238"/>
      <path id="Path_13371" data-name="Path 13371" d="M24.347,418.78c1.648.323,47.92-5.931,49.49-7.256.189-.15-.284-4.338-1.033-10.079l8.2-34.954-30.475,3.738-9.59,30.033a73.868,73.868,0,0,1-9.393,7.358h0a66.846,66.846,0,0,0-6.475,4.488C23.495,413.748,22.706,418.464,24.347,418.78Z" transform="translate(-23.437 -241.955)" fill="#ad6359"/>
      <path id="Path_13372" data-name="Path 13372" d="M24.346,428.145c1.648.323,47.92-5.931,49.49-7.256.189-.15-.284-4.338-1.033-10.079-11.144,3.943-41.185,11.72-42.368,9.425-.465-.915.126-2.1,1.1-3.234a66.855,66.855,0,0,0-6.475,4.488C23.495,423.113,22.706,427.83,24.346,428.145Z" transform="translate(-23.437 -251.321)" fill="#263238"/>
      <path id="Path_13373" data-name="Path 13373" d="M47.2,373.483l32.675,5.884,10.2-37.541c.891-12.4,3.155-18.416,10.426-20.679,12.422-3.849,42.778,10.363,56.517.828,11.16-7.745,2.256-33.054,2.256-33.054H127.007s-3.9,4.732-4.622,7.532c0,0-39.97-3.084-48.9,8.258C61.491,319.907,47.2,373.483,47.2,373.483Z" transform="translate(-28.459 -225.564)" fill="#fd8a00"/>
      <path id="Path_13374" data-name="Path 13374" d="M117.581,329.051a17.352,17.352,0,0,0-5.734.442,13.14,13.14,0,0,0-4.89,2.492,12.3,12.3,0,0,0-3.289,4.156,20.853,20.853,0,0,0-1.577,6.065c-.181,1.207-.292,2.421-.363,3.644s-.118,2.918-.118,3.943a.064.064,0,1,0,.126,0,24.852,24.852,0,0,1,.268-3.273c.142-1.025.315-2.051.5-3.068a34.774,34.774,0,0,1,1.42-6,12.974,12.974,0,0,1,7.24-7.437,13.406,13.406,0,0,1,3.155-.844,21.443,21.443,0,0,1,3.257-.1S117.6,329.051,117.581,329.051Z" transform="translate(-39.956 -234.029)" fill="#263238"/>
      <path id="Path_13375" data-name="Path 13375" d="M178.422,302a13.991,13.991,0,0,1-3.234-1.159,9.1,9.1,0,0,1-2.745-1.924,6.065,6.065,0,0,1-1.159-2.666c-.134-.521-.205-1.057-.292-1.577s-.237-1.159-.276-1.743c0-.071-.134-.071-.126,0,.276,2.2-.347,4.661,1.3,6.538a7.886,7.886,0,0,0,2.981,1.916,10.331,10.331,0,0,0,3.518.86.123.123,0,1,0,.032-.245Z" transform="translate(-54.533 -226.399)" fill="#263238"/>
      <path id="Path_13376" data-name="Path 13376" d="M166.2,297.046c-.292-1.191-.639-2.366-1.025-3.525a.063.063,0,0,0-.118.039,42.115,42.115,0,0,1,2.051,14.985,28.8,28.8,0,0,1-.97,7.1,8.778,8.778,0,0,1-4,5.284,19.338,19.338,0,0,1-6.53,2.035,45.276,45.276,0,0,1-7.729.544,145.752,145.752,0,0,1-15.734-1.4c-5.055-.592-10.119-1.293-15.19-1.751-4.156-.371-8.581-.418-12.43,1.428-3.659,1.759-6.033,5.111-7.6,8.762-1.759,4.125-2.753,8.565-3.943,12.871-1.412,5.134-8.676,33.125-8.825,34.331,0,.118.174.11.181,0,.26-2.634,6.57-25.79,7.989-30.956q1.073-3.88,2.137-7.753c.568-2.066,1.128-4.133,1.838-6.152,1.357-3.857,3.336-7.729,6.846-10.024,3.746-2.461,8.415-2.642,12.745-2.366,2.437.173,4.866.5,7.3.789l8.021,1c5.1.6,10.253,1.317,15.348,1.475a50.152,50.152,0,0,0,7.7-.308A25.657,25.657,0,0,0,161,321.874a9.1,9.1,0,0,0,4.566-3.88,16.4,16.4,0,0,0,1.68-6.309,42.211,42.211,0,0,0-1.049-14.638Z" transform="translate(-36.269 -226.529)" fill="#263238"/>
      <path id="Path_13377" data-name="Path 13377" d="M132.047,210.711C127.031,214.82,125,222.187,125,222.187s-5.119,7.1-4.29,11.333a7.508,7.508,0,0,0,4.267,5.521l-.221-2.311s1.191,3.052,5.994,4.732,11.452.789,14.985-.623a13.069,13.069,0,0,0,5.395-3.9l-1.577,3.155a9.78,9.78,0,0,0,8.108-4.5c3.328-4.8-4.109-12.887-4.645-14.52s-.308-13.179-12.548-12.367C140.462,208.692,135.5,207.88,132.047,210.711Z" transform="translate(-43.973 -208.588)" fill="#263238"/>
      <path id="Path_13378" data-name="Path 13378" d="M122.885,241.825a7.674,7.674,0,0,1-2.855-3.644,7.043,7.043,0,0,1-.331-4.582,15.829,15.829,0,0,1,2.753-4.866c1.144-1.577,2.366-3.029,3.518-4.6.055-.087-.071-.174-.142-.11a42.246,42.246,0,0,0-3.376,3.652,20.765,20.765,0,0,0-2.753,3.817,7.619,7.619,0,0,0-.962,4.164,7.342,7.342,0,0,0,1.2,3.312,15.686,15.686,0,0,0,2.879,2.95C122.885,241.975,122.932,241.872,122.885,241.825Z" transform="translate(-43.573 -211.846)" fill="#263238"/>
      <path id="Path_13379" data-name="Path 13379" d="M166.862,231.588c-1.033-4.354-4.566-7.4-6.522-11.294-1.057-2.114-1.806-4.409-3.265-6.309,0-.047-.126,0-.087.071a27.9,27.9,0,0,1,2.563,5.521,30.868,30.868,0,0,0,3.1,5.316c2.114,3.092,4.645,6.759,3.715,10.71-.434,1.822-1.727,3.77-3.675,4.164a.055.055,0,1,0,0,.11,5.947,5.947,0,0,0,3.628-3,7.571,7.571,0,0,0,.544-5.292Z" transform="translate(-51.657 -209.725)" fill="#263238"/>
      <path id="Path_13380" data-name="Path 13380" d="M167.56,234.5a7.824,7.824,0,0,0-.607-4.677,11.152,11.152,0,0,0-3.155-3.541,12.135,12.135,0,0,1-3.707-3.943c0-.063-.134,0-.1.063,1.262,2.768,4.03,4.267,5.773,6.664a8.044,8.044,0,0,1-.181,9.141,12.824,12.824,0,0,1-4.44,3.983v.047C164.208,240.656,166.992,238.03,167.56,234.5Z" transform="translate(-52.292 -211.489)" fill="#263238"/>
      <path id="Path_13381" data-name="Path 13381" d="M148.284,248.069c-2.689,10.939-9.8,24.891-15.545,24.82-5.253-.087-17.138-5.781-22.083-8.833s5.773-15.293,8.676-13.542c3.943,2.366,10.71,7.477,11.83,7.1,1.38-.442,2.745-2.634,10.592-12.619C145,240.947,149.435,243.408,148.284,248.069Z" transform="translate(-41.596 -215.85)" fill="#ad6359"/>
      <path id="Path_13382" data-name="Path 13382" d="M112.045,246.385c-2.366-.694-5-1.672-7.571-1.491s-4.519,3.7-4.464,4.669,1.349,6.98,3.943,6.838.789-4.732.844-5.245.126-1.23.615-1.207,9.188,3.6,9.188,3.6Z" transform="translate(-39.618 -216.256)" fill="#ad6359"/>
      <path id="Path_13383" data-name="Path 13383" d="M111.282,246.671c-.15,0-7.177-2.366-9.748-2.145s-4.519,3.691-4.464,4.661,1.349,6.98,3.943,6.846.789-4.732.844-5.253.126-1.222.615-1.2,9.188,3.589,9.188,3.589Z" transform="translate(-38.997 -216.179)" fill="#ad6359"/>
      <path id="Path_13384" data-name="Path 13384" d="M103.06,256.976a3.084,3.084,0,0,0,.347-1.538,5.521,5.521,0,0,0-.181-1.64,8.51,8.51,0,0,1-.386-1.4,2.76,2.76,0,0,1,.284-1.372c.174-.371.56-.268.891-.174a11.757,11.757,0,0,1,1.435.56c.5.213,1,.442,1.5.67a13.108,13.108,0,0,1,1.577.733s0,.087,0,.079a13.856,13.856,0,0,1-1.341-.521c-.5-.205-1-.4-1.506-.592s-.931-.386-1.4-.56c-.166-.063-.5-.221-.686-.166s-.268.544-.3.7a2.437,2.437,0,0,0,.158,1.38,7.233,7.233,0,0,1,.347,1.4,3.872,3.872,0,0,1,0,1.349,5.4,5.4,0,0,1-.552,1.136C103.115,257.079,103.028,257.024,103.06,256.976Z" transform="translate(-40.215 -217.501)" fill="#263238"/>
      <path id="Path_13385" data-name="Path 13385" d="M118.462,251.423s-7.477-6.1-9.03-7.319c-3.107-2.421-15.916-6.869-17.667-6.964s-2.2,3.525,6.507,6.791c4.582,1.719,5.521,4.243,5.521,5.671s-1.222,4.148-3.62,4.212-4.133-3.344-6.357-3.612-.552,3.675,1.128,5.923a14.638,14.638,0,0,0,6.7,4.677c2.114.662,8.676,3.084,8.676,3.084Z" transform="translate(-37.659 -214.621)" fill="#ad6359"/>
      <path id="Path_13386" data-name="Path 13386" d="M98.778,254.1c.939.647,2.011,1.5,3.155,1.475a2.871,2.871,0,0,0,2.5-1.885,4.543,4.543,0,0,0,.45-3.344,5.608,5.608,0,0,0-1.782-2.595,13.7,13.7,0,0,0-3.36-1.98c-.055,0,0-.1.047-.079,1.128.434,4.622,1.648,5.473,4.637a4.645,4.645,0,0,1-.489,3.407,3.32,3.32,0,0,1-2.366,2.1c-1.4.189-2.682-.9-3.746-1.7C98.66,254.1,98.731,254.065,98.778,254.1Z" transform="translate(-39.333 -216.427)" fill="#263238"/>
      <path id="Path_13387" data-name="Path 13387" d="M155.044,250.07a48.986,48.986,0,0,1-4.07,12.706c-.4.789-.655,1.215-.655,1.215l-10.3-8.123-1.42-1.12s.189-.292.789-1.088c.9-1.128,2.7-3.257,6.12-6.964a21.027,21.027,0,0,1,5.182-4.377C154.729,240.2,156.266,243.437,155.044,250.07Z" transform="translate(-47.773 -215.579)" fill="#ebebeb"/>
      <path id="Path_13388" data-name="Path 13388" d="M151.281,266.72l-2.366,3.77-11.546-9.251-2.579-2.051c.292-.276,3.092-3.029,3.092-3.029l.733.584,1.451,1.144,10.1,7.974Z" transform="translate(-46.968 -218.641)" fill="#ebebeb"/>
      <path id="Path_13389" data-name="Path 13389" d="M154.93,250.07a48.985,48.985,0,0,1-4.07,12.706l1.112.883-2.366,3.77-11.546-9.251,1.846-2.311.852-1.065c3.8-4.787,7.587-9.567,9.851-12.485C154.614,240.2,156.152,243.437,154.93,250.07Z" transform="translate(-47.659 -215.579)" fill="#263238"/>
      <path id="Path_13390" data-name="Path 13390" d="M140.974,286.815S155.13,289,181.26,284.623c0,0-12.911-32.021-21.9-40.223-4.093-3.723-7.729-2.816-10.647,0-.726.71-9.409,13.747-9.89,18.085-.418,3.833,2.989,7.784,2.989,7.784Z" transform="translate(-47.812 -215.635)" fill="#37474f"/>
      <path id="Path_13391" data-name="Path 13391" d="M156.107,240.412c0,.726-2.058,6.065-5.237,6.759-1.033.221-2.508-5.371-2.508-5.371l-.205-.386-2.847-5.434,5.623-6.183.789-.836s.686,1.538,1.514,3.462l.118.268c.047.11.095.213.134.315.126.284.26.576.379.868s.189.442.276.678.189.473.284.71A39.082,39.082,0,0,1,156.107,240.412Z" transform="translate(-49.191 -212.893)" fill="#ad6359"/>
      <path id="Path_13392" data-name="Path 13392" d="M153.238,232.422a12.351,12.351,0,0,1-5.111,8.991l-2.847-5.434L150.9,229.8l.789-.836S152.41,230.5,153.238,232.422Z" transform="translate(-49.185 -212.893)" fill="#263238"/>
      <path id="Path_13393" data-name="Path 13393" d="M131.883,224.813c1.207,10.7,7.753,11.184,10.056,10.923,2.1-.244,9.2-1.317,9.094-12.083s-5.45-13.589-10.253-13.289S130.677,214.118,131.883,224.813Z" transform="translate(-46.317 -208.959)" fill="#ad6359"/>
      <path id="Path_13394" data-name="Path 13394" d="M133.449,225.794c.244-.063.457-.166.7-.252a1.151,1.151,0,0,0,.663-.394.371.371,0,0,0-.063-.457.923.923,0,0,0-.954-.095,1.38,1.38,0,0,0-.789.607.41.41,0,0,0,.442.592Z" transform="translate(-46.582 -211.952)" fill="#263238"/>
      <path id="Path_13395" data-name="Path 13395" d="M142.421,224.152a5.859,5.859,0,0,1-.741-.055,1.246,1.246,0,0,1-.749-.2.4.4,0,0,1-.063-.465.97.97,0,0,1,.9-.347,1.42,1.42,0,0,1,.939.371.41.41,0,0,1-.284.694Z" transform="translate(-48.242 -211.65)" fill="#263238"/>
      <path id="Path_13396" data-name="Path 13396" d="M141.148,228.46a.062.062,0,0,1,.063.063c.063.726.252,1.577.939,1.727v.039C141.329,230.266,141.093,229.162,141.148,228.46Z" transform="translate(-48.31 -212.787)" fill="#263238"/>
      <path id="Path_13397" data-name="Path 13397" d="M141.717,227.406c1.159-.221,1.514,2.114.442,2.319S140.746,227.587,141.717,227.406Z" transform="translate(-48.311 -212.562)" fill="#263238"/>
      <path id="Path_13398" data-name="Path 13398" d="M142.448,227.4c.221.1.457.308.71.292s.465-.292.615-.552h.047a.875.875,0,0,1-.5,1.073c-.434.126-.789-.229-.986-.663C142.306,227.495,142.353,227.361,142.448,227.4Z" transform="translate(-48.561 -212.508)" fill="#263238"/>
      <path id="Path_13399" data-name="Path 13399" d="M135.869,229s-.055.047-.047.071c.142.726.174,1.577-.442,1.916v.039C136.192,230.822,136.129,229.694,135.869,229Z" transform="translate(-47.093 -212.902)" fill="#263238"/>
      <path id="Path_13400" data-name="Path 13400" d="M134.845,228.209c-1.183.1-.9,2.453.189,2.366S135.831,228.131,134.845,228.209Z" transform="translate(-46.818 -212.734)" fill="#263238"/>
      <path id="Path_13401" data-name="Path 13401" d="M134.125,228.476c-.174.15-.331.394-.552.442s-.473-.189-.662-.41h0c.047.45.244.9.686.931s.647-.386.7-.844C134.267,228.539,134.188,228.421,134.125,228.476Z" transform="translate(-46.571 -212.788)" fill="#263238"/>
      <path id="Path_13402" data-name="Path 13402" d="M142.044,236c-.134.205-.26.465-.521.544a1.854,1.854,0,0,1-.789,0s-.047,0,0,.047a.978.978,0,0,0,.986.205.789.789,0,0,0,.442-.789S142.067,236,142.044,236Z" transform="translate(-48.22 -214.381)" fill="#263238"/>
      <path id="Path_13403" data-name="Path 13403" d="M137.764,231.294s0,1.1.071,1.617c0,.047.134.055.308.039h0a2.437,2.437,0,0,0,2.232-1.23c0-.055-.039-.1-.087-.063a3.675,3.675,0,0,1-2.129.946c-.055-.134.063-1.893,0-1.885a4.266,4.266,0,0,0-1.12.418c-.071-2.3.229-4.59.126-6.885a.071.071,0,0,0-.142,0,37.761,37.761,0,0,0-.45,7.414C136.573,231.925,137.574,231.4,137.764,231.294Z" transform="translate(-47.339 -211.883)" fill="#263238"/>
      <path id="Path_13404" data-name="Path 13404" d="M138.62,234.725a3.044,3.044,0,0,0,1.262.852,1.357,1.357,0,0,0,.789,0c.584-.189.56-.733.426-1.191a3.439,3.439,0,0,0-.315-.686,3.849,3.849,0,0,1-2.161,1.025Z" transform="translate(-47.777 -213.895)" fill="#263238"/>
      <path id="Path_13405" data-name="Path 13405" d="M140.22,235.731a1.357,1.357,0,0,0,.789,0c.584-.189.56-.733.426-1.191A1.38,1.38,0,0,0,140.22,235.731Z" transform="translate(-48.115 -214.072)" fill="#ff9cbd"/>
      <path id="Path_13406" data-name="Path 13406" d="M150.275,224.336c-1.175,0-4.456-2.958-4.984-8.589,0,0,.789,5.024,1.262,5.734s-1.838-1.672-2.366-6.207a18.488,18.488,0,0,1-4.48,2.776c-2.1.789-3.415.844-3.581.7s2.918-1.38,3.7-2.429c0,0-5.521,3.092-8.123,3.494-.308,0-1.144-6.191,2.721-9.157s10.529-.592,12.39.946c0,0,2.058.134,4.5,2.973S151.537,224.313,150.275,224.336Z" transform="translate(-46.253 -208.727)" fill="#263238"/>
      <path id="Path_13407" data-name="Path 13407" d="M156.577,230.025a2.471,2.471,0,0,1-.457.229,1.836,1.836,0,0,1-.5.11,1.53,1.53,0,0,1-.647-.071,1.965,1.965,0,0,1-.465-.229,2.137,2.137,0,0,1-.521-.513v-2.934s1.64-3.762,3.3-3.241S158.2,229.024,156.577,230.025Z" transform="translate(-51.025 -211.703)" fill="#ad6359"/>
      <path id="Path_13408" data-name="Path 13408" d="M157.289,225.24v.047a4.582,4.582,0,0,0-1.767,3.3,1,1,0,0,1,1.42-.568v.071a1.128,1.128,0,0,0-1.136.623,5.466,5.466,0,0,0-.379,1.1c-.039.126-.244.1-.229,0h0C154.86,228.205,155.641,225.745,157.289,225.24Z" transform="translate(-51.264 -212.107)" fill="#263238"/>
      <path id="Path_13409" data-name="Path 13409" d="M156.443,236.142a.71.71,0,0,1-.513.394c-.41.063-1.191-.315-1.491-2.161a6.121,6.121,0,0,1,.166-2.642c.071-.213.126-.347.126-.363a.26.26,0,0,1,.339-.126.252.252,0,0,1,.126.331,3.265,3.265,0,0,0-.126.386,5.585,5.585,0,0,0-.126,2.366c.237,1.506.789,1.759.907,1.735s.1-.055.15-.134c.371-.678.158-2.768-.284-3.865a1.838,1.838,0,0,0,.5-.11C156.625,233.05,156.9,235.282,156.443,236.142Z" transform="translate(-51.105 -213.371)" fill="#fd8a00"/>
      <path id="Path_13410" data-name="Path 13410" d="M148.342,252.62c-3.565,10.742-19.891,30.688-26.216,31.705-7.335,1.175-26.027-8.431-30.262-12.619-1.68-1.68,9.527-12.516,11.751-11.286,9.314,5.142,17.122,7.232,18.526,6.562,2.153-1.025,11.7-10.308,17.958-16.562C147.971,242.47,149.951,247.8,148.342,252.62Z" transform="translate(-37.861 -216.568)" fill="#ad6359"/>
      <path id="Path_13411" data-name="Path 13411" d="M88.633,270.885a57.077,57.077,0,0,1-8.912-9.409,30.964,30.964,0,0,1-4.093-9.2c-1.341-5.174-1.775-8.873-1.025-10.387.868-1.767,1.08-2.035,4.732,6.767,2.051,4.977,4.59,5.891,6.869,6.2a37.4,37.4,0,0,1,15.569,5.844S92.34,272.888,88.633,270.885Z" transform="translate(-34.172 -215.416)" fill="#ad6359"/>
      <path id="Path_13412" data-name="Path 13412" d="M83.026,233.274l8.581,15.892c.252.473.063.907-.426.978l-8.676,1.278a1.428,1.428,0,0,1-1.341-.718l-8.589-15.9a.607.607,0,0,1,.418-.978l8.676-1.278a1.42,1.42,0,0,1,1.357.726Z" transform="translate(-33.794 -213.65)" fill="#263238"/>
      <path id="Path_13413" data-name="Path 13413" d="M84.015,233.176l8.581,15.9a.607.607,0,0,1-.426.978l-8.676,1.27a1.4,1.4,0,0,1-1.341-.718l-8.589-15.9a.6.6,0,0,1,.418-.97l8.676-1.278a1.412,1.412,0,0,1,1.357.718Z" transform="translate(-34.003 -213.631)" fill="#37474f"/>
      <path id="Path_13414" data-name="Path 13414" d="M84.124,234.211l7.887,14.583c.244.442.087.852-.347.915l-7.776,1.144a1.317,1.317,0,0,1-1.222-.686l-7.887-14.583c-.489-.907-.244-1.159.189-1.222l1.577-.229a.347.347,0,0,1,.276.2v.047c.15.284.315.26.521.229l3.6-.528c.205,0,.363-.055.213-.331v-.055c-.063-.118-.039-.229.047-.244l1.577-.229C83.169,233.154,83.674,233.383,84.124,234.211Z" transform="translate(-34.229 -213.791)" fill="#fff"/>
      <path id="Path_13415" data-name="Path 13415" d="M80.483,234.078l-.986.142a.087.087,0,0,1-.087-.047h0v-.063l.978-.15a.118.118,0,0,1,.095.055h0a.039.039,0,0,1,0,.063Z" transform="translate(-35.265 -213.95)" fill="#fff"/>
      <path id="Path_13416" data-name="Path 13416" d="M88.157,243.954l-6.6.97L78.18,238.67l6.6-.97Z" transform="translate(-35.005 -214.74)" fill="#fd8a00"/>
      <path id="Path_13417" data-name="Path 13417" d="M86.964,247.341l-3.857.568-.2-.371,3.857-.568Z" transform="translate(-36.005 -216.699)" fill="#a6a6a6"/>
      <path id="Path_13418" data-name="Path 13418" d="M88.111,248.021l-4.566.67-.095-.181,4.559-.67Z" transform="translate(-36.119 -216.883)" fill="#a6a6a6"/>
      <path id="Path_13419" data-name="Path 13419" d="M88.341,248.451l-4.566.67-.095-.181,4.566-.67Z" transform="translate(-36.168 -216.974)" fill="#a6a6a6"/>
      <path id="Path_13420" data-name="Path 13420" d="M88.571,248.879,84,249.55l-.095-.189,4.559-.67Z" transform="translate(-36.216 -217.062)" fill="#a6a6a6"/>
      <path id="Path_13421" data-name="Path 13421" d="M77.677,236.32l-.82.126-.087-.158.828-.118Z" transform="translate(-34.707 -214.417)" fill="#a6a6a6"/>
      <path id="Path_13422" data-name="Path 13422" d="M77.867,236.678l-.82.118-.087-.15.828-.126Z" transform="translate(-34.747 -214.491)" fill="#a6a6a6"/>
      <path id="Path_13423" data-name="Path 13423" d="M78.057,237.03l-.82.118L77.15,237l.828-.118Z" transform="translate(-34.788 -214.567)" fill="#a6a6a6"/>
      <path id="Path_13424" data-name="Path 13424" d="M91.2,246.719a.45.45,0,0,1-.118.221,1.073,1.073,0,0,1-.315-.158c-.2-.126-.292-.331-.126-.355a.268.268,0,0,1,.252.15s-.071-.174.055-.2S91.237,246.561,91.2,246.719Z" transform="translate(-37.62 -216.574)" fill="#fd8a00"/>
      <path id="Path_13425" data-name="Path 13425" d="M92.044,252.133l-5.332.781-.773-1.443,5.324-.781Z" transform="translate(-36.645 -217.485)" fill="#fd8a00"/>
      <path id="Path_13426" data-name="Path 13426" d="M86.764,255.7c2.366.394-4.559-5.521-4.267-8.226s2.768-1.451,4.59.371c6.309,6.309,11.736,6.9,14.583,12.461S86.764,255.7,86.764,255.7Z" transform="translate(-35.916 -216.474)" fill="#ad6359"/>
      <path id="Path_13427" data-name="Path 13427" d="M127.185,265.4c-.686.5-1.349,1.033-2.011,1.577a12.826,12.826,0,0,1-1.924,1.388,3.88,3.88,0,0,1-2.587.126,23.041,23.041,0,0,1-2.279-.592,68.875,68.875,0,0,1-8.975-3.541A47.069,47.069,0,0,1,104.589,262l.174.213a11.49,11.49,0,0,0-1.333-2.145,13.889,13.889,0,0,0-2.043-2.1,23.928,23.928,0,0,0-2.532-1.822c-.457-.292-.923-.576-1.388-.852l-.678-.45a3.053,3.053,0,0,1-.789-.5c.055.079.166,0,.095-.079h-.079a.047.047,0,0,0,0,.055c.071.134.237.2.355.284l.647.489,1.215.891c.907.655,1.822,1.325,2.689,2.043a20.672,20.672,0,0,1,2.09,1.98c.331.355.631.741.946,1.12a8.794,8.794,0,0,1,.789,1.167c0,.039,2.847,1.577,4.322,2.366a46.05,46.05,0,0,0,4.535,2.074c1.546.623,3.107,1.191,4.732,1.688a20.069,20.069,0,0,0,2.461.623,4.046,4.046,0,0,0,2.271,0,8.675,8.675,0,0,0,1.987-1.577c.789-.67,1.577-1.341,2.366-2.043C127.271,265.436,127.224,265.38,127.185,265.4Z" transform="translate(-38.771 -218.239)" fill="#263238"/>
      <path id="Path_13428" data-name="Path 13428" d="M135.37,263.2l10.876,10.213s9.275-11.412,11.728-20.23-2.106-10.024-10.2-2C139.858,259.021,135.37,263.2,135.37,263.2Z" transform="translate(-47.091 -216.454)" fill="#37474f"/>
      <path id="Path_13429" data-name="Path 13429" d="M143.927,257.418c-1.412,1.238-2.76,2.563-4.1,3.872-.655.639-1.3,1.278-1.932,1.932-.339.347-.678.686-1.01,1.033a8.937,8.937,0,0,1-1.151,1.1c-.071.055,0,.166.079.095a18.989,18.989,0,0,1,2.066-1.909c.718-.647,1.428-1.309,2.122-1.98,1.357-1.325,2.721-2.674,3.943-4.1C144.005,257.434,143.958,257.394,143.927,257.418Z" transform="translate(-47.161 -218.905)" fill="#263238"/>
      <path id="Path_13430" data-name="Path 13430" d="M157.958,264.914a9.465,9.465,0,0,1-1.183,1.2l-.489.442c.733-1.215,1.435-2.445,2.074-3.7h0c-1.617,2.366-3.1,4.85-4.732,7.232s-3.155,4.953-4.866,7.3a.063.063,0,1,0,.095.071c1.688-2.366,3.51-4.645,5.079-7.1.623-.986,1.254-1.972,1.869-2.973a4.484,4.484,0,0,0,.536-.481,7.27,7.27,0,0,0,.592-.615c.363-.434.741-.86,1.128-1.278C158.1,264.945,158.006,264.859,157.958,264.914Z" transform="translate(-49.914 -220.052)" fill="#263238"/>
      <path id="Path_13431" data-name="Path 13431" d="M131.42,268.513l3.344-2.753L147.2,277.448l-2.705,3.557Z" transform="translate(-46.256 -220.67)" fill="#37474f"/>
      <path id="Path_13432" data-name="Path 13432" d="M146.883,276.221c-1.538-1.577-3.2-3.036-4.811-4.535s-3.336-2.894-4.9-4.448a.063.063,0,0,0-.087.087c1.577,1.53,3.06,3.155,4.685,4.677a63.792,63.792,0,0,0,5.024,4.314C146.859,276.363,146.946,276.284,146.883,276.221Z" transform="translate(-47.451 -220.98)" fill="#263238"/>
      <path id="Path_13433" data-name="Path 13433" d="M145.26,281.838a28.617,28.617,0,0,1,2.271,1.924h-.268c.883-1.207,1.8-2.366,2.776-3.51v.142c-.292-.315-.584-.631-.86-.954.339.252.678.528,1.01.789l.063.063-.055.079c-.836,1.246-1.727,2.437-2.666,3.6l-.126.166-.134-.142C146.585,283.312,145.907,282.595,145.26,281.838Z" transform="translate(-49.18 -223.56)" fill="#263238"/>
      <path id="Path_13434" data-name="Path 13434" d="M157.016,246.61a8.952,8.952,0,0,0-2.043,1.183,22.34,22.34,0,0,0-1.9,1.491c-1.183,1.057-2.3,2.169-3.462,3.249h0c.5-.615,1.049-1.2,1.577-1.767a16.139,16.139,0,0,1,1.775-1.577c.615-.489,1.238-.994,1.893-1.443a9.275,9.275,0,0,1,2.106-1.112h0Z" transform="translate(-50.1 -216.623)" fill="#263238"/>
    </g>
  </g>
</svg>
