<svg xmlns="http://www.w3.org/2000/svg" width="15.158" height="18.407" viewBox="0 0 15.158 18.407">
  <path id="Path_34175" d="M7.624,18.407h0a.892.892,0,0,1-.423-.129,19.982,19.982,0,0,1-5.239-4.924A9.991,9.991,0,0,1,0,7.725a7.759,7.759,0,0,1,3.824-6.71,7.459,7.459,0,0,1,7.617.062,7.855,7.855,0,0,1,2.734,2.9,8.033,8.033,0,0,1,.983,3.89A11.385,11.385,0,0,1,11.7,15.2a20.3,20.3,0,0,1-3.637,3.053,1.27,1.27,0,0,1-.44.156ZM7.571,5.249a2.536,2.536,0,0,0-1.818.764,2.647,2.647,0,0,0-.562,2.859A2.566,2.566,0,0,0,7.57,10.494h.018a2.52,2.52,0,0,0,1.805-.76,2.658,2.658,0,0,0-.831-4.283A2.521,2.521,0,0,0,7.571,5.249Z" transform="translate(0)" fill="#fd8a00"/>
</svg>
