<svg xmlns="http://www.w3.org/2000/svg" width="101.277" height="134.167" viewBox="0 0 101.277 134.167">
  <g id="Group_1831" data-name="Group 1831" transform="translate(-326.723 -791.833)">
    <path id="Path_12582" data-name="Path 12582" d="M623.286,9416.659c-84.947,60.611-116.136,38.532-94.639,133.774,36.415.879,94.67.008,94.67.008S623.421,9465.578,623.286,9416.659Z" transform="translate(-195.355 -8624.826)" fill="#fd8a00"/>
    <g id="Arrow_-_Left_Square" data-name="Arrow - Left Square" transform="translate(386.819 868.82) rotate(90)" style="isolation: isolate">
      <path id="Fill_4" data-name="Fill 4" d="M.427,7.784,7.764.415a1.513,1.513,0,0,1,2.083,0l7.336,7.369A1.469,1.469,0,0,1,15.1,9.857L10.271,5.009V17.447a1.468,1.468,0,0,1-2.936,0V5.009L2.508,9.857A1.468,1.468,0,0,1,.427,7.784" transform="translate(0 0)" fill="#fff"/>
    </g>
  </g>
</svg>
