<svg id="Show" xmlns="http://www.w3.org/2000/svg" width="16.788" height="13.29" viewBox="0 0 16.788 13.29">
  <path id="Fill_1" data-name="Fill 1" d="M8.394,13.29H8.386c-3.466,0-6.582-2.4-8.336-6.412a.6.6,0,0,1,0-.475C1.8,2.394,4.917,0,8.386,0h.008a7.863,7.863,0,0,1,4.815,1.7,11.832,11.832,0,0,1,3.529,4.7.6.6,0,0,1,0,.475C14.984,10.893,11.865,13.29,8.394,13.29Zm0-9.867a3.218,3.218,0,1,0,3.267,3.222A3.253,3.253,0,0,0,8.394,3.423Z" transform="translate(0 0)" fill="#7d7d7d" opacity="0.4"/>
  <path id="Fill_4" data-name="Fill 4" d="M4.064,2.024A2.032,2.032,0,0,1,0,2.024a2.1,2.1,0,0,1,.041-.4H.081a1.667,1.667,0,0,0,1.67-1.6A1.706,1.706,0,0,1,2.036,0,2.029,2.029,0,0,1,4.064,2.024" transform="translate(6.314 4.653)" fill="#7d7d7d"/>
</svg>
