<svg xmlns="http://www.w3.org/2000/svg" width="17.787" height="16.929" viewBox="0 0 17.787 16.929">
  <g id="Star" transform="translate(0.75 0.755)">
    <path id="Star-2" data-name="Star" d="M8.721.376,10.7,4.354a.682.682,0,0,0,.512.373l4.427.639a.681.681,0,0,1,.451.261.657.657,0,0,1-.073.881l-3.208,3.1a.651.651,0,0,0-.193.6l.768,4.378a.672.672,0,0,1-.557.762.741.741,0,0,1-.441-.068L8.442,13.215a.662.662,0,0,0-.634,0L3.837,15.293a.693.693,0,0,1-.92-.282.68.68,0,0,1-.069-.427l.768-4.378a.673.673,0,0,0-.193-.6L.2,6.506a.671.671,0,0,1,0-.949l0,0a.776.776,0,0,1,.386-.19l4.428-.639a.693.693,0,0,0,.512-.374L7.5.376A.672.672,0,0,1,7.891.035a.681.681,0,0,1,.521.038A.7.7,0,0,1,8.721.376Z" transform="translate(0 0)" fill="#fd8a00" stroke="#fd8a00" stroke-linecap="round" stroke-linejoin="round" stroke-miterlimit="10" stroke-width="1.5"/>
  </g>
</svg>
