<svg id="Wallet" xmlns="http://www.w3.org/2000/svg" width="17.137" height="15.423" viewBox="0 0 17.137 15.423">
  <path id="Wallet-2" data-name="Wallet" d="M12.437,15.423H4.7a4.833,4.833,0,0,1-3.458-1.209A4.561,4.561,0,0,1,0,10.849V4.575A4.561,4.561,0,0,1,1.242,1.209,4.833,4.833,0,0,1,4.7,0h7.738A4.814,4.814,0,0,1,15.9,1.214a4.62,4.62,0,0,1,1.242,3.4H13.511v.029a3.07,3.07,0,0,0-2.154.872,2.913,2.913,0,0,0-.893,2.1,3.013,3.013,0,0,0,3.047,2.971h3.625v.267A4.561,4.561,0,0,1,15.9,14.214,4.833,4.833,0,0,1,12.437,15.423ZM4.059,3.334a.649.649,0,0,0-.655.631.656.656,0,0,0,.655.646H8.9a.639.639,0,1,0,0-1.277ZM16.5,9.3H13.555A1.8,1.8,0,0,1,11.79,7.938a1.694,1.694,0,0,1,.371-1.416,1.79,1.79,0,0,1,1.35-.634H16.5a.633.633,0,0,1,.64.624V8.681A.643.643,0,0,1,16.5,9.3ZM13.633,6.891a.649.649,0,0,0-.454.182.627.627,0,0,0-.193.449.657.657,0,0,0,.655.646h.281a.639.639,0,1,0,0-1.277h-.29Z" transform="translate(0 0)" fill="#fd8a00"/>
</svg>
