<svg id="Heart" xmlns="http://www.w3.org/2000/svg" width="17.137" height="16.28" viewBox="0 0 17.137 16.28">
  <path id="Heart-2" data-name="Heart" d="M8.6,16.28h0l-.222-.137a32.7,32.7,0,0,1-5.457-4.251A11.133,11.133,0,0,1,.337,7.78a6.635,6.635,0,0,1,.123-4.52A5.213,5.213,0,0,1,3.705.231,3.86,3.86,0,0,1,4.467.052h.1A4.888,4.888,0,0,1,5.29,0h.094A5.369,5.369,0,0,1,6.952.283H7A.283.283,0,0,1,7.08.334a2.892,2.892,0,0,1,.54.224L7.946.7A2.251,2.251,0,0,1,8.19.865c.049.036.091.066.124.087l.035.02a2.086,2.086,0,0,1,.222.142A5.333,5.333,0,0,1,11.832,0h.038a4.992,4.992,0,0,1,1.594.249,5.157,5.157,0,0,1,3.218,3.014,6.782,6.782,0,0,1,.132,4.517A10.952,10.952,0,0,1,14.236,11.9a33.075,33.075,0,0,1-5.425,4.25L8.6,16.28ZM12.8,2.671a.693.693,0,0,0-.648.465.7.7,0,0,0,.428.881A1.436,1.436,0,0,1,13.5,5.363V5.39a.737.737,0,0,0,.163.531.72.72,0,0,0,.488.248.705.705,0,0,0,.677-.652v-.1a2.828,2.828,0,0,0-1.808-2.708A.668.668,0,0,0,12.8,2.671Z" transform="translate(0 0)" fill="#fd8a00"/>
</svg>
