<svg xmlns="http://www.w3.org/2000/svg" width="66.604" height="66.949" viewBox="0 0 66.604 66.949">
  <g id="Group_1789" data-name="Group 1789" transform="translate(-176.788 -9)">
    <g id="Path_1945" data-name="Path 1945" transform="translate(176.788 9)" fill="#fff">
      <path d="M33.3,0A33.475,33.475,0,1,1,0,33.475,33.389,33.389,0,0,1,33.3,0Z" stroke="none"/>
      <path d="M 33.30213165283203 0.9999923706054688 C 28.94157028198242 0.9999923706054688 24.71193313598633 1.858230590820312 20.7307014465332 3.550872802734375 C 16.88444137573242 5.186134338378906 13.42985153198242 7.527435302734375 10.4629020690918 10.5097541809082 C 7.495590209960938 13.49243545532227 5.165981292724609 16.96554565429688 3.538772583007812 20.83261489868164 C 1.854171752929688 24.83609390258789 1 29.08947372436523 1 33.47459411621094 C 1 37.85971450805664 1.854171752929688 42.11309432983398 3.538772583007812 46.11657333374023 C 5.165981292724609 49.983642578125 7.495590209960938 53.45675277709961 10.4629020690918 56.43942260742188 C 13.42985153198242 59.42174530029297 16.88444137573242 61.76305389404297 20.7307014465332 63.3983039855957 C 24.71193313598633 65.0909423828125 28.94157028198242 65.94918060302734 33.30213165283203 65.94918060302734 C 37.66268920898438 65.94918060302734 41.892333984375 65.0909423828125 45.87356185913086 63.3983039855957 C 49.71982192993164 61.76305389404297 53.17440032958984 59.42174530029297 56.14136123657227 56.43942260742188 C 59.10867309570312 53.45675277709961 61.43828201293945 49.983642578125 63.06549072265625 46.11657333374023 C 64.75009155273438 42.11309432983398 65.60426330566406 37.85971450805664 65.60426330566406 33.47459411621094 C 65.60426330566406 29.08947372436523 64.75009155273438 24.83609390258789 63.06549072265625 20.83261489868164 C 61.43828201293945 16.96554565429688 59.10867309570312 13.49243545532227 56.14136123657227 10.5097541809082 C 53.17440032958984 7.527435302734375 49.71982192993164 5.186134338378906 45.87356185913086 3.550872802734375 C 41.892333984375 1.858230590820312 37.66268920898438 0.9999923706054688 33.30213165283203 0.9999923706054688 M 33.30213165283203 -7.62939453125e-06 C 51.69438171386719 -7.62939453125e-06 66.60426330566406 14.98708343505859 66.60426330566406 33.47459411621094 C 66.60426330566406 51.96210479736328 51.69438171386719 66.94918060302734 33.30213165283203 66.94918060302734 C 14.90987014770508 66.94918060302734 0 51.96210479736328 0 33.47459411621094 C 0 14.98708343505859 14.90987014770508 -7.62939453125e-06 33.30213165283203 -7.62939453125e-06 Z" stroke="none" fill="rgba(32,10,77,0.2)"/>
    </g>
    <path id="apple" d="M18.719,43.07A4.366,4.366,0,0,1,21.057,39.1,5.025,5.025,0,0,0,17.1,37.018c-1.66-.131-3.475.968-4.139.968-.7,0-2.31-.921-3.573-.921C6.773,37.107,4,39.146,4,43.295a11.657,11.657,0,0,0,.673,3.8c.6,1.716,2.759,5.926,5.014,5.856,1.179-.028,2.011-.837,3.545-.837,1.487,0,2.259.837,3.573.837,2.273-.033,4.228-3.859,4.8-5.58a4.636,4.636,0,0,1-2.886-4.3Zm-2.647-7.68A4.405,4.405,0,0,0,17.194,32a4.959,4.959,0,0,0-3.176,1.632A4.474,4.474,0,0,0,12.821,37,3.928,3.928,0,0,0,16.071,35.391Z" transform="translate(196.788)"/>
  </g>
</svg>
