<svg id="Call" xmlns="http://www.w3.org/2000/svg" width="13.331" height="13.331" viewBox="0 0 13.331 13.331">
  <path id="Call-2" data-name="Call" d="M10.776,8.251a1.519,1.519,0,0,0-1.116.293c-.321.187-.932.682-1.282.556A7.953,7.953,0,0,1,4.171,4.994c-.129-.358.365-.972.55-1.3a1.557,1.557,0,0,0,.291-1.123A9.135,9.135,0,0,0,3.459.41,1.275,1.275,0,0,0,2.68,0C1.68-.042.562,1.293.366,1.613A2.6,2.6,0,0,0,.374,4.3c1.2,2.952,5.723,7.406,8.685,8.648a3.58,3.58,0,0,0,1.5.384,1.945,1.945,0,0,0,1.167-.366c.254-.146,1.644-1.319,1.607-2.347a1.294,1.294,0,0,0-.405-.777,9.2,9.2,0,0,0-2.149-1.589" transform="translate(0 0)" fill="#c0bdbd"/>
</svg>
