<svg xmlns="http://www.w3.org/2000/svg" width="66.473" height="66.473" viewBox="0 0 66.473 66.473">
  <g id="Group_1788" data-name="Group 1788" transform="translate(-86.314 -9)">
    <g id="Rectangle_35" data-name="Rectangle 35" transform="translate(86.314 9)" fill="#fff" stroke="rgba(32,10,77,0.2)" stroke-width="1">
      <rect width="66.473" height="66.473" rx="33.237" stroke="none"/>
      <rect x="0.5" y="0.5" width="65.473" height="65.473" rx="32.737" fill="none"/>
    </g>
    <g id="icons8-facebook" transform="translate(109.314 32)">
      <path id="Path_543" data-name="Path 543" d="M15.237,5A10.237,10.237,0,1,0,25.473,15.237,10.237,10.237,0,0,0,15.237,5Z" transform="translate(-5 -5)" fill="#039be5"/>
      <path id="Path_544" data-name="Path 544" d="M21.907,21.548h2.649l.416-2.691H21.906V17.386c0-1.118.365-2.109,1.411-2.109H25V12.928a14.274,14.274,0,0,0-2.1-.127c-2.464,0-3.908,1.3-3.908,4.265v1.79H16.457v2.691H18.99v7.4a9.282,9.282,0,0,0,2.917.022Z" transform="translate(-10.284 -8.598)" fill="#fff"/>
    </g>
  </g>
</svg>
