<svg xmlns="http://www.w3.org/2000/svg" width="17.575" height="20.676" viewBox="0 0 17.575 20.676">
  <g id="Iconly_Bold_Lock" data-name="Iconly/Bold/Lock" transform="translate(0 0)">
    <g id="Lock" transform="translate(0 0)">
      <path id="Lock-2" data-name="Lock" d="M13.163,20.676H4.413A4.37,4.37,0,0,1,0,16.361v-5.1A4.305,4.305,0,0,1,3.078,7.163V5.579A5.657,5.657,0,0,1,8.772,0a5.764,5.764,0,0,1,4.052,1.633A5.474,5.474,0,0,1,14.5,5.579V7.163a4.305,4.305,0,0,1,3.078,4.093v5.1A4.369,4.369,0,0,1,13.163,20.676Zm-4.38-8.907a.905.905,0,0,0-.914.894v2.28a.919.919,0,0,0,1.838,0v-2.28A.91.91,0,0,0,8.782,11.769ZM8.793,1.8a3.837,3.837,0,0,0-3.876,3.76V6.941h7.742V5.579A3.829,3.829,0,0,0,8.793,1.8Z" transform="translate(0 0)" fill="#a3a3a3"/>
    </g>
  </g>
</svg>
