<svg id="Icon_MasterCard" xmlns="http://www.w3.org/2000/svg" width="61.583" height="43.988" viewBox="0 0 61.583 43.988">
  <path id="Path_68" data-name="Path 68" d="M64.583,47.123a5.862,5.862,0,0,1-5.865,5.865H8.865A5.862,5.862,0,0,1,3,47.123V14.865A5.862,5.862,0,0,1,8.865,9H58.718a5.862,5.862,0,0,1,5.865,5.865Z" transform="translate(-3 -9)" fill="#3f51b5" opacity="0"/>
  <path id="Path_69" data-name="Path 69" d="M49.325,28.663A14.663,14.663,0,1,1,34.663,14,14.662,14.662,0,0,1,49.325,28.663Z" transform="translate(4.926 -6.669)" fill="#ffc107"/>
  <path id="Path_70" data-name="Path 70" d="M29.017,37.46a14.6,14.6,0,0,1-1.724-2.933H35.1a14.585,14.585,0,0,0,.934-2.933H26.359a14.51,14.51,0,0,1-.3-2.933H36.325a14.933,14.933,0,0,0-.292-2.933h-9.68a14.608,14.608,0,0,1,.939-2.933H35.1a14.6,14.6,0,0,0-1.724-2.933H29.017a14.711,14.711,0,0,1,2.171-2.337A14.666,14.666,0,1,0,33.37,37.46Z" transform="translate(-1.135 -6.669)" fill="#ff3d00"/>
</svg>
