<svg id="Iconly_Bulk_Lock" data-name="Iconly/Bulk/Lock" xmlns="http://www.w3.org/2000/svg" width="12.999" height="15.157" viewBox="0 0 12.999 15.157">
  <g id="Lock">
    <path id="Fill_1" data-name="Fill 1" d="M9.735,10.069H3.264A3.219,3.219,0,0,1,0,6.906V3.164A3.219,3.219,0,0,1,3.264,0H9.735A3.219,3.219,0,0,1,13,3.164V6.906A3.219,3.219,0,0,1,9.735,10.069ZM6.5,3.539a.667.667,0,0,0-.676.655V5.867a.68.68,0,0,0,1.359,0V4.195A.671.671,0,0,0,6.5,3.539Z" transform="translate(0 5.088)" fill="#c0bdbd"/>
    <path id="Fill_4" data-name="Fill 4" d="M8.446,4.089V5.2a3.2,3.2,0,0,0-.855-.113H7.086v-1A2.819,2.819,0,0,0,4.227,1.318,2.823,2.823,0,0,0,1.36,4.074V5.091h-.5A2.943,2.943,0,0,0,0,5.212V4.089A4.163,4.163,0,0,1,4.211,0,4.158,4.158,0,0,1,8.446,4.089" transform="translate(2.277)" fill="#c0bdbd" opacity="0.4"/>
  </g>
</svg>
