<svg id="Iconly_Bulk_Unlock" data-name="Iconly/Bulk/Unlock" xmlns="http://www.w3.org/2000/svg" width="11.876" height="13.972" viewBox="0 0 11.876 13.972">
  <g id="Unock">
    <path id="Fill_1" data-name="Fill 1" d="M1.242,4.687V3.75A2.591,2.591,0,0,1,3.869,1.215,2.6,2.6,0,0,1,6.332,2.931a.633.633,0,0,0,.8.375.6.6,0,0,0,.383-.771A3.864,3.864,0,0,0,3.855,0,3.83,3.83,0,0,0,0,3.764V4.828Z" transform="translate(2.068)" fill="#c0bdbd" opacity="0.4"/>
    <path id="Fill_4" data-name="Fill 4" d="M8.894,9.283H2.982A2.953,2.953,0,0,1,0,6.367V2.917A2.953,2.953,0,0,1,2.982,0H8.894a2.953,2.953,0,0,1,2.982,2.917v3.45A2.953,2.953,0,0,1,8.894,9.283Zm-2.96-6.02a.611.611,0,0,0-.617.6V5.409a.621.621,0,0,0,1.242,0V3.867A.615.615,0,0,0,5.935,3.264Z" transform="translate(0 4.688)" fill="#c0bdbd"/>
  </g>
</svg>
